<?xml version="1.0" standalone="no"?>
<!DOCTYPE svg PUBLIC "-//W3C//DTD SVG 20010904//EN"
 "http://www.w3.org/TR/2001/REC-SVG-20010904/DTD/svg10.dtd">
<svg version="1.0" xmlns="http://www.w3.org/2000/svg"
 width="512.000000pt" height="512.000000pt" viewBox="0 0 512.000000 512.000000"
 preserveAspectRatio="xMidYMid meet">
<metadata>
Created by potrace 1.16, written by Peter Selinger 2001-2019
</metadata>
<g transform="translate(0.000000,512.000000) scale(0.100000,-0.100000)"
fill="#000000" stroke="none">
<path d="M2285 5100 c-678 -120 -1198 -626 -1347 -1310 -20 -92 -23 -134 -23
-330 0 -246 11 -323 76 -526 61 -190 125 -295 858 -1396 387 -582 707 -1058
711 -1058 4 0 295 435 646 968 351 532 656 992 679 1022 143 188 242 410 297
663 19 88 22 133 22 327 1 253 -12 339 -81 540 -199 584 -704 1008 -1315 1105
-133 21 -392 18 -523 -5z m441 -938 l161 -327 339 -49 c186 -26 350 -51 364
-54 22 -5 0 -29 -239 -261 l-263 -256 61 -354 c34 -195 60 -358 59 -362 -2 -5
-148 68 -325 161 l-323 170 -322 -170 c-178 -93 -324 -166 -326 -161 -1 4 25
167 59 362 l61 354 -263 256 c-239 232 -261 256 -239 261 14 3 178 28 364 54
l339 49 161 327 c89 180 163 327 166 327 3 0 77 -147 166 -327z"/>
<path d="M2491 3705 c-35 -74 -65 -135 -67 -135 -14 0 -290 -43 -293 -45 -2
-2 45 -50 104 -107 l107 -103 -25 -145 c-14 -80 -24 -147 -22 -149 2 -2 63 28
134 65 l131 69 131 -69 c71 -37 132 -67 134 -65 2 2 -8 69 -22 149 l-25 145
107 103 c59 57 106 105 104 107 -3 2 -279 45 -293 45 -2 0 -32 61 -67 135 -35
74 -66 135 -69 135 -3 0 -34 -61 -69 -135z"/>
<path d="M1395 1547 c-165 -89 -325 -228 -394 -341 -62 -103 -84 -172 -89
-275 -5 -113 8 -181 55 -278 79 -162 241 -306 478 -423 207 -103 421 -167 687
-205 138 -20 392 -32 387 -18 -10 29 -1045 1572 -1054 1572 -5 1 -37 -14 -70
-32z"/>
<path d="M3138 818 c-278 -420 -513 -776 -524 -792 l-18 -29 144 6 c346 15
666 93 935 227 238 118 399 261 478 423 47 97 60 165 55 278 -7 148 -68 275
-193 403 -90 92 -318 246 -364 246 -5 0 -236 -343 -513 -762z"/>
</g>
</svg>
