<svg xmlns="http://www.w3.org/2000/svg" xmlns:xlink="http://www.w3.org/1999/xlink" xmlns:fi="http://pattern.flaticon.com/" x="0" y="0" width="700" height="350" viewBox="0 0 700 350"><rect x="0px" y="0px" width="100%" height="100%" opacity="1" fill="#ffffff"/><defs><g transform="matrix(0.1171875 0 0 0.1171875 61 141)" id="L1_25"><path d="m512 256c0 68.378906-26.628906 132.671875-74.980469 181.019531-48.347656 48.351563-112.640625 74.980469-181.019531 74.980469s-132.671875-26.628906-181.019531-74.980469c-48.351563-48.347656-74.980469-112.640625-74.980469-181.019531s26.628906-132.671875 74.980469-181.019531c48.347656-48.351563 112.640625-74.980469 181.019531-74.980469s132.671875 26.628906 181.019531 74.980469c48.351563 48.347656 74.980469 112.640625 74.980469 181.019531zm0 0" fill="#ffe171"/><path d="m512 256c0 68.378906-26.628906 132.671875-74.980469 181.019531-48.347656 48.351563-112.640625 74.980469-181.019531 74.980469v-512c68.378906 0 132.671875 26.628906 181.019531 74.980469 48.351563 48.347656 74.980469 112.640625 74.980469 181.019531zm0 0" fill="#ffd300"/><path d="m420.289062 269.710938c0 90.589843-73.699218 164.289062-164.289062 164.289062s-164.289062-73.699219-164.289062-164.289062zm0 0" fill="#f95858"/><path d="m227.53125 190.332031h-30c0-14.152343-11.515625-25.667969-25.667969-25.667969-14.152343 0-25.667969 11.515626-25.667969 25.667969h-30c0-30.695312 24.972657-55.667969 55.667969-55.667969 30.695313 0 55.667969 24.976563 55.667969 55.667969zm0 0" fill="#b26d3c"/><path d="m395.804688 190.332031h-30c0-14.152343-11.515626-25.667969-25.667969-25.667969-14.152344 0-25.667969 11.515626-25.667969 25.667969h-30c0-30.695312 24.972656-55.667969 55.667969-55.667969 30.695312 0 55.667969 24.976563 55.667969 55.667969zm0 0" fill="#7a3d06"/><path d="m420.289062 269.710938c0 90.589843-73.699218 164.289062-164.289062 164.289062v-164.355469zm0 0" fill="#ea1b5f"/><path d="m420.289062 254.710938v15c0 17.167968-2.648437 33.71875-7.558593 49.289062h-313.460938c-4.910156-15.570312-7.558593-32.121094-7.558593-49.289062v-15zm0 0" fill="#dcf3ff"/><path d="m420.289062 254.710938v15c0 17.167968-2.648437 33.71875-7.558593 49.289062h-156.730469v-64.289062zm0 0" fill="#b0e2fa"/><path d="m490.238281 229.28125c-12.300781-12.300781-35.210937-19.914062-70.042969-23.269531-23.886718-2.304688-44.5625-1.671875-45.433593-1.644531l-14.054688.457031-.453125 14.050781c-.027344.871094-.660156 21.546875 1.644532 45.433594 3.359374 34.832031 10.96875 57.742187 23.269531 70.042968 14.03125 14.035157 32.691406 21.761719 52.535156 21.761719 19.847656 0 38.503906-7.730469 52.535156-21.761719 28.96875-28.96875 28.96875-76.101562 0-105.070312zm0 0" fill="#169eff"/><path d="m151.746094 218.875-.457032-14.054688-14.050781-.453124c-.871093-.027344-21.550781-.660157-45.433593 1.640624-34.832032 3.359376-57.742188 10.972657-70.042969 23.273438-28.96875 28.96875-28.96875 76.101562 0 105.070312 14.03125 14.03125 32.6875 21.757813 52.53125 21.757813 19.847656 0 38.503906-7.726563 52.535156-21.757813 12.300781-12.300781 19.914063-35.210937 23.273437-70.042968 2.304688-23.886719 1.671876-44.566406 1.644532-45.433594zm0 0" fill="#4cc4ff"/></g><g transform="matrix(0.1171875 0 0 0.1171875 81 315)" id="L1_26"><path d="m512 256c0 68.378906-26.628906 132.671875-74.980469 181.019531-48.347656 48.351563-112.640625 74.980469-181.019531 74.980469s-132.671875-26.628906-181.019531-74.980469c-48.351563-48.347656-74.980469-112.640625-74.980469-181.019531s26.628906-132.671875 74.980469-181.019531c48.347656-48.351563 112.640625-74.980469 181.019531-74.980469s132.671875 26.628906 181.019531 74.980469c48.351563 48.347656 74.980469 112.640625 74.980469 181.019531zm0 0" fill="#ffe171"/><path d="m512 256c0 68.378906-26.628906 132.671875-74.980469 181.019531-48.347656 48.351563-112.640625 74.980469-181.019531 74.980469v-512c68.378906 0 132.671875 26.628906 181.019531 74.980469 48.351563 48.347656 74.980469 112.640625 74.980469 181.019531zm0 0" fill="#ffd300"/><path d="m420.289062 269.710938c0 90.589843-73.699218 164.289062-164.289062 164.289062s-164.289062-73.699219-164.289062-164.289062zm0 0" fill="#f95858"/><path d="m227.53125 190.332031h-30c0-14.152343-11.515625-25.667969-25.667969-25.667969-14.152343 0-25.667969 11.515626-25.667969 25.667969h-30c0-30.695312 24.972657-55.667969 55.667969-55.667969 30.695313 0 55.667969 24.976563 55.667969 55.667969zm0 0" fill="#b26d3c"/><path d="m395.804688 190.332031h-30c0-14.152343-11.515626-25.667969-25.667969-25.667969-14.152344 0-25.667969 11.515626-25.667969 25.667969h-30c0-30.695312 24.972656-55.667969 55.667969-55.667969 30.695312 0 55.667969 24.976563 55.667969 55.667969zm0 0" fill="#7a3d06"/><path d="m420.289062 269.710938c0 90.589843-73.699218 164.289062-164.289062 164.289062v-164.355469zm0 0" fill="#ea1b5f"/><path d="m420.289062 254.710938v15c0 17.167968-2.648437 33.71875-7.558593 49.289062h-313.460938c-4.910156-15.570312-7.558593-32.121094-7.558593-49.289062v-15zm0 0" fill="#dcf3ff"/><path d="m420.289062 254.710938v15c0 17.167968-2.648437 33.71875-7.558593 49.289062h-156.730469v-64.289062zm0 0" fill="#b0e2fa"/><path d="m490.238281 229.28125c-12.300781-12.300781-35.210937-19.914062-70.042969-23.269531-23.886718-2.304688-44.5625-1.671875-45.433593-1.644531l-14.054688.457031-.453125 14.050781c-.027344.871094-.660156 21.546875 1.644532 45.433594 3.359374 34.832031 10.96875 57.742187 23.269531 70.042968 14.03125 14.035157 32.691406 21.761719 52.535156 21.761719 19.847656 0 38.503906-7.730469 52.535156-21.761719 28.96875-28.96875 28.96875-76.101562 0-105.070312zm0 0" fill="#169eff"/><path d="m151.746094 218.875-.457032-14.054688-14.050781-.453124c-.871093-.027344-21.550781-.660157-45.433593 1.640624-34.832032 3.359376-57.742188 10.972657-70.042969 23.273438-28.96875 28.96875-28.96875 76.101562 0 105.070312 14.03125 14.03125 32.6875 21.757813 52.53125 21.757813 19.847656 0 38.503906-7.726563 52.535156-21.757813 12.300781-12.300781 19.914063-35.210937 23.273437-70.042968 2.304688-23.886719 1.671876-44.566406 1.644532-45.433594zm0 0" fill="#4cc4ff"/></g><g transform="matrix(0.1171875 0 0 0.1171875 215 208)" id="L1_27"><path d="m512 256c0 68.378906-26.628906 132.671875-74.980469 181.019531-48.347656 48.351563-112.640625 74.980469-181.019531 74.980469s-132.671875-26.628906-181.019531-74.980469c-48.351563-48.347656-74.980469-112.640625-74.980469-181.019531s26.628906-132.671875 74.980469-181.019531c48.347656-48.351563 112.640625-74.980469 181.019531-74.980469s132.671875 26.628906 181.019531 74.980469c48.351563 48.347656 74.980469 112.640625 74.980469 181.019531zm0 0" fill="#ffe171"/><path d="m512 256c0 68.378906-26.628906 132.671875-74.980469 181.019531-48.347656 48.351563-112.640625 74.980469-181.019531 74.980469v-512c68.378906 0 132.671875 26.628906 181.019531 74.980469 48.351563 48.347656 74.980469 112.640625 74.980469 181.019531zm0 0" fill="#ffd300"/><path d="m420.289062 269.710938c0 90.589843-73.699218 164.289062-164.289062 164.289062s-164.289062-73.699219-164.289062-164.289062zm0 0" fill="#f95858"/><path d="m227.53125 190.332031h-30c0-14.152343-11.515625-25.667969-25.667969-25.667969-14.152343 0-25.667969 11.515626-25.667969 25.667969h-30c0-30.695312 24.972657-55.667969 55.667969-55.667969 30.695313 0 55.667969 24.976563 55.667969 55.667969zm0 0" fill="#b26d3c"/><path d="m395.804688 190.332031h-30c0-14.152343-11.515626-25.667969-25.667969-25.667969-14.152344 0-25.667969 11.515626-25.667969 25.667969h-30c0-30.695312 24.972656-55.667969 55.667969-55.667969 30.695312 0 55.667969 24.976563 55.667969 55.667969zm0 0" fill="#7a3d06"/><path d="m420.289062 269.710938c0 90.589843-73.699218 164.289062-164.289062 164.289062v-164.355469zm0 0" fill="#ea1b5f"/><path d="m420.289062 254.710938v15c0 17.167968-2.648437 33.71875-7.558593 49.289062h-313.460938c-4.910156-15.570312-7.558593-32.121094-7.558593-49.289062v-15zm0 0" fill="#dcf3ff"/><path d="m420.289062 254.710938v15c0 17.167968-2.648437 33.71875-7.558593 49.289062h-156.730469v-64.289062zm0 0" fill="#b0e2fa"/><path d="m490.238281 229.28125c-12.300781-12.300781-35.210937-19.914062-70.042969-23.269531-23.886718-2.304688-44.5625-1.671875-45.433593-1.644531l-14.054688.457031-.453125 14.050781c-.027344.871094-.660156 21.546875 1.644532 45.433594 3.359374 34.832031 10.96875 57.742187 23.269531 70.042968 14.03125 14.035157 32.691406 21.761719 52.535156 21.761719 19.847656 0 38.503906-7.730469 52.535156-21.761719 28.96875-28.96875 28.96875-76.101562 0-105.070312zm0 0" fill="#169eff"/><path d="m151.746094 218.875-.457032-14.054688-14.050781-.453124c-.871093-.027344-21.550781-.660157-45.433593 1.640624-34.832032 3.359376-57.742188 10.972657-70.042969 23.273438-28.96875 28.96875-28.96875 76.101562 0 105.070312 14.03125 14.03125 32.6875 21.757813 52.53125 21.757813 19.847656 0 38.503906-7.726563 52.535156-21.757813 12.300781-12.300781 19.914063-35.210937 23.273437-70.042968 2.304688-23.886719 1.671876-44.566406 1.644532-45.433594zm0 0" fill="#4cc4ff"/></g><g transform="matrix(0.1171875 0 0 0.1171875 302 40)" id="L1_28"><path d="m512 256c0 68.378906-26.628906 132.671875-74.980469 181.019531-48.347656 48.351563-112.640625 74.980469-181.019531 74.980469s-132.671875-26.628906-181.019531-74.980469c-48.351563-48.347656-74.980469-112.640625-74.980469-181.019531s26.628906-132.671875 74.980469-181.019531c48.347656-48.351563 112.640625-74.980469 181.019531-74.980469s132.671875 26.628906 181.019531 74.980469c48.351563 48.347656 74.980469 112.640625 74.980469 181.019531zm0 0" fill="#ffe171"/><path d="m512 256c0 68.378906-26.628906 132.671875-74.980469 181.019531-48.347656 48.351563-112.640625 74.980469-181.019531 74.980469v-512c68.378906 0 132.671875 26.628906 181.019531 74.980469 48.351563 48.347656 74.980469 112.640625 74.980469 181.019531zm0 0" fill="#ffd300"/><path d="m420.289062 269.710938c0 90.589843-73.699218 164.289062-164.289062 164.289062s-164.289062-73.699219-164.289062-164.289062zm0 0" fill="#f95858"/><path d="m227.53125 190.332031h-30c0-14.152343-11.515625-25.667969-25.667969-25.667969-14.152343 0-25.667969 11.515626-25.667969 25.667969h-30c0-30.695312 24.972657-55.667969 55.667969-55.667969 30.695313 0 55.667969 24.976563 55.667969 55.667969zm0 0" fill="#b26d3c"/><path d="m395.804688 190.332031h-30c0-14.152343-11.515626-25.667969-25.667969-25.667969-14.152344 0-25.667969 11.515626-25.667969 25.667969h-30c0-30.695312 24.972656-55.667969 55.667969-55.667969 30.695312 0 55.667969 24.976563 55.667969 55.667969zm0 0" fill="#7a3d06"/><path d="m420.289062 269.710938c0 90.589843-73.699218 164.289062-164.289062 164.289062v-164.355469zm0 0" fill="#ea1b5f"/><path d="m420.289062 254.710938v15c0 17.167968-2.648437 33.71875-7.558593 49.289062h-313.460938c-4.910156-15.570312-7.558593-32.121094-7.558593-49.289062v-15zm0 0" fill="#dcf3ff"/><path d="m420.289062 254.710938v15c0 17.167968-2.648437 33.71875-7.558593 49.289062h-156.730469v-64.289062zm0 0" fill="#b0e2fa"/><path d="m490.238281 229.28125c-12.300781-12.300781-35.210937-19.914062-70.042969-23.269531-23.886718-2.304688-44.5625-1.671875-45.433593-1.644531l-14.054688.457031-.453125 14.050781c-.027344.871094-.660156 21.546875 1.644532 45.433594 3.359374 34.832031 10.96875 57.742187 23.269531 70.042968 14.03125 14.035157 32.691406 21.761719 52.535156 21.761719 19.847656 0 38.503906-7.730469 52.535156-21.761719 28.96875-28.96875 28.96875-76.101562 0-105.070312zm0 0" fill="#169eff"/><path d="m151.746094 218.875-.457032-14.054688-14.050781-.453124c-.871093-.027344-21.550781-.660157-45.433593 1.640624-34.832032 3.359376-57.742188 10.972657-70.042969 23.273438-28.96875 28.96875-28.96875 76.101562 0 105.070312 14.03125 14.03125 32.6875 21.757813 52.53125 21.757813 19.847656 0 38.503906-7.726563 52.535156-21.757813 12.300781-12.300781 19.914063-35.210937 23.273437-70.042968 2.304688-23.886719 1.671876-44.566406 1.644532-45.433594zm0 0" fill="#4cc4ff"/></g></defs><g fi:class="KUsePattern"><pattern id="pattern_L1_25" width="350" height="350" patternUnits="userSpaceOnUse"><use xlink:href="#L1_25" x="-350" y="-350"/><use xlink:href="#L1_25" x="0" y="-350"/><use xlink:href="#L1_25" x="350" y="-350"/><use xlink:href="#L1_25" x="-350" y="0"/><use xlink:href="#L1_25" x="0" y="0"/><use xlink:href="#L1_25" x="350" y="0"/><use xlink:href="#L1_25" x="-350" y="350"/><use xlink:href="#L1_25" x="0" y="350"/><use xlink:href="#L1_25" x="350" y="350"/></pattern><rect x="0" y="0" width="100%" height="100%" fill="url(#pattern_L1_25)"/></g><g fi:class="KUsePattern"><pattern id="pattern_L1_26" width="350" height="350" patternUnits="userSpaceOnUse"><use xlink:href="#L1_26" x="-350" y="-350"/><use xlink:href="#L1_26" x="0" y="-350"/><use xlink:href="#L1_26" x="350" y="-350"/><use xlink:href="#L1_26" x="-350" y="0"/><use xlink:href="#L1_26" x="0" y="0"/><use xlink:href="#L1_26" x="350" y="0"/><use xlink:href="#L1_26" x="-350" y="350"/><use xlink:href="#L1_26" x="0" y="350"/><use xlink:href="#L1_26" x="350" y="350"/></pattern><rect x="0" y="0" width="100%" height="100%" fill="url(#pattern_L1_26)"/></g><g fi:class="KUsePattern"><pattern id="pattern_L1_27" width="350" height="350" patternUnits="userSpaceOnUse"><use xlink:href="#L1_27" x="-350" y="-350"/><use xlink:href="#L1_27" x="0" y="-350"/><use xlink:href="#L1_27" x="350" y="-350"/><use xlink:href="#L1_27" x="-350" y="0"/><use xlink:href="#L1_27" x="0" y="0"/><use xlink:href="#L1_27" x="350" y="0"/><use xlink:href="#L1_27" x="-350" y="350"/><use xlink:href="#L1_27" x="0" y="350"/><use xlink:href="#L1_27" x="350" y="350"/></pattern><rect x="0" y="0" width="100%" height="100%" fill="url(#pattern_L1_27)"/></g><g fi:class="KUsePattern"><pattern id="pattern_L1_28" width="350" height="350" patternUnits="userSpaceOnUse"><use xlink:href="#L1_28" x="-350" y="-350"/><use xlink:href="#L1_28" x="0" y="-350"/><use xlink:href="#L1_28" x="350" y="-350"/><use xlink:href="#L1_28" x="-350" y="0"/><use xlink:href="#L1_28" x="0" y="0"/><use xlink:href="#L1_28" x="350" y="0"/><use xlink:href="#L1_28" x="-350" y="350"/><use xlink:href="#L1_28" x="0" y="350"/><use xlink:href="#L1_28" x="350" y="350"/></pattern><rect x="0" y="0" width="100%" height="100%" fill="url(#pattern_L1_28)"/></g></svg>