<svg xmlns="http://www.w3.org/2000/svg" xmlns:xlink="http://www.w3.org/1999/xlink" xmlns:fi="http://pattern.flaticon.com/" x="0" y="0" width="700" height="350" viewBox="0 0 700 350"><rect x="0px" y="0px" width="100%" height="100%" opacity="1" fill="#ffffff"/><defs><g transform="matrix(0.1171875 0 0 0.1171875 83 56)" id="L1_29"><path d="m512 256c0 68.378906-26.628906 132.671875-74.980469 181.019531-48.347656 48.351563-112.640625 74.980469-181.019531 74.980469s-132.671875-26.628906-181.019531-74.980469c-48.351563-48.347656-74.980469-112.640625-74.980469-181.019531s26.628906-132.671875 74.980469-181.019531c48.347656-48.351563 112.640625-74.980469 181.019531-74.980469s132.671875 26.628906 181.019531 74.980469c48.351563 48.347656 74.980469 112.640625 74.980469 181.019531zm0 0" fill="#ffe171"/><path d="m512 256c0 68.378906-26.628906 132.671875-74.980469 181.019531-48.347656 48.351563-112.640625 74.980469-181.019531 74.980469v-512c68.378906 0 132.671875 26.628906 181.019531 74.980469 48.351563 48.347656 74.980469 112.640625 74.980469 181.019531zm0 0" fill="#ffd300"/><path d="m241.742188 135.65625c-3.664063-27.859375-29.328126-47.550781-57.171876-43.882812-10.515624 1.382812-20.21875 6.011718-27.851562 13.027343-9.191406-4.804687-19.761719-6.769531-30.273438-5.386719-13.496093 1.773438-25.496093 8.699219-33.785156 19.496094-8.285156 10.800782-11.875 24.179688-10.101562 37.675782 1.652344 12.550781 7.867187 23.976562 17.5 32.164062l76.230468 64.9375 56.855469-82.421875c7.195313-10.410156 10.246094-23.054687 8.597657-35.609375zm0 0" fill="#f95858"/><path d="m383.101562 99.414062c-10.519531-1.382812-21.085937.585938-30.273437 5.386719-7.632813-7.015625-17.335937-11.644531-27.851563-13.027343-27.851562-3.664063-53.507812 16.023437-57.171874 43.882812-1.648438 12.550781 1.402343 25.199219 8.589843 35.597656l56.859375 82.433594 76.226563-64.925781c9.636719-8.199219 15.855469-19.625 17.507812-32.175781 3.660157-27.863282-16.027343-53.507813-43.886719-57.171876zm0 0" fill="#ea1b5f"/><path d="m405.710938 280.46875v15c0 46.929688-21.710938 88.890625-55.609376 116.359375-25.730468 20.851563-94.101562-49.003906-94.101562-49.003906s-68.148438 69.9375-93.839844 49.214843c-34.050781-27.46875-55.871094-69.519531-55.871094-116.570312v-15zm0 0" fill="#b26d3c"/><path d="m405.710938 280.46875v15c0 46.929688-21.710938 88.890625-55.609376 116.359375-25.730468 20.851563-94.101562-49.003906-94.101562-49.003906v-82.355469zm0 0" fill="#7a3d06"/><path d="m350.101562 411.828125c-25.730468 20.851563-58.480468 33.351563-94.101562 33.351563-35.5 0-68.148438-12.417969-93.839844-33.140626 2.808594-7.089843 7.378906-16.449218 14.5-25.898437 13.167969-17.480469 37.628906-38.3125 79.339844-38.3125 41.648438 0 66.101562 20.511719 79.269531 37.722656 7.378907 9.640625 12.03125 19.1875 14.832031 26.277344zm0 0" fill="#f95858"/><path d="m350.101562 411.828125c-25.730468 20.851563-58.480468 33.351563-94.101562 33.351563v-97.351563c41.648438 0 66.101562 20.511719 79.269531 37.722656 7.378907 9.640625 12.03125 19.1875 14.832031 26.277344zm0 0" fill="#ea1b5f"/></g><g transform="matrix(0.1171875 0 0 0.1171875 179 192)" id="L1_30"><path d="m512 256c0 68.378906-26.628906 132.671875-74.980469 181.019531-48.347656 48.351563-112.640625 74.980469-181.019531 74.980469s-132.671875-26.628906-181.019531-74.980469c-48.351563-48.347656-74.980469-112.640625-74.980469-181.019531s26.628906-132.671875 74.980469-181.019531c48.347656-48.351563 112.640625-74.980469 181.019531-74.980469s132.671875 26.628906 181.019531 74.980469c48.351563 48.347656 74.980469 112.640625 74.980469 181.019531zm0 0" fill="#ffe171"/><path d="m512 256c0 68.378906-26.628906 132.671875-74.980469 181.019531-48.347656 48.351563-112.640625 74.980469-181.019531 74.980469v-512c68.378906 0 132.671875 26.628906 181.019531 74.980469 48.351563 48.347656 74.980469 112.640625 74.980469 181.019531zm0 0" fill="#ffd300"/><path d="m241.742188 135.65625c-3.664063-27.859375-29.328126-47.550781-57.171876-43.882812-10.515624 1.382812-20.21875 6.011718-27.851562 13.027343-9.191406-4.804687-19.761719-6.769531-30.273438-5.386719-13.496093 1.773438-25.496093 8.699219-33.785156 19.496094-8.285156 10.800782-11.875 24.179688-10.101562 37.675782 1.652344 12.550781 7.867187 23.976562 17.5 32.164062l76.230468 64.9375 56.855469-82.421875c7.195313-10.410156 10.246094-23.054687 8.597657-35.609375zm0 0" fill="#f95858"/><path d="m383.101562 99.414062c-10.519531-1.382812-21.085937.585938-30.273437 5.386719-7.632813-7.015625-17.335937-11.644531-27.851563-13.027343-27.851562-3.664063-53.507812 16.023437-57.171874 43.882812-1.648438 12.550781 1.402343 25.199219 8.589843 35.597656l56.859375 82.433594 76.226563-64.925781c9.636719-8.199219 15.855469-19.625 17.507812-32.175781 3.660157-27.863282-16.027343-53.507813-43.886719-57.171876zm0 0" fill="#ea1b5f"/><path d="m405.710938 280.46875v15c0 46.929688-21.710938 88.890625-55.609376 116.359375-25.730468 20.851563-94.101562-49.003906-94.101562-49.003906s-68.148438 69.9375-93.839844 49.214843c-34.050781-27.46875-55.871094-69.519531-55.871094-116.570312v-15zm0 0" fill="#b26d3c"/><path d="m405.710938 280.46875v15c0 46.929688-21.710938 88.890625-55.609376 116.359375-25.730468 20.851563-94.101562-49.003906-94.101562-49.003906v-82.355469zm0 0" fill="#7a3d06"/><path d="m350.101562 411.828125c-25.730468 20.851563-58.480468 33.351563-94.101562 33.351563-35.5 0-68.148438-12.417969-93.839844-33.140626 2.808594-7.089843 7.378906-16.449218 14.5-25.898437 13.167969-17.480469 37.628906-38.3125 79.339844-38.3125 41.648438 0 66.101562 20.511719 79.269531 37.722656 7.378907 9.640625 12.03125 19.1875 14.832031 26.277344zm0 0" fill="#f95858"/><path d="m350.101562 411.828125c-25.730468 20.851563-58.480468 33.351563-94.101562 33.351563v-97.351563c41.648438 0 66.101562 20.511719 79.269531 37.722656 7.378907 9.640625 12.03125 19.1875 14.832031 26.277344zm0 0" fill="#ea1b5f"/></g><g transform="matrix(0.1171875 0 0 0.1171875 10 214)" id="L1_31"><path d="m512 256c0 68.378906-26.628906 132.671875-74.980469 181.019531-48.347656 48.351563-112.640625 74.980469-181.019531 74.980469s-132.671875-26.628906-181.019531-74.980469c-48.351563-48.347656-74.980469-112.640625-74.980469-181.019531s26.628906-132.671875 74.980469-181.019531c48.347656-48.351563 112.640625-74.980469 181.019531-74.980469s132.671875 26.628906 181.019531 74.980469c48.351563 48.347656 74.980469 112.640625 74.980469 181.019531zm0 0" fill="#ffe171"/><path d="m512 256c0 68.378906-26.628906 132.671875-74.980469 181.019531-48.347656 48.351563-112.640625 74.980469-181.019531 74.980469v-512c68.378906 0 132.671875 26.628906 181.019531 74.980469 48.351563 48.347656 74.980469 112.640625 74.980469 181.019531zm0 0" fill="#ffd300"/><path d="m241.742188 135.65625c-3.664063-27.859375-29.328126-47.550781-57.171876-43.882812-10.515624 1.382812-20.21875 6.011718-27.851562 13.027343-9.191406-4.804687-19.761719-6.769531-30.273438-5.386719-13.496093 1.773438-25.496093 8.699219-33.785156 19.496094-8.285156 10.800782-11.875 24.179688-10.101562 37.675782 1.652344 12.550781 7.867187 23.976562 17.5 32.164062l76.230468 64.9375 56.855469-82.421875c7.195313-10.410156 10.246094-23.054687 8.597657-35.609375zm0 0" fill="#f95858"/><path d="m383.101562 99.414062c-10.519531-1.382812-21.085937.585938-30.273437 5.386719-7.632813-7.015625-17.335937-11.644531-27.851563-13.027343-27.851562-3.664063-53.507812 16.023437-57.171874 43.882812-1.648438 12.550781 1.402343 25.199219 8.589843 35.597656l56.859375 82.433594 76.226563-64.925781c9.636719-8.199219 15.855469-19.625 17.507812-32.175781 3.660157-27.863282-16.027343-53.507813-43.886719-57.171876zm0 0" fill="#ea1b5f"/><path d="m405.710938 280.46875v15c0 46.929688-21.710938 88.890625-55.609376 116.359375-25.730468 20.851563-94.101562-49.003906-94.101562-49.003906s-68.148438 69.9375-93.839844 49.214843c-34.050781-27.46875-55.871094-69.519531-55.871094-116.570312v-15zm0 0" fill="#b26d3c"/><path d="m405.710938 280.46875v15c0 46.929688-21.710938 88.890625-55.609376 116.359375-25.730468 20.851563-94.101562-49.003906-94.101562-49.003906v-82.355469zm0 0" fill="#7a3d06"/><path d="m350.101562 411.828125c-25.730468 20.851563-58.480468 33.351563-94.101562 33.351563-35.5 0-68.148438-12.417969-93.839844-33.140626 2.808594-7.089843 7.378906-16.449218 14.5-25.898437 13.167969-17.480469 37.628906-38.3125 79.339844-38.3125 41.648438 0 66.101562 20.511719 79.269531 37.722656 7.378907 9.640625 12.03125 19.1875 14.832031 26.277344zm0 0" fill="#f95858"/><path d="m350.101562 411.828125c-25.730468 20.851563-58.480468 33.351563-94.101562 33.351563v-97.351563c41.648438 0 66.101562 20.511719 79.269531 37.722656 7.378907 9.640625 12.03125 19.1875 14.832031 26.277344zm0 0" fill="#ea1b5f"/></g><g transform="matrix(0.1171875 0 0 0.1171875 255 -9)" id="L1_32"><path d="m512 256c0 68.378906-26.628906 132.671875-74.980469 181.019531-48.347656 48.351563-112.640625 74.980469-181.019531 74.980469s-132.671875-26.628906-181.019531-74.980469c-48.351563-48.347656-74.980469-112.640625-74.980469-181.019531s26.628906-132.671875 74.980469-181.019531c48.347656-48.351563 112.640625-74.980469 181.019531-74.980469s132.671875 26.628906 181.019531 74.980469c48.351563 48.347656 74.980469 112.640625 74.980469 181.019531zm0 0" fill="#ffe171"/><path d="m512 256c0 68.378906-26.628906 132.671875-74.980469 181.019531-48.347656 48.351563-112.640625 74.980469-181.019531 74.980469v-512c68.378906 0 132.671875 26.628906 181.019531 74.980469 48.351563 48.347656 74.980469 112.640625 74.980469 181.019531zm0 0" fill="#ffd300"/><path d="m241.742188 135.65625c-3.664063-27.859375-29.328126-47.550781-57.171876-43.882812-10.515624 1.382812-20.21875 6.011718-27.851562 13.027343-9.191406-4.804687-19.761719-6.769531-30.273438-5.386719-13.496093 1.773438-25.496093 8.699219-33.785156 19.496094-8.285156 10.800782-11.875 24.179688-10.101562 37.675782 1.652344 12.550781 7.867187 23.976562 17.5 32.164062l76.230468 64.9375 56.855469-82.421875c7.195313-10.410156 10.246094-23.054687 8.597657-35.609375zm0 0" fill="#f95858"/><path d="m383.101562 99.414062c-10.519531-1.382812-21.085937.585938-30.273437 5.386719-7.632813-7.015625-17.335937-11.644531-27.851563-13.027343-27.851562-3.664063-53.507812 16.023437-57.171874 43.882812-1.648438 12.550781 1.402343 25.199219 8.589843 35.597656l56.859375 82.433594 76.226563-64.925781c9.636719-8.199219 15.855469-19.625 17.507812-32.175781 3.660157-27.863282-16.027343-53.507813-43.886719-57.171876zm0 0" fill="#ea1b5f"/><path d="m405.710938 280.46875v15c0 46.929688-21.710938 88.890625-55.609376 116.359375-25.730468 20.851563-94.101562-49.003906-94.101562-49.003906s-68.148438 69.9375-93.839844 49.214843c-34.050781-27.46875-55.871094-69.519531-55.871094-116.570312v-15zm0 0" fill="#b26d3c"/><path d="m405.710938 280.46875v15c0 46.929688-21.710938 88.890625-55.609376 116.359375-25.730468 20.851563-94.101562-49.003906-94.101562-49.003906v-82.355469zm0 0" fill="#7a3d06"/><path d="m350.101562 411.828125c-25.730468 20.851563-58.480468 33.351563-94.101562 33.351563-35.5 0-68.148438-12.417969-93.839844-33.140626 2.808594-7.089843 7.378906-16.449218 14.5-25.898437 13.167969-17.480469 37.628906-38.3125 79.339844-38.3125 41.648438 0 66.101562 20.511719 79.269531 37.722656 7.378907 9.640625 12.03125 19.1875 14.832031 26.277344zm0 0" fill="#f95858"/><path d="m350.101562 411.828125c-25.730468 20.851563-58.480468 33.351563-94.101562 33.351563v-97.351563c41.648438 0 66.101562 20.511719 79.269531 37.722656 7.378907 9.640625 12.03125 19.1875 14.832031 26.277344zm0 0" fill="#ea1b5f"/></g></defs><g fi:class="KUsePattern"><pattern id="pattern_L1_29" width="350" height="350" patternUnits="userSpaceOnUse"><use xlink:href="#L1_29" x="-350" y="-350"/><use xlink:href="#L1_29" x="0" y="-350"/><use xlink:href="#L1_29" x="350" y="-350"/><use xlink:href="#L1_29" x="-350" y="0"/><use xlink:href="#L1_29" x="0" y="0"/><use xlink:href="#L1_29" x="350" y="0"/><use xlink:href="#L1_29" x="-350" y="350"/><use xlink:href="#L1_29" x="0" y="350"/><use xlink:href="#L1_29" x="350" y="350"/></pattern><rect x="0" y="0" width="100%" height="100%" fill="url(#pattern_L1_29)"/></g><g fi:class="KUsePattern"><pattern id="pattern_L1_30" width="350" height="350" patternUnits="userSpaceOnUse"><use xlink:href="#L1_30" x="-350" y="-350"/><use xlink:href="#L1_30" x="0" y="-350"/><use xlink:href="#L1_30" x="350" y="-350"/><use xlink:href="#L1_30" x="-350" y="0"/><use xlink:href="#L1_30" x="0" y="0"/><use xlink:href="#L1_30" x="350" y="0"/><use xlink:href="#L1_30" x="-350" y="350"/><use xlink:href="#L1_30" x="0" y="350"/><use xlink:href="#L1_30" x="350" y="350"/></pattern><rect x="0" y="0" width="100%" height="100%" fill="url(#pattern_L1_30)"/></g><g fi:class="KUsePattern"><pattern id="pattern_L1_31" width="350" height="350" patternUnits="userSpaceOnUse"><use xlink:href="#L1_31" x="-350" y="-350"/><use xlink:href="#L1_31" x="0" y="-350"/><use xlink:href="#L1_31" x="350" y="-350"/><use xlink:href="#L1_31" x="-350" y="0"/><use xlink:href="#L1_31" x="0" y="0"/><use xlink:href="#L1_31" x="350" y="0"/><use xlink:href="#L1_31" x="-350" y="350"/><use xlink:href="#L1_31" x="0" y="350"/><use xlink:href="#L1_31" x="350" y="350"/></pattern><rect x="0" y="0" width="100%" height="100%" fill="url(#pattern_L1_31)"/></g><g fi:class="KUsePattern"><pattern id="pattern_L1_32" width="350" height="350" patternUnits="userSpaceOnUse"><use xlink:href="#L1_32" x="-350" y="-350"/><use xlink:href="#L1_32" x="0" y="-350"/><use xlink:href="#L1_32" x="350" y="-350"/><use xlink:href="#L1_32" x="-350" y="0"/><use xlink:href="#L1_32" x="0" y="0"/><use xlink:href="#L1_32" x="350" y="0"/><use xlink:href="#L1_32" x="-350" y="350"/><use xlink:href="#L1_32" x="0" y="350"/><use xlink:href="#L1_32" x="350" y="350"/></pattern><rect x="0" y="0" width="100%" height="100%" fill="url(#pattern_L1_32)"/></g></svg>