<svg xmlns="http://www.w3.org/2000/svg" xmlns:xlink="http://www.w3.org/1999/xlink" xmlns:fi="http://pattern.flaticon.com/" x="0" y="0" width="700" height="350" viewBox="0 0 700 350"><rect x="0px" y="0px" width="100%" height="100%" opacity="1" fill="#ffffff"/><defs><g transform="matrix(0.09667475312737107 -0.03590776374293102 0.03590776374293102 0.09667475312737107 30.058875681202665 107.44365071758335)" id="L1_12"><path d="m512 256c0 68.378906-26.628906 132.671875-74.980469 181.019531-48.347656 48.351563-112.640625 74.980469-181.019531 74.980469s-132.671875-26.628906-181.019531-74.980469c-48.351563-48.347656-74.980469-112.640625-74.980469-181.019531s26.628906-132.671875 74.980469-181.019531c48.347656-48.351563 112.640625-74.980469 181.019531-74.980469s132.671875 26.628906 181.019531 74.980469c48.351563 48.347656 74.980469 112.640625 74.980469 181.019531zm0 0" fill="#ffe171"/><path d="m512 256c0 68.378906-26.628906 132.671875-74.980469 181.019531-48.347656 48.351563-112.640625 74.980469-181.019531 74.980469v-512c68.378906 0 132.671875 26.628906 181.019531 74.980469 48.351563 48.347656 74.980469 112.640625 74.980469 181.019531zm0 0" fill="#ffd300"/><path d="m203.066406 179.171875 46.523438-45.351563-.40625-1.25-64.292969-9.339843-28.738281-58.230469h-1.34375l-28.738282 58.230469-64.292968 9.339843-.40625 1.25 46.523437 45.351563-10.992187 64.082031 1.027344.746094 57.550781-30.257812 57.550781 30.257812 1.027344-.746094zm0 0" fill="#4cc4ff"/><path d="m404.105469 179.171875 46.523437-45.351563-.40625-1.25-64.292968-9.339843-28.738282-58.230469h-1.34375l-28.738281 58.230469-64.292969 9.339843-.40625 1.25 46.523438 45.351563-10.992188 64.082031 1.027344.746094 57.550781-30.257812 57.550781 30.257812 1.027344-.746094zm0 0" fill="#169eff"/><path d="m356.519531 288.070312s51.164063 31.3125 46.65625 45.78125c-19.542969 62.695313-78.128906 108.335938-147.175781 108.335938-68.878906 0-127.339844-45.417969-147.023438-107.878906-4.601562-14.601563 46.503907-46.238282 46.503907-46.238282zm0 0" fill="#f95858"/><path d="m356.519531 288.070312s46.558594 46.085938 46.511719 46.242188c-19.6875 62.457031-78.15625 107.875-147.03125 107.875v-154.117188zm0 0" fill="#ea1b5f"/><path d="m410.113281 274v14.070312c0 16.109376-2.484375 31.632813-7.089843 46.238282h-294.046876c-4.605468-14.605469-7.089843-30.132813-7.089843-46.238282v-14.070312zm0 0" fill="#dcf3ff"/><path d="m410.113281 274v14.070312c0 16.109376-2.484375 31.632813-7.089843 46.238282h-147.023438v-60.308594zm0 0" fill="#b0e2fa"/></g><g transform="matrix(0.1171875 0 0 0.1171875 211 181)" id="L1_13"><path d="m512 256c0 68.378906-26.628906 132.671875-74.980469 181.019531-48.347656 48.351563-112.640625 74.980469-181.019531 74.980469s-132.671875-26.628906-181.019531-74.980469c-48.351563-48.347656-74.980469-112.640625-74.980469-181.019531s26.628906-132.671875 74.980469-181.019531c48.347656-48.351563 112.640625-74.980469 181.019531-74.980469s132.671875 26.628906 181.019531 74.980469c48.351563 48.347656 74.980469 112.640625 74.980469 181.019531zm0 0" fill="#ffe171"/><path d="m512 256c0 68.378906-26.628906 132.671875-74.980469 181.019531-48.347656 48.351563-112.640625 74.980469-181.019531 74.980469v-512c68.378906 0 132.671875 26.628906 181.019531 74.980469 48.351563 48.347656 74.980469 112.640625 74.980469 181.019531zm0 0" fill="#ffd300"/><path d="m203.066406 179.171875 46.523438-45.351563-.40625-1.25-64.292969-9.339843-28.738281-58.230469h-1.34375l-28.738282 58.230469-64.292968 9.339843-.40625 1.25 46.523437 45.351563-10.992187 64.082031 1.027344.746094 57.550781-30.257812 57.550781 30.257812 1.027344-.746094zm0 0" fill="#4cc4ff"/><path d="m404.105469 179.171875 46.523437-45.351563-.40625-1.25-64.292968-9.339843-28.738282-58.230469h-1.34375l-28.738281 58.230469-64.292969 9.339843-.40625 1.25 46.523438 45.351563-10.992188 64.082031 1.027344.746094 57.550781-30.257812 57.550781 30.257812 1.027344-.746094zm0 0" fill="#169eff"/><path d="m356.519531 288.070312s51.164063 31.3125 46.65625 45.78125c-19.542969 62.695313-78.128906 108.335938-147.175781 108.335938-68.878906 0-127.339844-45.417969-147.023438-107.878906-4.601562-14.601563 46.503907-46.238282 46.503907-46.238282zm0 0" fill="#f95858"/><path d="m356.519531 288.070312s46.558594 46.085938 46.511719 46.242188c-19.6875 62.457031-78.15625 107.875-147.03125 107.875v-154.117188zm0 0" fill="#ea1b5f"/><path d="m410.113281 274v14.070312c0 16.109376-2.484375 31.632813-7.089843 46.238282h-294.046876c-4.605468-14.605469-7.089843-30.132813-7.089843-46.238282v-14.070312zm0 0" fill="#dcf3ff"/><path d="m410.113281 274v14.070312c0 16.109376-2.484375 31.632813-7.089843 46.238282h-147.023438v-60.308594zm0 0" fill="#b0e2fa"/></g><g transform="matrix(0.10496116401315443 -0.03038349450343671 0.03038349450343671 0.10496116401315443 49.35176741975267 257.90811660551225)" id="L1_14"><path d="m512 256c0 68.378906-26.628906 132.671875-74.980469 181.019531-48.347656 48.351563-112.640625 74.980469-181.019531 74.980469s-132.671875-26.628906-181.019531-74.980469c-48.351563-48.347656-74.980469-112.640625-74.980469-181.019531s26.628906-132.671875 74.980469-181.019531c48.347656-48.351563 112.640625-74.980469 181.019531-74.980469s132.671875 26.628906 181.019531 74.980469c48.351563 48.347656 74.980469 112.640625 74.980469 181.019531zm0 0" fill="#ffe171"/><path d="m512 256c0 68.378906-26.628906 132.671875-74.980469 181.019531-48.347656 48.351563-112.640625 74.980469-181.019531 74.980469v-512c68.378906 0 132.671875 26.628906 181.019531 74.980469 48.351563 48.347656 74.980469 112.640625 74.980469 181.019531zm0 0" fill="#ffd300"/><path d="m203.066406 179.171875 46.523438-45.351563-.40625-1.25-64.292969-9.339843-28.738281-58.230469h-1.34375l-28.738282 58.230469-64.292968 9.339843-.40625 1.25 46.523437 45.351563-10.992187 64.082031 1.027344.746094 57.550781-30.257812 57.550781 30.257812 1.027344-.746094zm0 0" fill="#4cc4ff"/><path d="m404.105469 179.171875 46.523437-45.351563-.40625-1.25-64.292968-9.339843-28.738282-58.230469h-1.34375l-28.738281 58.230469-64.292969 9.339843-.40625 1.25 46.523438 45.351563-10.992188 64.082031 1.027344.746094 57.550781-30.257812 57.550781 30.257812 1.027344-.746094zm0 0" fill="#169eff"/><path d="m356.519531 288.070312s51.164063 31.3125 46.65625 45.78125c-19.542969 62.695313-78.128906 108.335938-147.175781 108.335938-68.878906 0-127.339844-45.417969-147.023438-107.878906-4.601562-14.601563 46.503907-46.238282 46.503907-46.238282zm0 0" fill="#f95858"/><path d="m356.519531 288.070312s46.558594 46.085938 46.511719 46.242188c-19.6875 62.457031-78.15625 107.875-147.03125 107.875v-154.117188zm0 0" fill="#ea1b5f"/><path d="m410.113281 274v14.070312c0 16.109376-2.484375 31.632813-7.089843 46.238282h-294.046876c-4.605468-14.605469-7.089843-30.132813-7.089843-46.238282v-14.070312zm0 0" fill="#dcf3ff"/><path d="m410.113281 274v14.070312c0 16.109376-2.484375 31.632813-7.089843 46.238282h-147.023438v-60.308594zm0 0" fill="#b0e2fa"/></g><g transform="matrix(0.10811832980638027 0.036039441475300235 -0.036039441475300235 0.10811832980638027 200.54780458724352 21.09561055188979)" id="L1_15"><path d="m512 256c0 68.378906-26.628906 132.671875-74.980469 181.019531-48.347656 48.351563-112.640625 74.980469-181.019531 74.980469s-132.671875-26.628906-181.019531-74.980469c-48.351563-48.347656-74.980469-112.640625-74.980469-181.019531s26.628906-132.671875 74.980469-181.019531c48.347656-48.351563 112.640625-74.980469 181.019531-74.980469s132.671875 26.628906 181.019531 74.980469c48.351563 48.347656 74.980469 112.640625 74.980469 181.019531zm0 0" fill="#ffe171"/><path d="m512 256c0 68.378906-26.628906 132.671875-74.980469 181.019531-48.347656 48.351563-112.640625 74.980469-181.019531 74.980469v-512c68.378906 0 132.671875 26.628906 181.019531 74.980469 48.351563 48.347656 74.980469 112.640625 74.980469 181.019531zm0 0" fill="#ffd300"/><path d="m203.066406 179.171875 46.523438-45.351563-.40625-1.25-64.292969-9.339843-28.738281-58.230469h-1.34375l-28.738282 58.230469-64.292968 9.339843-.40625 1.25 46.523437 45.351563-10.992187 64.082031 1.027344.746094 57.550781-30.257812 57.550781 30.257812 1.027344-.746094zm0 0" fill="#4cc4ff"/><path d="m404.105469 179.171875 46.523437-45.351563-.40625-1.25-64.292968-9.339843-28.738282-58.230469h-1.34375l-28.738281 58.230469-64.292969 9.339843-.40625 1.25 46.523438 45.351563-10.992188 64.082031 1.027344.746094 57.550781-30.257812 57.550781 30.257812 1.027344-.746094zm0 0" fill="#169eff"/><path d="m356.519531 288.070312s51.164063 31.3125 46.65625 45.78125c-19.542969 62.695313-78.128906 108.335938-147.175781 108.335938-68.878906 0-127.339844-45.417969-147.023438-107.878906-4.601562-14.601563 46.503907-46.238282 46.503907-46.238282zm0 0" fill="#f95858"/><path d="m356.519531 288.070312s46.558594 46.085938 46.511719 46.242188c-19.6875 62.457031-78.15625 107.875-147.03125 107.875v-154.117188zm0 0" fill="#ea1b5f"/><path d="m410.113281 274v14.070312c0 16.109376-2.484375 31.632813-7.089843 46.238282h-294.046876c-4.605468-14.605469-7.089843-30.132813-7.089843-46.238282v-14.070312zm0 0" fill="#dcf3ff"/><path d="m410.113281 274v14.070312c0 16.109376-2.484375 31.632813-7.089843 46.238282h-147.023438v-60.308594zm0 0" fill="#b0e2fa"/></g></defs><g fi:class="KUsePattern"><pattern id="pattern_L1_12" width="350" height="350" patternUnits="userSpaceOnUse"><use xlink:href="#L1_12" x="-350" y="-350"/><use xlink:href="#L1_12" x="0" y="-350"/><use xlink:href="#L1_12" x="350" y="-350"/><use xlink:href="#L1_12" x="-350" y="0"/><use xlink:href="#L1_12" x="0" y="0"/><use xlink:href="#L1_12" x="350" y="0"/><use xlink:href="#L1_12" x="-350" y="350"/><use xlink:href="#L1_12" x="0" y="350"/><use xlink:href="#L1_12" x="350" y="350"/></pattern><rect x="0" y="0" width="100%" height="100%" fill="url(#pattern_L1_12)"/></g><g fi:class="KUsePattern"><pattern id="pattern_L1_13" width="350" height="350" patternUnits="userSpaceOnUse"><use xlink:href="#L1_13" x="-350" y="-350"/><use xlink:href="#L1_13" x="0" y="-350"/><use xlink:href="#L1_13" x="350" y="-350"/><use xlink:href="#L1_13" x="-350" y="0"/><use xlink:href="#L1_13" x="0" y="0"/><use xlink:href="#L1_13" x="350" y="0"/><use xlink:href="#L1_13" x="-350" y="350"/><use xlink:href="#L1_13" x="0" y="350"/><use xlink:href="#L1_13" x="350" y="350"/></pattern><rect x="0" y="0" width="100%" height="100%" fill="url(#pattern_L1_13)"/></g><g fi:class="KUsePattern"><pattern id="pattern_L1_14" width="350" height="350" patternUnits="userSpaceOnUse"><use xlink:href="#L1_14" x="-350" y="-350"/><use xlink:href="#L1_14" x="0" y="-350"/><use xlink:href="#L1_14" x="350" y="-350"/><use xlink:href="#L1_14" x="-350" y="0"/><use xlink:href="#L1_14" x="0" y="0"/><use xlink:href="#L1_14" x="350" y="0"/><use xlink:href="#L1_14" x="-350" y="350"/><use xlink:href="#L1_14" x="0" y="350"/><use xlink:href="#L1_14" x="350" y="350"/></pattern><rect x="0" y="0" width="100%" height="100%" fill="url(#pattern_L1_14)"/></g><g fi:class="KUsePattern"><pattern id="pattern_L1_15" width="350" height="350" patternUnits="userSpaceOnUse"><use xlink:href="#L1_15" x="-350" y="-350"/><use xlink:href="#L1_15" x="0" y="-350"/><use xlink:href="#L1_15" x="350" y="-350"/><use xlink:href="#L1_15" x="-350" y="0"/><use xlink:href="#L1_15" x="0" y="0"/><use xlink:href="#L1_15" x="350" y="0"/><use xlink:href="#L1_15" x="-350" y="350"/><use xlink:href="#L1_15" x="0" y="350"/><use xlink:href="#L1_15" x="350" y="350"/></pattern><rect x="0" y="0" width="100%" height="100%" fill="url(#pattern_L1_15)"/></g></svg>