<svg xmlns="http://www.w3.org/2000/svg" xmlns:xlink="http://www.w3.org/1999/xlink" xmlns:fi="http://pattern.flaticon.com/" x="0" y="0" width="700" height="350" viewBox="0 0 700 350"><rect x="0px" y="0px" width="100%" height="100%" opacity="1" fill="#ffffff"/><defs><g transform="matrix(0.1171875 0 0 0.1171875 81 -11)" id="L1_21"><path d="m512 256c0 68.378906-26.628906 132.671875-74.980469 181.019531-48.347656 48.351563-112.640625 74.980469-181.019531 74.980469s-132.671875-26.628906-181.019531-74.980469c-48.351563-48.347656-74.980469-112.640625-74.980469-181.019531s26.628906-132.671875 74.980469-181.019531c48.347656-48.351563 112.640625-74.980469 181.019531-74.980469s132.671875 26.628906 181.019531 74.980469c48.351563 48.347656 74.980469 112.640625 74.980469 181.019531zm0 0" fill="#ffe171"/><path d="m512 256c0 68.378906-26.628906 132.671875-74.980469 181.019531-48.347656 48.351563-112.640625 74.980469-181.019531 74.980469v-512c68.378906 0 132.671875 26.628906 181.019531 74.980469 48.351563 48.347656 74.980469 112.640625 74.980469 181.019531zm0 0" fill="#ffd300"/><path d="m397.582031 235.941406h-132.671875l91.238282-101.40625 22.304687 20.066406-46.195313 51.339844h65.324219zm0 0" fill="#7a3d06"/><path d="m247.089844 235.941406h-132.671875v-30h65.324219l-46.195313-51.339844 22.304687-20.066406zm0 0" fill="#b26d3c"/><path d="m405.710938 280.46875v15c0 82.550781-67.160157 149.710938-149.710938 149.710938s-149.710938-67.160157-149.710938-149.710938v-15zm0 0" fill="#b26d3c"/><path d="m405.710938 280.46875v15c0 82.550781-67.160157 149.710938-149.710938 149.710938v-164.710938zm0 0" fill="#7a3d06"/><path d="m333.148438 340.671875v94.179687c0 42.539063-34.609376 77.148438-77.148438 77.148438s-77.148438-34.609375-77.148438-77.148438v-94.179687zm0 0" fill="#f95858"/><path d="m333.148438 340.671875v94.179687c0 42.539063-34.609376 77.148438-77.148438 77.148438v-171.328125zm0 0" fill="#ea1b5f"/><path d="m241 340.671875h30v70.828125h-30zm0 0" fill="#d83535"/><path d="m256 340.671875h15v70.828125h-15zm0 0" fill="#b70641"/></g><g transform="matrix(0.1171875 0 0 0.1171875 222 232)" id="L1_22"><path d="m512 256c0 68.378906-26.628906 132.671875-74.980469 181.019531-48.347656 48.351563-112.640625 74.980469-181.019531 74.980469s-132.671875-26.628906-181.019531-74.980469c-48.351563-48.347656-74.980469-112.640625-74.980469-181.019531s26.628906-132.671875 74.980469-181.019531c48.347656-48.351563 112.640625-74.980469 181.019531-74.980469s132.671875 26.628906 181.019531 74.980469c48.351563 48.347656 74.980469 112.640625 74.980469 181.019531zm0 0" fill="#ffe171"/><path d="m512 256c0 68.378906-26.628906 132.671875-74.980469 181.019531-48.347656 48.351563-112.640625 74.980469-181.019531 74.980469v-512c68.378906 0 132.671875 26.628906 181.019531 74.980469 48.351563 48.347656 74.980469 112.640625 74.980469 181.019531zm0 0" fill="#ffd300"/><path d="m397.582031 235.941406h-132.671875l91.238282-101.40625 22.304687 20.066406-46.195313 51.339844h65.324219zm0 0" fill="#7a3d06"/><path d="m247.089844 235.941406h-132.671875v-30h65.324219l-46.195313-51.339844 22.304687-20.066406zm0 0" fill="#b26d3c"/><path d="m405.710938 280.46875v15c0 82.550781-67.160157 149.710938-149.710938 149.710938s-149.710938-67.160157-149.710938-149.710938v-15zm0 0" fill="#b26d3c"/><path d="m405.710938 280.46875v15c0 82.550781-67.160157 149.710938-149.710938 149.710938v-164.710938zm0 0" fill="#7a3d06"/><path d="m333.148438 340.671875v94.179687c0 42.539063-34.609376 77.148438-77.148438 77.148438s-77.148438-34.609375-77.148438-77.148438v-94.179687zm0 0" fill="#f95858"/><path d="m333.148438 340.671875v94.179687c0 42.539063-34.609376 77.148438-77.148438 77.148438v-171.328125zm0 0" fill="#ea1b5f"/><path d="m241 340.671875h30v70.828125h-30zm0 0" fill="#d83535"/><path d="m256 340.671875h15v70.828125h-15zm0 0" fill="#b70641"/></g><g transform="matrix(0.1171875 0 0 0.1171875 275 73)" id="L1_23"><path d="m512 256c0 68.378906-26.628906 132.671875-74.980469 181.019531-48.347656 48.351563-112.640625 74.980469-181.019531 74.980469s-132.671875-26.628906-181.019531-74.980469c-48.351563-48.347656-74.980469-112.640625-74.980469-181.019531s26.628906-132.671875 74.980469-181.019531c48.347656-48.351563 112.640625-74.980469 181.019531-74.980469s132.671875 26.628906 181.019531 74.980469c48.351563 48.347656 74.980469 112.640625 74.980469 181.019531zm0 0" fill="#ffe171"/><path d="m512 256c0 68.378906-26.628906 132.671875-74.980469 181.019531-48.347656 48.351563-112.640625 74.980469-181.019531 74.980469v-512c68.378906 0 132.671875 26.628906 181.019531 74.980469 48.351563 48.347656 74.980469 112.640625 74.980469 181.019531zm0 0" fill="#ffd300"/><path d="m397.582031 235.941406h-132.671875l91.238282-101.40625 22.304687 20.066406-46.195313 51.339844h65.324219zm0 0" fill="#7a3d06"/><path d="m247.089844 235.941406h-132.671875v-30h65.324219l-46.195313-51.339844 22.304687-20.066406zm0 0" fill="#b26d3c"/><path d="m405.710938 280.46875v15c0 82.550781-67.160157 149.710938-149.710938 149.710938s-149.710938-67.160157-149.710938-149.710938v-15zm0 0" fill="#b26d3c"/><path d="m405.710938 280.46875v15c0 82.550781-67.160157 149.710938-149.710938 149.710938v-164.710938zm0 0" fill="#7a3d06"/><path d="m333.148438 340.671875v94.179687c0 42.539063-34.609376 77.148438-77.148438 77.148438s-77.148438-34.609375-77.148438-77.148438v-94.179687zm0 0" fill="#f95858"/><path d="m333.148438 340.671875v94.179687c0 42.539063-34.609376 77.148438-77.148438 77.148438v-171.328125zm0 0" fill="#ea1b5f"/><path d="m241 340.671875h30v70.828125h-30zm0 0" fill="#d83535"/><path d="m256 340.671875h15v70.828125h-15zm0 0" fill="#b70641"/></g><g transform="matrix(0.1171875 0 0 0.1171875 70 168)" id="L1_24"><path d="m512 256c0 68.378906-26.628906 132.671875-74.980469 181.019531-48.347656 48.351563-112.640625 74.980469-181.019531 74.980469s-132.671875-26.628906-181.019531-74.980469c-48.351563-48.347656-74.980469-112.640625-74.980469-181.019531s26.628906-132.671875 74.980469-181.019531c48.347656-48.351563 112.640625-74.980469 181.019531-74.980469s132.671875 26.628906 181.019531 74.980469c48.351563 48.347656 74.980469 112.640625 74.980469 181.019531zm0 0" fill="#ffe171"/><path d="m512 256c0 68.378906-26.628906 132.671875-74.980469 181.019531-48.347656 48.351563-112.640625 74.980469-181.019531 74.980469v-512c68.378906 0 132.671875 26.628906 181.019531 74.980469 48.351563 48.347656 74.980469 112.640625 74.980469 181.019531zm0 0" fill="#ffd300"/><path d="m397.582031 235.941406h-132.671875l91.238282-101.40625 22.304687 20.066406-46.195313 51.339844h65.324219zm0 0" fill="#7a3d06"/><path d="m247.089844 235.941406h-132.671875v-30h65.324219l-46.195313-51.339844 22.304687-20.066406zm0 0" fill="#b26d3c"/><path d="m405.710938 280.46875v15c0 82.550781-67.160157 149.710938-149.710938 149.710938s-149.710938-67.160157-149.710938-149.710938v-15zm0 0" fill="#b26d3c"/><path d="m405.710938 280.46875v15c0 82.550781-67.160157 149.710938-149.710938 149.710938v-164.710938zm0 0" fill="#7a3d06"/><path d="m333.148438 340.671875v94.179687c0 42.539063-34.609376 77.148438-77.148438 77.148438s-77.148438-34.609375-77.148438-77.148438v-94.179687zm0 0" fill="#f95858"/><path d="m333.148438 340.671875v94.179687c0 42.539063-34.609376 77.148438-77.148438 77.148438v-171.328125zm0 0" fill="#ea1b5f"/><path d="m241 340.671875h30v70.828125h-30zm0 0" fill="#d83535"/><path d="m256 340.671875h15v70.828125h-15zm0 0" fill="#b70641"/></g></defs><g fi:class="KUsePattern"><pattern id="pattern_L1_21" width="350" height="350" patternUnits="userSpaceOnUse"><use xlink:href="#L1_21" x="-350" y="-350"/><use xlink:href="#L1_21" x="0" y="-350"/><use xlink:href="#L1_21" x="350" y="-350"/><use xlink:href="#L1_21" x="-350" y="0"/><use xlink:href="#L1_21" x="0" y="0"/><use xlink:href="#L1_21" x="350" y="0"/><use xlink:href="#L1_21" x="-350" y="350"/><use xlink:href="#L1_21" x="0" y="350"/><use xlink:href="#L1_21" x="350" y="350"/></pattern><rect x="0" y="0" width="100%" height="100%" fill="url(#pattern_L1_21)"/></g><g fi:class="KUsePattern"><pattern id="pattern_L1_22" width="350" height="350" patternUnits="userSpaceOnUse"><use xlink:href="#L1_22" x="-350" y="-350"/><use xlink:href="#L1_22" x="0" y="-350"/><use xlink:href="#L1_22" x="350" y="-350"/><use xlink:href="#L1_22" x="-350" y="0"/><use xlink:href="#L1_22" x="0" y="0"/><use xlink:href="#L1_22" x="350" y="0"/><use xlink:href="#L1_22" x="-350" y="350"/><use xlink:href="#L1_22" x="0" y="350"/><use xlink:href="#L1_22" x="350" y="350"/></pattern><rect x="0" y="0" width="100%" height="100%" fill="url(#pattern_L1_22)"/></g><g fi:class="KUsePattern"><pattern id="pattern_L1_23" width="350" height="350" patternUnits="userSpaceOnUse"><use xlink:href="#L1_23" x="-350" y="-350"/><use xlink:href="#L1_23" x="0" y="-350"/><use xlink:href="#L1_23" x="350" y="-350"/><use xlink:href="#L1_23" x="-350" y="0"/><use xlink:href="#L1_23" x="0" y="0"/><use xlink:href="#L1_23" x="350" y="0"/><use xlink:href="#L1_23" x="-350" y="350"/><use xlink:href="#L1_23" x="0" y="350"/><use xlink:href="#L1_23" x="350" y="350"/></pattern><rect x="0" y="0" width="100%" height="100%" fill="url(#pattern_L1_23)"/></g><g fi:class="KUsePattern"><pattern id="pattern_L1_24" width="350" height="350" patternUnits="userSpaceOnUse"><use xlink:href="#L1_24" x="-350" y="-350"/><use xlink:href="#L1_24" x="0" y="-350"/><use xlink:href="#L1_24" x="350" y="-350"/><use xlink:href="#L1_24" x="-350" y="0"/><use xlink:href="#L1_24" x="0" y="0"/><use xlink:href="#L1_24" x="350" y="0"/><use xlink:href="#L1_24" x="-350" y="350"/><use xlink:href="#L1_24" x="0" y="350"/><use xlink:href="#L1_24" x="350" y="350"/></pattern><rect x="0" y="0" width="100%" height="100%" fill="url(#pattern_L1_24)"/></g></svg>