<?xml version="1.0" standalone="no"?>
<!DOCTYPE svg PUBLIC "-//W3C//DTD SVG 20010904//EN"
 "http://www.w3.org/TR/2001/REC-SVG-20010904/DTD/svg10.dtd">
<svg version="1.0" xmlns="http://www.w3.org/2000/svg"
 width="800.000000pt" height="700.000000pt" viewBox="0 0 800.000000 700.000000"
 preserveAspectRatio="xMidYMid meet">

<g transform="translate(0.000000,700.000000) scale(0.100000,-0.100000)"
fill="#039dfc" stroke="none">
<path d="M1287 6436 c-73 -26 -107 -76 -107 -154 0 -57 28 -106 77 -137 23
-14 32 -28 33 -47 0 -27 -2 -28 -54 -28 -78 0 -104 -30 -70 -78 12 -18 25 -22
70 -22 l54 0 0 -210 c0 -229 -5 -258 -58 -313 -127 -135 -355 -61 -370 119 -4
54 -4 56 16 45 35 -19 72 4 72 44 0 27 -119 145 -146 145 -26 0 -144 -119
-144 -145 0 -39 29 -58 66 -44 19 7 23 3 28 -23 3 -17 6 -40 6 -52 0 -33 45
-120 84 -163 21 -23 62 -52 98 -69 124 -56 265 -29 359 68 l42 44 40 -43 c58
-63 130 -95 214 -95 85 -1 136 15 196 58 69 50 114 123 128 210 12 68 14 72
35 64 30 -12 64 13 64 47 0 35 -106 143 -141 143 -15 0 -47 -22 -87 -60 -51
-48 -63 -65 -60 -86 5 -40 36 -57 71 -39 24 12 27 12 27 -3 0 -10 -6 -40 -13
-68 -28 -109 -111 -169 -222 -162 -78 5 -132 38 -172 105 l-28 48 -3 218 -3
217 55 0 c45 0 58 4 70 22 34 48 8 78 -70 78 -52 0 -54 1 -54 28 0 21 8 32 34
46 44 23 79 87 78 141 -1 71 -35 121 -105 150 -44 18 -60 18 -110 1z"/>
<path d="M3967 6396 c-73 -26 -107 -76 -107 -154 0 -57 28 -106 77 -137 23
-14 32 -28 33 -47 0 -27 -2 -28 -54 -28 -78 0 -104 -30 -70 -78 12 -18 25 -22
70 -22 l54 0 0 -210 c0 -229 -5 -258 -58 -313 -127 -135 -355 -61 -370 119 -4
54 -4 56 16 45 35 -19 72 4 72 44 0 27 -119 145 -146 145 -26 0 -144 -119
-144 -145 0 -39 29 -58 66 -44 19 7 23 3 28 -23 3 -17 6 -40 6 -52 0 -33 45
-120 84 -163 21 -23 62 -52 98 -69 124 -56 265 -29 359 68 l42 44 40 -43 c58
-63 130 -95 214 -95 85 -1 136 15 196 58 69 50 114 123 128 210 12 68 14 72
35 64 30 -12 64 13 64 47 0 35 -106 143 -141 143 -15 0 -47 -22 -87 -60 -51
-48 -63 -65 -60 -86 5 -40 36 -57 71 -39 24 12 27 12 27 -3 0 -10 -6 -40 -13
-68 -28 -109 -111 -169 -222 -162 -78 5 -132 38 -172 105 l-28 48 -3 218 -3
217 55 0 c45 0 58 4 70 22 34 48 8 78 -70 78 -52 0 -54 1 -54 28 0 21 8 32 34
46 44 23 79 87 78 141 -1 71 -35 121 -105 150 -44 18 -60 18 -110 1z"/>
<path d="M6607 6376 c-73 -26 -107 -76 -107 -154 0 -57 28 -106 77 -137 23
-14 32 -28 33 -47 0 -27 -2 -28 -54 -28 -78 0 -104 -30 -70 -78 12 -18 25 -22
70 -22 l54 0 0 -210 c0 -229 -5 -258 -58 -313 -127 -135 -355 -61 -370 119 -4
54 -4 56 16 45 35 -19 72 4 72 44 0 27 -119 145 -146 145 -26 0 -144 -119
-144 -145 0 -39 29 -58 66 -44 19 7 23 3 28 -23 3 -17 6 -40 6 -52 0 -33 45
-120 84 -163 21 -23 62 -52 98 -69 124 -56 265 -29 359 68 l42 44 40 -43 c58
-63 130 -95 214 -95 85 -1 136 15 196 58 69 50 114 123 128 210 12 68 14 72
35 64 30 -12 64 13 64 47 0 35 -106 143 -141 143 -15 0 -47 -22 -87 -60 -51
-48 -63 -65 -60 -86 5 -40 36 -57 71 -39 24 12 27 12 27 -3 0 -10 -6 -40 -13
-68 -28 -109 -111 -169 -222 -162 -78 5 -132 38 -172 105 l-28 48 -3 218 -3
217 55 0 c45 0 58 4 70 22 34 48 8 78 -70 78 -52 0 -54 1 -54 28 0 21 8 32 34
46 44 23 79 87 78 141 -1 71 -35 121 -105 150 -44 18 -60 18 -110 1z"/>
<path d="M627 4496 c-73 -26 -107 -76 -107 -154 0 -57 28 -106 77 -137 23 -14
32 -28 33 -47 0 -27 -2 -28 -54 -28 -78 0 -104 -30 -70 -78 12 -18 25 -22 70
-22 l54 0 0 -210 c0 -229 -5 -258 -58 -313 -127 -135 -355 -61 -370 119 -4 54
-4 56 16 45 35 -19 72 4 72 44 0 27 -119 145 -146 145 -26 0 -144 -119 -144
-145 0 -39 29 -58 66 -44 19 7 23 3 28 -23 3 -17 6 -40 6 -52 0 -33 45 -120
84 -163 21 -23 62 -52 98 -69 124 -56 265 -29 359 68 l42 44 40 -43 c58 -63
130 -95 214 -95 85 -1 136 15 196 58 69 50 114 123 128 210 12 68 14 72 35 64
30 -12 64 13 64 47 0 35 -106 143 -141 143 -15 0 -47 -22 -87 -60 -51 -48 -63
-65 -60 -86 5 -40 36 -57 71 -39 24 12 27 12 27 -3 0 -10 -6 -40 -13 -68 -28
-109 -111 -169 -222 -162 -78 5 -132 38 -172 105 l-28 48 -3 218 -3 217 55 0
c45 0 58 4 70 22 34 48 8 78 -70 78 -52 0 -54 1 -54 28 0 21 8 32 34 46 44 23
79 87 78 141 -1 71 -35 121 -105 150 -44 18 -60 18 -110 1z"/>
<path d="M3227 4316 c-73 -26 -107 -76 -107 -154 0 -57 28 -106 77 -137 23
-14 32 -28 33 -47 0 -27 -2 -28 -54 -28 -78 0 -104 -30 -70 -78 12 -18 25 -22
70 -22 l54 0 0 -210 c0 -229 -5 -258 -58 -313 -127 -135 -355 -61 -370 119 -4
54 -4 56 16 45 35 -19 72 4 72 44 0 27 -119 145 -146 145 -26 0 -144 -119
-144 -145 0 -39 29 -58 66 -44 19 7 23 3 28 -23 3 -17 6 -40 6 -52 0 -33 45
-120 84 -163 21 -23 62 -52 98 -69 124 -56 265 -29 359 68 l42 44 40 -43 c58
-63 130 -95 214 -95 85 -1 136 15 196 58 69 50 114 123 128 210 12 68 14 72
35 64 30 -12 64 13 64 47 0 35 -106 143 -141 143 -15 0 -47 -22 -87 -60 -51
-48 -63 -65 -60 -86 5 -40 36 -57 71 -39 24 12 27 12 27 -3 0 -10 -6 -40 -13
-68 -28 -109 -111 -169 -222 -162 -78 5 -132 38 -172 105 l-28 48 -3 218 -3
217 55 0 c45 0 58 4 70 22 34 48 8 78 -70 78 -52 0 -54 1 -54 28 0 21 8 32 34
46 44 23 79 87 78 141 -1 71 -35 121 -105 150 -44 18 -60 18 -110 1z"/>
<path d="M6027 4236 c-73 -26 -107 -76 -107 -154 0 -57 28 -106 77 -137 23
-14 32 -28 33 -47 0 -27 -2 -28 -54 -28 -78 0 -104 -30 -70 -78 12 -18 25 -22
70 -22 l54 0 0 -210 c0 -229 -5 -258 -58 -313 -127 -135 -355 -61 -370 119 -4
54 -4 56 16 45 35 -19 72 4 72 44 0 27 -119 145 -146 145 -26 0 -144 -119
-144 -145 0 -39 29 -58 66 -44 19 7 23 3 28 -23 3 -17 6 -40 6 -52 0 -33 45
-120 84 -163 21 -23 62 -52 98 -69 124 -56 265 -29 359 68 l42 44 40 -43 c58
-63 130 -95 214 -95 85 -1 136 15 196 58 69 50 114 123 128 210 12 68 14 72
35 64 30 -12 64 13 64 47 0 35 -106 143 -141 143 -15 0 -47 -22 -87 -60 -51
-48 -63 -65 -60 -86 5 -40 36 -57 71 -39 24 12 27 12 27 -3 0 -10 -6 -40 -13
-68 -28 -109 -111 -169 -222 -162 -78 5 -132 38 -172 105 l-28 48 -3 218 -3
217 55 0 c45 0 58 4 70 22 34 48 8 78 -70 78 -52 0 -54 1 -54 28 0 21 8 32 34
46 44 23 79 87 78 141 -1 71 -35 121 -105 150 -44 18 -60 18 -110 1z"/>
<path d="M847 2136 c-73 -26 -107 -76 -107 -154 0 -57 28 -106 77 -137 23 -14
32 -28 33 -47 0 -27 -2 -28 -54 -28 -78 0 -104 -30 -70 -78 12 -18 25 -22 70
-22 l54 0 0 -210 c0 -229 -5 -258 -58 -313 -127 -135 -355 -61 -370 119 -4 54
-4 56 16 45 35 -19 72 4 72 44 0 27 -119 145 -146 145 -26 0 -144 -119 -144
-145 0 -39 29 -58 66 -44 19 7 23 3 28 -23 3 -17 6 -40 6 -52 0 -33 45 -120
84 -163 21 -23 62 -52 98 -69 124 -56 265 -29 359 68 l42 44 40 -43 c58 -63
130 -95 214 -95 85 -1 136 15 196 58 69 50 114 123 128 210 12 68 14 72 35 64
30 -12 64 13 64 47 0 35 -106 143 -141 143 -15 0 -47 -22 -87 -60 -51 -48 -63
-65 -60 -86 5 -40 36 -57 71 -39 24 12 27 12 27 -3 0 -10 -6 -40 -13 -68 -28
-109 -111 -169 -222 -162 -78 5 -132 38 -172 105 l-28 48 -3 218 -3 217 55 0
c45 0 58 4 70 22 34 48 8 78 -70 78 -52 0 -54 1 -54 28 0 21 8 32 34 46 44 23
79 87 78 141 -1 71 -35 121 -105 150 -44 18 -60 18 -110 1z"/>
<path d="M3667 2136 c-73 -26 -107 -76 -107 -154 0 -57 28 -106 77 -137 23
-14 32 -28 33 -47 0 -27 -2 -28 -54 -28 -78 0 -104 -30 -70 -78 12 -18 25 -22
70 -22 l54 0 0 -210 c0 -229 -5 -258 -58 -313 -127 -135 -355 -61 -370 119 -4
54 -4 56 16 45 35 -19 72 4 72 44 0 27 -119 145 -146 145 -26 0 -144 -119
-144 -145 0 -39 29 -58 66 -44 19 7 23 3 28 -23 3 -17 6 -40 6 -52 0 -33 45
-120 84 -163 21 -23 62 -52 98 -69 124 -56 265 -29 359 68 l42 44 40 -43 c58
-63 130 -95 214 -95 85 -1 136 15 196 58 69 50 114 123 128 210 12 68 14 72
35 64 30 -12 64 13 64 47 0 35 -106 143 -141 143 -15 0 -47 -22 -87 -60 -51
-48 -63 -65 -60 -86 5 -40 36 -57 71 -39 24 12 27 12 27 -3 0 -10 -6 -40 -13
-68 -28 -109 -111 -169 -222 -162 -78 5 -132 38 -172 105 l-28 48 -3 218 -3
217 55 0 c45 0 58 4 70 22 34 48 8 78 -70 78 -52 0 -54 1 -54 28 0 21 8 32 34
46 44 23 79 87 78 141 -1 71 -35 121 -105 150 -44 18 -60 18 -110 1z"/>
<path d="M6487 2036 c-73 -26 -107 -76 -107 -154 0 -57 28 -106 77 -137 23
-14 32 -28 33 -47 0 -27 -2 -28 -54 -28 -78 0 -104 -30 -70 -78 12 -18 25 -22
70 -22 l54 0 0 -210 c0 -229 -5 -258 -58 -313 -127 -135 -355 -61 -370 119 -4
54 -4 56 16 45 35 -19 72 4 72 44 0 27 -119 145 -146 145 -26 0 -144 -119
-144 -145 0 -39 29 -58 66 -44 19 7 23 3 28 -23 3 -17 6 -40 6 -52 0 -33 45
-120 84 -163 21 -23 62 -52 98 -69 124 -56 265 -29 359 68 l42 44 40 -43 c58
-63 130 -95 214 -95 85 -1 136 15 196 58 69 50 114 123 128 210 12 68 14 72
35 64 30 -12 64 13 64 47 0 35 -106 143 -141 143 -15 0 -47 -22 -87 -60 -51
-48 -63 -65 -60 -86 5 -40 36 -57 71 -39 24 12 27 12 27 -3 0 -10 -6 -40 -13
-68 -28 -109 -111 -169 -222 -162 -78 5 -132 38 -172 105 l-28 48 -3 218 -3
217 55 0 c45 0 58 4 70 22 34 48 8 78 -70 78 -52 0 -54 1 -54 28 0 21 8 32 34
46 44 23 79 87 78 141 -1 71 -35 121 -105 150 -44 18 -60 18 -110 1z"/>
</g>
</svg>
