<?xml version="1.0" standalone="no"?>
<!DOCTYPE svg PUBLIC "-//W3C//DTD SVG 20010904//EN"
 "http://www.w3.org/TR/2001/REC-SVG-20010904/DTD/svg10.dtd">
<svg version="1.0" xmlns="http://www.w3.org/2000/svg"
 width="800.000000pt" height="700.000000pt" viewBox="0 0 800.000000 700.000000"
 preserveAspectRatio="xMidYMid meet">

<g transform="translate(0.000000,700.000000) scale(0.100000,-0.100000)"
fill="#3fb339" stroke="none">
<path d="M6168 6977 c-32 -27 -60 -81 -56 -109 9 -61 139 -88 213 -46 22 13
51 40 64 61 19 28 31 37 53 37 25 0 28 -3 28 -35 0 -37 4 -34 -77 -51 -48 -9
-131 -66 -163 -111 -46 -64 -59 -102 -69 -212 -7 -75 -20 -129 -51 -218 -110
-309 -122 -348 -132 -431 -10 -76 -9 -99 6 -163 25 -101 70 -183 138 -250 204
-199 512 -199 716 0 68 67 113 149 138 250 15 64 16 87 6 163 -10 83 -22 122
-132 431 -32 90 -44 142 -51 220 -11 115 -36 180 -93 239 -39 40 -128 88 -163
88 -30 0 -31 35 -3 89 17 34 17 41 5 57 -14 18 -15 18 -33 -4 -16 -20 -22 -21
-66 -13 -26 5 -53 14 -59 20 -6 6 -48 11 -101 11 -80 0 -94 -3 -118 -23z m177
-21 c17 -12 18 -17 7 -40 -19 -43 -69 -68 -125 -63 -62 5 -75 18 -56 53 29 56
128 84 174 50z m234 -182 c94 -39 146 -108 161 -216 23 -159 34 -208 77 -328
25 -69 58 -161 73 -205 16 -44 34 -113 40 -153 36 -229 -109 -448 -335 -507
-315 -82 -615 187 -565 507 6 40 24 109 40 153 126 352 122 340 150 534 12 86
43 140 107 184 77 55 167 66 252 31z"/>
<path d="M6320 6455 c-26 -32 44 -81 132 -91 65 -8 127 8 168 42 54 46 27 69
-42 36 -72 -34 -149 -33 -202 3 -44 30 -40 29 -56 10z"/>
<path d="M6381 6114 c-106 -53 -178 -192 -169 -325 8 -108 61 -180 170 -229
114 -52 268 3 336 119 24 41 27 56 27 136 0 78 -4 97 -27 145 -77 155 -211
216 -337 154z m139 -34 c103 -29 194 -185 176 -304 -9 -58 -65 -132 -120 -157
-53 -24 -139 -24 -192 0 -82 37 -137 144 -120 235 18 95 101 205 171 225 41
12 45 12 85 1z"/>
<path d="M959 6957 c-49 -26 -91 -87 -87 -126 7 -63 137 -93 213 -49 22 13 51
40 64 61 19 28 31 37 53 37 25 0 28 -3 28 -35 0 -37 4 -34 -77 -51 -48 -9
-131 -66 -163 -111 -46 -64 -59 -102 -69 -212 -7 -75 -20 -129 -51 -218 -110
-309 -122 -348 -132 -431 -10 -76 -9 -99 6 -163 25 -101 70 -183 138 -250 204
-199 512 -199 716 0 68 67 113 149 138 250 15 64 16 87 6 163 -10 83 -22 122
-132 431 -32 90 -44 142 -51 220 -11 115 -36 180 -93 239 -39 40 -128 88 -163
88 -30 0 -31 35 -3 89 17 34 17 41 5 57 -14 18 -15 18 -32 -3 -15 -19 -24 -22
-58 -16 -22 3 -60 17 -84 30 -57 30 -115 30 -172 0z m146 -41 c17 -12 18 -17
7 -40 -19 -43 -69 -68 -125 -63 -62 5 -75 18 -56 53 29 56 128 84 174 50z
m234 -182 c94 -39 146 -108 161 -216 23 -159 34 -208 77 -328 25 -69 58 -161
73 -205 16 -44 34 -113 40 -153 36 -229 -109 -448 -335 -507 -315 -82 -615
187 -565 507 6 40 24 109 40 153 126 352 122 340 150 534 12 86 43 140 107
184 77 55 167 66 252 31z"/>
<path d="M1080 6415 c-26 -32 44 -81 132 -91 65 -8 127 8 168 42 54 46 27 69
-42 36 -72 -34 -149 -33 -202 3 -44 30 -40 29 -56 10z"/>
<path d="M1141 6074 c-106 -53 -178 -192 -169 -325 8 -108 61 -180 170 -229
114 -52 268 3 336 119 24 41 27 56 27 136 0 78 -4 97 -27 145 -77 155 -211
216 -337 154z m139 -34 c103 -29 194 -185 176 -304 -9 -58 -65 -132 -120 -157
-53 -24 -139 -24 -192 0 -82 37 -137 144 -120 235 18 95 101 205 171 225 41
12 45 12 85 1z"/>
<path d="M3479 6937 c-49 -26 -91 -87 -87 -126 7 -63 137 -93 213 -49 22 13
51 40 64 61 19 28 31 37 53 37 25 0 28 -3 28 -35 0 -37 4 -34 -77 -51 -48 -9
-131 -66 -163 -111 -46 -64 -59 -102 -69 -212 -7 -75 -20 -129 -51 -218 -110
-309 -122 -348 -132 -431 -10 -76 -9 -99 6 -163 36 -148 128 -270 253 -336
205 -109 436 -76 601 86 68 67 113 149 138 250 15 64 16 87 6 163 -10 83 -22
122 -132 431 -32 90 -44 142 -51 220 -11 115 -36 180 -93 239 -39 40 -128 88
-163 88 -30 0 -31 35 -3 89 17 34 17 41 5 57 -14 18 -15 18 -32 -3 -15 -19
-24 -22 -58 -16 -22 3 -60 17 -84 30 -57 30 -115 30 -172 0z m146 -41 c17 -12
18 -17 7 -40 -19 -43 -69 -68 -125 -63 -62 5 -75 18 -56 53 29 56 128 84 174
50z m234 -182 c94 -39 146 -108 161 -216 23 -159 34 -208 77 -328 25 -69 58
-161 73 -205 16 -44 34 -113 40 -153 36 -229 -109 -448 -335 -507 -315 -82
-615 187 -565 507 6 40 24 109 40 153 126 352 122 340 150 534 12 86 43 140
107 184 77 55 167 66 252 31z"/>
<path d="M3600 6395 c-26 -32 44 -81 132 -91 65 -8 127 8 168 42 54 46 27 69
-42 36 -72 -34 -149 -33 -202 3 -44 30 -40 29 -56 10z"/>
<path d="M3661 6054 c-106 -53 -178 -192 -169 -325 8 -108 61 -180 170 -229
114 -52 268 3 336 119 24 41 27 56 27 136 0 78 -4 97 -27 145 -77 155 -211
216 -337 154z m139 -34 c103 -29 194 -185 176 -304 -9 -58 -65 -132 -120 -157
-53 -24 -139 -24 -192 0 -82 37 -137 144 -120 235 18 95 101 205 171 225 41
12 45 12 85 1z"/>
<path d="M7619 4677 c-49 -26 -91 -87 -87 -126 7 -63 137 -93 213 -49 22 13
51 40 64 61 19 28 31 37 53 37 25 0 28 -3 28 -35 0 -37 4 -34 -77 -51 -48 -9
-131 -66 -163 -111 -46 -64 -59 -102 -69 -212 -7 -75 -20 -129 -51 -218 -110
-309 -122 -348 -132 -431 -10 -76 -9 -99 6 -163 25 -101 70 -183 138 -250 104
-102 229 -152 370 -147 81 3 83 4 86 29 l3 26 -68 -4 c-291 -21 -528 233 -483
519 6 40 24 109 40 153 125 352 122 340 150 533 12 82 40 136 93 176 68 52
147 70 230 53 38 -8 38 -8 35 20 -2 22 -9 29 -30 31 -35 4 -37 35 -8 91 17 34
17 41 5 57 -14 18 -15 18 -32 -3 -15 -19 -24 -22 -58 -16 -22 3 -60 17 -84 30
-57 30 -115 30 -172 0z m146 -41 c17 -12 18 -17 7 -40 -19 -43 -69 -68 -125
-63 -62 5 -75 18 -56 53 29 56 128 84 174 50z"/>
<path d="M2259 4637 c-49 -26 -91 -87 -87 -126 7 -63 137 -93 213 -49 22 13
51 40 64 61 19 28 31 37 53 37 25 0 28 -3 28 -35 0 -37 4 -34 -77 -51 -48 -9
-131 -66 -163 -111 -46 -64 -59 -102 -69 -212 -7 -75 -20 -129 -51 -218 -110
-309 -122 -348 -132 -431 -10 -76 -9 -99 6 -163 25 -101 70 -183 138 -250 204
-199 512 -199 716 0 68 67 113 149 138 250 15 64 16 87 6 163 -10 83 -22 122
-132 431 -32 90 -44 142 -51 220 -11 115 -36 180 -93 239 -39 40 -128 88 -163
88 -30 0 -31 35 -3 89 17 34 17 41 5 57 -14 18 -15 18 -32 -3 -15 -19 -24 -22
-58 -16 -22 3 -60 17 -84 30 -57 30 -115 30 -172 0z m146 -41 c17 -12 18 -17
7 -40 -19 -43 -69 -68 -125 -63 -62 5 -75 18 -56 53 29 56 128 84 174 50z
m234 -182 c94 -39 146 -108 161 -216 23 -159 34 -208 77 -328 25 -69 58 -161
73 -205 16 -44 34 -113 40 -153 50 -320 -250 -589 -565 -507 -226 59 -371 278
-335 507 6 40 24 109 40 153 126 352 122 340 150 534 12 86 43 140 107 184 77
55 167 66 252 31z"/>
<path d="M2380 4095 c-26 -32 44 -81 132 -91 65 -8 127 8 168 42 54 46 27 69
-42 36 -72 -34 -149 -33 -202 3 -44 30 -40 29 -56 10z"/>
<path d="M2441 3754 c-106 -53 -178 -192 -169 -325 8 -108 61 -180 170 -229
114 -52 268 3 336 119 24 41 27 56 27 136 0 78 -4 97 -27 145 -77 155 -211
216 -337 154z m139 -34 c76 -21 143 -105 171 -214 17 -67 4 -126 -38 -181 -44
-58 -99 -85 -173 -85 -74 0 -129 27 -173 85 -60 78 -61 153 -6 264 32 65 85
116 134 130 41 12 45 12 85 1z"/>
<path d="M4995 4614 c-43 -22 -64 -44 -87 -87 -26 -52 -20 -78 22 -99 91 -46
227 3 255 93 4 11 15 19 28 19 37 0 48 -13 41 -48 -5 -25 -11 -32 -31 -32 -42
0 -133 -52 -178 -102 -55 -61 -72 -114 -85 -258 -10 -125 -11 -126 -77 -340
-74 -241 -87 -342 -58 -455 48 -183 206 -337 385 -376 76 -16 213 -7 282 20
140 54 246 158 297 291 66 171 50 283 -79 575 -74 168 -96 234 -111 337 -14
101 -35 152 -85 207 -45 51 -103 86 -166 102 -54 13 -56 18 -30 87 18 47 18
49 1 60 -15 10 -20 8 -30 -9 -9 -18 -17 -20 -55 -14 -25 3 -64 15 -87 25 -51
24 -112 25 -152 4z m126 -44 c26 -14 24 -33 -7 -69 -32 -38 -85 -54 -136 -40
-42 11 -46 23 -22 58 36 51 117 76 165 51z m264 -180 c96 -41 145 -114 164
-247 15 -102 40 -177 124 -371 92 -210 113 -300 97 -412 -25 -173 -165 -330
-335 -374 -321 -84 -621 192 -566 521 7 43 32 138 56 213 72 224 76 240 86
369 13 174 47 243 144 294 74 38 153 41 230 7z"/>
<path d="M5392 4070 c-52 -43 -177 -45 -224 -3 -21 19 -48 10 -48 -14 1 -35
81 -73 155 -73 85 0 186 56 172 94 -8 21 -27 20 -55 -4z"/>
<path d="M5225 3741 c-57 -25 -128 -108 -154 -179 -59 -158 -9 -300 133 -375
58 -30 174 -31 231 0 56 30 99 73 126 124 35 66 34 183 -2 260 -71 151 -215
225 -334 170z m128 -42 c43 -12 106 -64 136 -112 11 -18 27 -56 36 -84 13 -41
22 -53 39 -54 21 -2 21 -2 0 -6 -15 -3 -24 -17 -33 -53 -27 -107 -110 -173
-216 -171 -172 2 -266 182 -181 349 30 59 70 100 121 123 47 22 49 22 98 8z"/>
<path d="M1 4483 c0 -22 10 -35 47 -58 67 -43 99 -96 112 -186 23 -160 34
-209 77 -329 25 -69 58 -161 73 -205 16 -44 34 -113 40 -153 33 -212 -90 -420
-292 -494 -49 -18 -58 -24 -58 -45 0 -22 3 -24 28 -19 63 15 172 78 229 133
69 68 114 150 139 252 15 64 16 87 6 163 -10 83 -22 122 -132 431 -31 87 -44
143 -51 215 -11 117 -20 145 -64 208 -30 41 -123 114 -147 114 -4 0 -8 -12 -7
-27z"/>
<path d="M7740 4135 c-10 -13 -9 -19 6 -36 29 -33 68 -49 131 -55 83 -7 117 5
121 43 l3 30 -49 -12 c-59 -16 -122 -6 -163 24 -34 25 -33 25 -49 6z"/>
<path d="M7801 3794 c-65 -33 -134 -120 -157 -202 -23 -78 -15 -177 19 -235
46 -79 145 -136 234 -137 76 0 103 13 103 50 0 28 -2 29 -26 20 -40 -16 -125
-11 -170 9 -70 32 -124 118 -124 198 0 79 69 202 136 244 46 28 119 31 158 6
l26 -17 0 34 c0 29 -4 36 -31 45 -53 18 -111 13 -168 -15z"/>
<path d="M0 3762 c0 -18 10 -38 29 -56 35 -34 79 -128 87 -187 9 -69 -10 -121
-67 -180 -37 -38 -49 -58 -47 -76 l3 -25 50 34 c28 19 64 57 80 83 28 45 30
56 30 139 0 79 -4 98 -27 146 -25 51 -110 150 -130 150 -4 0 -8 -13 -8 -28z"/>
<path d="M6319 2197 c-49 -26 -91 -87 -87 -126 7 -63 137 -93 213 -49 22 13
51 40 64 61 19 28 31 37 53 37 25 0 28 -3 28 -35 0 -37 4 -34 -77 -51 -48 -9
-131 -66 -163 -111 -46 -64 -59 -102 -69 -212 -7 -75 -20 -129 -51 -218 -110
-309 -122 -348 -132 -431 -10 -76 -9 -99 6 -163 25 -101 70 -183 138 -250 204
-199 512 -199 716 0 68 67 113 149 138 250 15 64 16 87 6 163 -10 83 -22 122
-132 431 -32 90 -44 142 -51 220 -11 115 -36 180 -93 239 -39 40 -128 88 -163
88 -30 0 -31 35 -3 89 17 34 17 41 5 57 -14 18 -15 18 -32 -3 -15 -19 -24 -22
-58 -16 -22 3 -60 17 -84 30 -57 30 -115 30 -172 0z m146 -41 c17 -12 18 -17
7 -40 -19 -43 -69 -68 -125 -63 -62 5 -75 18 -56 53 29 56 128 84 174 50z
m234 -182 c94 -39 146 -108 161 -216 23 -159 34 -208 77 -328 25 -69 58 -161
73 -205 16 -44 34 -113 40 -153 36 -229 -109 -448 -335 -507 -315 -82 -615
187 -565 507 6 40 24 109 40 153 126 352 122 340 150 534 12 86 43 140 107
184 77 55 167 66 252 31z"/>
<path d="M6440 1655 c-26 -32 44 -81 132 -91 65 -8 127 8 168 42 54 46 27 69
-42 36 -72 -34 -149 -33 -202 3 -44 30 -40 29 -56 10z"/>
<path d="M6501 1314 c-106 -53 -178 -192 -169 -325 8 -108 61 -180 170 -229
114 -52 268 3 336 119 24 41 27 56 27 136 0 78 -4 97 -27 145 -77 155 -211
216 -337 154z m139 -34 c103 -29 194 -185 176 -304 -9 -58 -65 -132 -120 -157
-53 -24 -139 -24 -192 0 -82 37 -137 144 -120 235 18 95 101 205 171 225 41
12 45 12 85 1z"/>
<path d="M1059 2077 c-49 -26 -91 -87 -87 -126 7 -63 137 -93 213 -49 22 13
51 40 64 61 19 28 31 37 53 37 25 0 28 -3 28 -35 0 -37 4 -34 -77 -51 -48 -9
-131 -66 -163 -111 -46 -64 -59 -102 -69 -212 -7 -75 -20 -129 -51 -218 -110
-309 -122 -348 -132 -431 -10 -76 -9 -99 6 -163 25 -101 70 -183 138 -250 204
-199 512 -199 716 0 68 67 113 149 138 250 15 64 16 87 6 163 -10 83 -22 122
-132 431 -32 90 -44 142 -51 220 -11 115 -36 180 -93 239 -39 40 -128 88 -163
88 -30 0 -31 35 -3 89 17 34 17 41 5 57 -14 18 -15 18 -32 -3 -15 -19 -24 -22
-58 -16 -22 3 -60 17 -84 30 -57 30 -115 30 -172 0z m146 -41 c17 -12 18 -17
7 -40 -19 -43 -69 -68 -125 -63 -62 5 -75 18 -56 53 29 56 128 84 174 50z
m234 -182 c94 -39 146 -108 161 -216 23 -159 34 -208 77 -328 25 -69 58 -161
73 -205 16 -44 34 -113 40 -153 36 -229 -109 -448 -335 -507 -315 -82 -615
187 -565 507 6 40 24 109 40 153 126 352 122 340 150 534 12 86 43 140 107
184 77 55 167 66 252 31z"/>
<path d="M1180 1535 c-26 -32 44 -81 132 -91 65 -8 127 8 168 42 54 46 27 69
-42 36 -72 -34 -149 -33 -202 3 -44 30 -40 29 -56 10z"/>
<path d="M1241 1194 c-106 -53 -178 -192 -169 -325 8 -108 61 -180 170 -229
114 -52 268 3 336 119 24 41 27 56 27 136 0 78 -4 97 -27 145 -77 155 -211
216 -337 154z m139 -34 c103 -29 194 -185 176 -304 -9 -58 -65 -132 -120 -157
-53 -24 -139 -24 -192 0 -82 37 -137 144 -120 235 18 95 101 205 171 225 41
12 45 12 85 1z"/>
<path d="M3879 2077 c-49 -26 -91 -87 -87 -126 7 -63 137 -93 213 -49 22 13
51 40 64 61 19 28 31 37 53 37 25 0 28 -3 28 -35 0 -37 4 -34 -77 -51 -48 -9
-131 -66 -163 -111 -46 -64 -59 -102 -69 -212 -7 -75 -20 -129 -51 -218 -110
-309 -122 -348 -132 -431 -10 -76 -9 -99 6 -163 25 -101 70 -183 138 -250 204
-199 512 -199 716 0 68 67 113 149 138 250 15 64 16 87 6 163 -10 83 -22 122
-132 431 -32 90 -44 142 -51 220 -11 115 -36 180 -93 239 -39 40 -128 88 -163
88 -30 0 -31 35 -3 89 17 34 17 41 5 57 -14 18 -15 18 -32 -3 -15 -19 -24 -22
-58 -16 -22 3 -60 17 -84 30 -57 30 -115 30 -172 0z m146 -41 c17 -12 18 -17
7 -40 -19 -43 -69 -68 -125 -63 -62 5 -75 18 -56 53 29 56 128 84 174 50z
m234 -182 c94 -39 146 -108 161 -216 23 -159 34 -208 77 -328 25 -69 58 -161
73 -205 16 -44 34 -113 40 -153 36 -229 -109 -448 -335 -507 -315 -82 -615
187 -565 507 6 40 24 109 40 153 126 352 122 340 150 534 12 86 43 140 107
184 77 55 167 66 252 31z"/>
<path d="M4000 1535 c-26 -32 44 -81 132 -91 65 -8 127 8 168 42 54 46 27 69
-42 36 -72 -34 -149 -33 -202 3 -44 30 -40 29 -56 10z"/>
<path d="M4061 1194 c-106 -53 -178 -192 -169 -325 8 -108 61 -180 170 -229
114 -52 268 3 336 119 24 41 27 56 27 136 0 78 -4 97 -27 145 -77 155 -211
216 -337 154z m139 -34 c103 -29 194 -185 176 -304 -9 -58 -65 -132 -120 -157
-53 -24 -139 -24 -192 0 -82 37 -137 144 -120 235 18 95 101 205 171 225 41
12 45 12 85 1z"/>
</g>
</svg>
