<?xml version="1.0" standalone="no"?>
<!DOCTYPE svg PUBLIC "-//W3C//DTD SVG 20010904//EN"
 "http://www.w3.org/TR/2001/REC-SVG-20010904/DTD/svg10.dtd">
<svg version="1.0" xmlns="http://www.w3.org/2000/svg"
 width="800.000000pt" height="700.000000pt" viewBox="0 0 800.000000 700.000000"
 preserveAspectRatio="xMidYMid meet">

<g transform="translate(0.000000,700.000000) scale(0.100000,-0.100000)"
fill="#ebdf65" stroke="none">
<path d="M6796 6659 c-66 -11 -181 -69 -240 -120 -57 -51 -81 -96 -97 -183
-12 -71 -14 -75 -119 -158 -93 -75 -134 -166 -116 -261 14 -74 97 -161 181
-189 37 -13 39 -16 187 -332 82 -175 162 -338 178 -361 57 -83 130 -104 227
-66 100 40 530 243 566 268 87 60 90 134 12 325 -6 14 6 24 60 49 80 39 99 67
80 119 -14 40 -127 284 -181 392 -63 128 -91 140 -198 93 -63 -28 -64 -26 -41
49 20 66 19 105 -5 170 -34 90 -113 148 -252 185 -91 24 -178 31 -242 20z
m185 -83 c183 -39 263 -120 246 -248 -6 -45 -47 -110 -88 -140 -48 -36 -95
-39 -176 -13 -68 23 -76 23 -121 10 -26 -8 -58 -25 -70 -37 -25 -28 -52 -89
-52 -120 0 -39 -46 -123 -84 -155 -72 -59 -184 -71 -252 -27 -46 30 -84 83
-90 128 -8 47 31 113 96 163 119 93 124 100 150 227 14 69 51 115 135 165 99
60 183 73 306 47z m553 -613 c52 -112 97 -211 101 -222 5 -17 -3 -25 -45 -46
-29 -15 -54 -25 -56 -22 -9 9 -214 451 -214 461 1 19 93 55 107 42 7 -6 55
-102 107 -213z m-152 -152 c87 -187 163 -362 170 -390 18 -81 12 -86 -293
-228 -145 -68 -283 -130 -307 -139 -55 -18 -85 -6 -123 51 -21 32 -299 616
-299 629 0 2 27 13 61 26 109 39 177 121 203 245 22 104 66 132 150 96 26 -12
64 -21 85 -21 50 0 133 26 163 50 12 11 25 19 28 19 3 1 76 -152 162 -338z"/>
<path d="M7112 5948 c-7 -7 -12 -19 -12 -27 0 -9 53 -128 118 -266 105 -223
120 -250 141 -250 56 0 51 20 -73 289 -123 264 -140 288 -174 254z"/>
<path d="M6901 5842 c-8 -15 7 -55 76 -203 47 -101 100 -217 118 -256 29 -63
38 -73 59 -73 57 0 51 22 -74 291 -105 226 -121 254 -144 257 -16 2 -28 -3
-35 -16z"/>
<path d="M6702 5758 c-7 -7 -12 -20 -12 -29 0 -18 199 -455 226 -497 10 -15
23 -22 36 -20 49 7 44 26 -71 273 -62 132 -119 250 -127 263 -16 25 -34 28
-52 10z"/>
<path d="M3896 6639 c-66 -11 -181 -69 -240 -120 -57 -51 -81 -96 -97 -183
-12 -71 -14 -75 -119 -158 -93 -75 -134 -166 -116 -261 14 -74 97 -161 181
-189 37 -13 39 -16 187 -332 82 -175 162 -338 178 -361 57 -83 130 -104 227
-66 100 40 530 243 566 268 87 60 90 134 12 325 -6 14 6 24 60 49 80 39 99 67
80 119 -14 40 -127 284 -181 392 -63 128 -91 140 -198 93 -63 -28 -64 -26 -41
49 20 66 19 105 -5 170 -34 90 -113 148 -252 185 -91 24 -178 31 -242 20z
m185 -83 c183 -39 263 -120 246 -248 -6 -45 -47 -110 -88 -140 -48 -36 -95
-39 -176 -13 -68 23 -76 23 -121 10 -26 -8 -58 -25 -70 -37 -25 -28 -52 -89
-52 -120 0 -39 -46 -123 -84 -155 -72 -59 -184 -71 -252 -27 -46 30 -84 83
-90 128 -8 47 31 113 96 163 119 93 124 100 150 227 14 69 51 115 135 165 99
60 183 73 306 47z m553 -613 c52 -112 97 -211 101 -222 5 -17 -3 -25 -45 -46
-29 -15 -54 -25 -56 -22 -9 9 -214 451 -214 461 1 19 93 55 107 42 7 -6 55
-102 107 -213z m-152 -152 c87 -187 163 -362 170 -390 18 -81 12 -86 -293
-228 -145 -68 -283 -130 -307 -139 -55 -18 -85 -6 -123 51 -21 32 -299 616
-299 629 0 2 27 13 61 26 109 39 177 121 203 245 22 104 66 132 150 96 26 -12
64 -21 85 -21 50 0 133 26 163 50 12 11 25 19 28 19 3 1 76 -152 162 -338z"/>
<path d="M4212 5928 c-7 -7 -12 -19 -12 -27 0 -9 53 -128 118 -266 105 -223
120 -250 141 -250 56 0 51 20 -73 289 -123 264 -140 288 -174 254z"/>
<path d="M4001 5822 c-8 -15 7 -55 76 -203 47 -101 100 -217 118 -256 29 -63
38 -73 59 -73 57 0 51 22 -74 291 -105 226 -121 254 -144 257 -16 2 -28 -3
-35 -16z"/>
<path d="M3802 5738 c-7 -7 -12 -20 -12 -29 0 -18 199 -455 226 -497 10 -15
23 -22 36 -20 49 7 44 26 -71 273 -62 132 -119 250 -127 263 -16 25 -34 28
-52 10z"/>
<path d="M1176 6519 c-66 -11 -181 -69 -240 -120 -57 -51 -81 -96 -97 -183
-12 -71 -14 -75 -119 -158 -93 -75 -134 -166 -116 -261 14 -74 97 -161 181
-189 37 -13 39 -16 187 -332 82 -175 162 -338 178 -361 57 -83 130 -104 227
-66 100 40 530 243 566 268 87 60 90 134 12 325 -6 14 6 24 60 49 80 39 99 67
80 119 -14 40 -127 284 -181 392 -63 128 -91 140 -198 93 -63 -28 -64 -26 -41
49 20 66 19 105 -5 170 -34 90 -113 148 -252 185 -91 24 -178 31 -242 20z
m185 -83 c183 -39 263 -120 246 -248 -6 -45 -47 -110 -88 -140 -48 -36 -95
-39 -176 -13 -68 23 -76 23 -121 10 -26 -8 -58 -25 -70 -37 -25 -28 -52 -89
-52 -120 0 -39 -46 -123 -84 -155 -72 -59 -184 -71 -252 -27 -46 30 -84 83
-90 128 -8 47 31 113 96 163 119 93 124 100 150 227 14 69 51 115 135 165 99
60 183 73 306 47z m553 -613 c52 -112 97 -211 101 -222 5 -17 -3 -25 -45 -46
-29 -15 -54 -25 -56 -22 -9 9 -214 451 -214 461 1 19 93 55 107 42 7 -6 55
-102 107 -213z m-152 -152 c87 -187 163 -362 170 -390 18 -81 12 -86 -293
-228 -145 -68 -283 -130 -307 -139 -55 -18 -85 -6 -123 51 -21 32 -299 616
-299 629 0 2 27 13 61 26 109 39 177 121 203 245 22 104 66 132 150 96 26 -12
64 -21 85 -21 50 0 133 26 163 50 12 11 25 19 28 19 3 1 76 -152 162 -338z"/>
<path d="M1492 5808 c-7 -7 -12 -19 -12 -27 0 -9 53 -128 118 -266 105 -223
120 -250 141 -250 56 0 51 20 -73 289 -123 264 -140 288 -174 254z"/>
<path d="M1281 5702 c-8 -15 7 -55 76 -203 47 -101 100 -217 118 -256 29 -63
38 -73 59 -73 57 0 51 22 -74 291 -105 226 -121 254 -144 257 -16 2 -28 -3
-35 -16z"/>
<path d="M1082 5618 c-7 -7 -12 -20 -12 -29 0 -18 199 -455 226 -497 10 -15
23 -22 36 -20 49 7 44 26 -71 273 -62 132 -119 250 -127 263 -16 25 -34 28
-52 10z"/>
<path d="M2776 4239 c-66 -11 -181 -69 -240 -120 -57 -51 -81 -96 -97 -183
-12 -71 -14 -75 -119 -158 -93 -75 -134 -166 -116 -261 14 -74 97 -161 181
-189 37 -13 39 -16 187 -332 82 -175 162 -338 178 -361 57 -83 130 -104 227
-66 100 40 530 243 566 268 87 60 90 134 12 325 -6 14 6 24 60 49 80 39 99 67
80 119 -14 40 -127 284 -181 392 -63 128 -91 140 -198 93 -63 -28 -64 -26 -41
49 20 66 19 105 -5 170 -34 90 -113 148 -252 185 -91 24 -178 31 -242 20z
m185 -83 c183 -39 263 -120 246 -248 -6 -45 -47 -110 -88 -140 -48 -36 -95
-39 -176 -13 -68 23 -76 23 -121 10 -26 -8 -58 -25 -70 -37 -25 -28 -52 -89
-52 -120 0 -39 -46 -123 -84 -155 -72 -59 -184 -71 -252 -27 -46 30 -84 83
-90 128 -8 47 31 113 96 163 119 93 124 100 150 227 14 69 51 115 135 165 99
60 183 73 306 47z m553 -613 c52 -112 97 -211 101 -222 5 -17 -3 -25 -45 -46
-29 -15 -54 -25 -56 -22 -9 9 -214 451 -214 461 1 19 93 55 107 42 7 -6 55
-102 107 -213z m-152 -152 c87 -187 163 -362 170 -390 18 -81 12 -86 -293
-228 -145 -68 -283 -130 -307 -139 -55 -18 -85 -6 -123 51 -21 32 -299 616
-299 629 0 2 27 13 61 26 109 39 177 121 203 245 22 104 66 132 150 96 26 -12
64 -21 85 -21 50 0 133 26 163 50 12 11 25 19 28 19 3 1 76 -152 162 -338z"/>
<path d="M3092 3528 c-7 -7 -12 -19 -12 -27 0 -9 53 -128 118 -266 105 -223
120 -250 141 -250 56 0 51 20 -73 289 -123 264 -140 288 -174 254z"/>
<path d="M2881 3422 c-8 -15 7 -55 76 -203 47 -101 100 -217 118 -256 29 -63
38 -73 59 -73 57 0 51 22 -74 291 -105 226 -121 254 -144 257 -16 2 -28 -3
-35 -16z"/>
<path d="M2682 3338 c-7 -7 -12 -20 -12 -29 0 -18 199 -455 226 -497 10 -15
23 -22 36 -20 49 7 44 26 -71 273 -62 132 -119 250 -127 263 -16 25 -34 28
-52 10z"/>
<path d="M5476 4199 c-66 -11 -181 -69 -240 -120 -57 -51 -81 -96 -97 -183
-12 -71 -14 -75 -119 -158 -93 -75 -134 -166 -116 -261 14 -74 97 -161 181
-189 37 -13 39 -16 187 -332 82 -175 162 -338 178 -361 57 -83 130 -104 227
-66 100 40 530 243 566 268 87 60 90 134 12 325 -6 14 6 24 60 49 80 39 99 67
80 119 -14 40 -127 284 -181 392 -63 128 -91 140 -198 93 -63 -28 -64 -26 -41
49 20 66 19 105 -5 170 -34 90 -113 148 -252 185 -91 24 -178 31 -242 20z
m185 -83 c183 -39 263 -120 246 -248 -6 -45 -47 -110 -88 -140 -48 -36 -95
-39 -176 -13 -68 23 -76 23 -121 10 -26 -8 -58 -25 -70 -37 -25 -28 -52 -89
-52 -120 0 -39 -46 -123 -84 -155 -72 -59 -184 -71 -252 -27 -46 30 -84 83
-90 128 -8 47 31 113 96 163 119 93 124 100 150 227 14 69 51 115 135 165 99
60 183 73 306 47z m553 -613 c52 -112 97 -211 101 -222 5 -17 -3 -25 -45 -46
-29 -15 -54 -25 -56 -22 -9 9 -214 451 -214 461 1 19 93 55 107 42 7 -6 55
-102 107 -213z m-152 -152 c87 -187 163 -362 170 -390 18 -81 12 -86 -293
-228 -145 -68 -283 -130 -307 -139 -55 -18 -85 -6 -123 51 -21 32 -299 616
-299 629 0 2 27 13 61 26 109 39 177 121 203 245 22 104 66 132 150 96 26 -12
64 -21 85 -21 50 0 133 26 163 50 12 11 25 19 28 19 3 1 76 -152 162 -338z"/>
<path d="M5792 3488 c-7 -7 -12 -19 -12 -27 0 -9 53 -128 118 -266 105 -223
120 -250 141 -250 56 0 51 20 -73 289 -123 264 -140 288 -174 254z"/>
<path d="M5581 3382 c-8 -15 7 -55 76 -203 47 -101 100 -217 118 -256 29 -63
38 -73 59 -73 57 0 51 22 -74 291 -105 226 -121 254 -144 257 -16 2 -28 -3
-35 -16z"/>
<path d="M5382 3298 c-7 -7 -12 -20 -12 -29 0 -18 199 -455 226 -497 10 -15
23 -22 36 -20 49 7 44 26 -71 273 -62 132 -119 250 -127 263 -16 25 -34 28
-52 10z"/>
<path d="M0 4150 c0 -40 0 -40 38 -40 54 0 162 -25 221 -50 126 -55 169 -187
94 -293 -62 -88 -121 -107 -228 -72 -39 12 -83 21 -98 18 -24 -5 -27 -10 -27
-49 0 -43 0 -43 25 -32 20 9 34 7 76 -11 28 -11 68 -21 89 -21 50 0 131 25
164 51 15 12 28 20 30 18 19 -24 319 -690 328 -728 10 -47 10 -54 -9 -78 -25
-35 -578 -295 -629 -296 -19 -1 -42 7 -54 18 -20 18 -20 18 -20 -32 0 -37 4
-53 16 -57 30 -12 94 -6 141 13 100 40 530 243 566 268 87 60 90 134 12 325
-6 14 6 24 60 49 80 39 99 67 80 119 -14 40 -127 284 -181 392 -63 128 -91
140 -198 93 -63 -28 -64 -26 -41 49 20 66 19 105 -5 170 -23 59 -72 111 -139
145 -51 27 -169 58 -248 66 l-63 6 0 -41z m694 -667 c52 -112 97 -211 101
-222 5 -17 -3 -25 -45 -46 -29 -15 -54 -25 -56 -22 -9 9 -214 451 -214 461 1
19 93 55 107 42 7 -6 55 -102 107 -213z"/>
<path d="M7879 4156 c-109 -44 -196 -112 -229 -176 -10 -21 -24 -67 -31 -104
-12 -71 -14 -75 -119 -158 -93 -75 -134 -166 -116 -261 14 -74 97 -161 181
-189 37 -13 39 -16 187 -332 149 -319 192 -397 228 -416 19 -10 20 -7 20 37 0
29 -7 60 -18 78 -17 28 -292 610 -292 619 0 2 27 13 61 26 109 39 177 121 203
243 7 38 21 76 30 86 20 22 22 91 2 91 -40 0 -105 -92 -106 -150 0 -41 -45
-124 -84 -157 -72 -59 -184 -71 -252 -27 -46 30 -84 83 -90 128 -8 47 31 113
96 163 119 93 124 100 150 226 14 69 43 107 123 158 56 36 88 50 150 63 23 6
27 11 27 41 0 33 -2 35 -32 35 -18 0 -58 -11 -89 -24z"/>
<path d="M272 3468 c-7 -7 -12 -19 -12 -27 0 -9 53 -128 118 -266 105 -223
120 -250 141 -250 56 0 51 20 -73 289 -123 264 -140 288 -174 254z"/>
<path d="M61 3362 c-8 -15 7 -55 76 -203 47 -101 100 -217 118 -256 29 -63 38
-73 59 -73 57 0 51 22 -74 291 -105 226 -121 254 -144 257 -16 2 -28 -3 -35
-16z"/>
<path d="M7862 3278 c-6 -6 -12 -19 -12 -27 0 -9 32 -88 72 -176 l73 -159 3
88 c3 88 3 89 -45 185 -47 95 -66 114 -91 89z"/>
<path d="M0 2994 c0 -85 2 -93 43 -174 35 -71 46 -85 66 -85 50 0 46 23 -29
185 -39 85 -73 157 -76 159 -2 2 -4 -36 -4 -85z"/>
<path d="M4156 2159 c-66 -11 -181 -69 -240 -120 -57 -51 -81 -96 -97 -183
-12 -71 -14 -75 -119 -158 -93 -75 -134 -166 -116 -261 14 -74 97 -161 181
-189 37 -13 39 -16 187 -332 82 -175 162 -338 178 -361 57 -83 130 -104 227
-66 100 40 530 243 566 268 87 60 90 134 12 325 -6 14 6 24 60 49 80 39 99 67
80 119 -14 40 -127 284 -181 392 -63 128 -91 140 -198 93 -63 -28 -64 -26 -41
49 20 66 19 105 -5 170 -34 90 -113 148 -252 185 -91 24 -178 31 -242 20z
m185 -83 c183 -39 263 -120 246 -248 -6 -45 -47 -110 -88 -140 -48 -36 -95
-39 -176 -13 -68 23 -76 23 -121 10 -26 -8 -58 -25 -70 -37 -25 -28 -52 -89
-52 -120 0 -39 -46 -123 -84 -155 -72 -59 -184 -71 -252 -27 -46 30 -84 83
-90 128 -8 47 31 113 96 163 119 93 124 100 150 227 14 69 51 115 135 165 99
60 183 73 306 47z m553 -613 c52 -112 97 -211 101 -222 5 -17 -3 -25 -45 -46
-29 -15 -54 -25 -56 -22 -9 9 -214 451 -214 461 1 19 93 55 107 42 7 -6 55
-102 107 -213z m-152 -152 c87 -187 163 -362 170 -390 18 -81 12 -86 -293
-228 -145 -68 -283 -130 -307 -139 -55 -18 -85 -6 -123 51 -21 32 -299 616
-299 629 0 2 27 13 61 26 109 39 177 121 203 245 22 104 66 132 150 96 26 -12
64 -21 85 -21 50 0 133 26 163 50 12 11 25 19 28 19 3 1 76 -152 162 -338z"/>
<path d="M4472 1448 c-7 -7 -12 -19 -12 -27 0 -9 53 -128 118 -266 105 -223
120 -250 141 -250 56 0 51 20 -73 289 -123 264 -140 288 -174 254z"/>
<path d="M4261 1342 c-8 -15 7 -55 76 -203 47 -101 100 -217 118 -256 29 -63
38 -73 59 -73 57 0 51 22 -74 291 -105 226 -121 254 -144 257 -16 2 -28 -3
-35 -16z"/>
<path d="M4062 1258 c-7 -7 -12 -20 -12 -29 0 -18 199 -455 226 -497 10 -15
23 -22 36 -20 49 7 44 26 -71 273 -62 132 -119 250 -127 263 -16 25 -34 28
-52 10z"/>
<path d="M6756 2139 c-66 -11 -181 -69 -240 -120 -57 -51 -81 -96 -97 -183
-12 -71 -14 -75 -119 -158 -93 -75 -134 -166 -116 -261 14 -74 97 -161 181
-189 37 -13 39 -16 187 -332 82 -175 162 -338 178 -361 57 -83 130 -104 227
-66 100 40 530 243 566 268 87 60 90 134 12 325 -6 14 6 24 60 49 80 39 99 67
80 119 -14 40 -127 284 -181 392 -63 128 -91 140 -198 93 -63 -28 -64 -26 -41
49 20 66 19 105 -5 170 -34 90 -113 148 -252 185 -91 24 -178 31 -242 20z
m185 -83 c183 -39 263 -120 246 -248 -6 -45 -47 -110 -88 -140 -48 -36 -95
-39 -176 -13 -68 23 -76 23 -121 10 -26 -8 -58 -25 -70 -37 -25 -28 -52 -89
-52 -120 0 -39 -46 -123 -84 -155 -72 -59 -184 -71 -252 -27 -46 30 -84 83
-90 128 -8 47 31 113 96 163 119 93 124 100 150 227 14 69 51 115 135 165 99
60 183 73 306 47z m553 -613 c52 -112 97 -211 101 -222 5 -17 -3 -25 -45 -46
-29 -15 -54 -25 -56 -22 -9 9 -214 451 -214 461 1 19 93 55 107 42 7 -6 55
-102 107 -213z m-152 -152 c87 -187 163 -362 170 -390 18 -81 12 -86 -293
-228 -145 -68 -283 -130 -307 -139 -55 -18 -85 -6 -123 51 -21 32 -299 616
-299 629 0 2 27 13 61 26 109 39 177 121 203 245 22 104 66 132 150 96 26 -12
64 -21 85 -21 50 0 133 26 163 50 12 11 25 19 28 19 3 1 76 -152 162 -338z"/>
<path d="M7072 1428 c-7 -7 -12 -19 -12 -27 0 -9 53 -128 118 -266 105 -223
120 -250 141 -250 56 0 51 20 -73 289 -123 264 -140 288 -174 254z"/>
<path d="M6861 1322 c-8 -15 7 -55 76 -203 47 -101 100 -217 118 -256 29 -63
38 -73 59 -73 57 0 51 22 -74 291 -105 226 -121 254 -144 257 -16 2 -28 -3
-35 -16z"/>
<path d="M6662 1238 c-7 -7 -12 -20 -12 -29 0 -18 199 -455 226 -497 10 -15
23 -22 36 -20 49 7 44 26 -71 273 -62 132 -119 250 -127 263 -16 25 -34 28
-52 10z"/>
<path d="M1376 1979 c-66 -11 -181 -69 -240 -120 -57 -51 -81 -96 -97 -183
-12 -71 -14 -75 -119 -158 -93 -75 -134 -166 -116 -261 14 -74 97 -161 181
-189 37 -13 39 -16 187 -332 82 -175 162 -338 178 -361 57 -83 130 -104 227
-66 100 40 530 243 566 268 87 60 90 134 12 325 -6 14 6 24 60 49 80 39 99 67
80 119 -14 40 -127 284 -181 392 -63 128 -91 140 -198 93 -63 -28 -64 -26 -41
49 20 66 19 105 -5 170 -34 90 -113 148 -252 185 -91 24 -178 31 -242 20z
m185 -83 c183 -39 263 -120 246 -248 -6 -45 -47 -110 -88 -140 -48 -36 -95
-39 -176 -13 -68 23 -76 23 -121 10 -26 -8 -58 -25 -70 -37 -25 -28 -52 -89
-52 -120 0 -39 -46 -123 -84 -155 -72 -59 -184 -71 -252 -27 -46 30 -84 83
-90 128 -8 47 31 113 96 163 119 93 124 100 150 227 14 69 51 115 135 165 99
60 183 73 306 47z m553 -613 c52 -112 97 -211 101 -222 5 -17 -3 -25 -45 -46
-29 -15 -54 -25 -56 -22 -9 9 -214 451 -214 461 1 19 93 55 107 42 7 -6 55
-102 107 -213z m-152 -152 c87 -187 163 -362 170 -390 18 -81 12 -86 -293
-228 -145 -68 -283 -130 -307 -139 -55 -18 -85 -6 -123 51 -21 32 -299 616
-299 629 0 2 27 13 61 26 109 39 177 121 203 245 22 104 66 132 150 96 26 -12
64 -21 85 -21 50 0 133 26 163 50 12 11 25 19 28 19 3 1 76 -152 162 -338z"/>
<path d="M1692 1268 c-7 -7 -12 -19 -12 -27 0 -9 53 -128 118 -266 105 -223
120 -250 141 -250 56 0 51 20 -73 289 -123 264 -140 288 -174 254z"/>
<path d="M1481 1162 c-8 -15 7 -55 76 -203 47 -101 100 -217 118 -256 29 -63
38 -73 59 -73 57 0 51 22 -74 291 -105 226 -121 254 -144 257 -16 2 -28 -3
-35 -16z"/>
<path d="M1282 1078 c-7 -7 -12 -20 -12 -29 0 -18 199 -455 226 -497 10 -15
23 -22 36 -20 49 7 44 26 -71 273 -62 132 -119 250 -127 263 -16 25 -34 28
-52 10z"/>
</g>
</svg>
