<?xml version="1.0" standalone="no"?>
<!DOCTYPE svg PUBLIC "-//W3C//DTD SVG 20010904//EN"
 "http://www.w3.org/TR/2001/REC-SVG-20010904/DTD/svg10.dtd">
<svg version="1.0" xmlns="http://www.w3.org/2000/svg"
 width="1056.000000pt" height="994.000000pt" viewBox="0 0 1056.000000 994.000000"
 preserveAspectRatio="xMidYMid meet">

<g transform="translate(0.000000,994.000000) scale(0.100000,-0.100000)"
fill="#000000" stroke="none">
<path d="M5350 9898 c-10 -24 -29 -78 -41 -120 -20 -69 -26 -78 -46 -78 -13 0
-37 -7 -53 -15 -86 -45 -106 -164 -39 -236 l31 -33 -27 -105 c-24 -93 -26
-111 -16 -156 13 -56 57 -117 101 -140 15 -8 214 -64 441 -125 433 -116 444
-117 514 -82 70 34 96 73 130 200 13 46 25 85 27 86 2 1 22 8 45 14 122 35
160 160 77 252 l-35 38 22 84 c39 153 15 300 -66 411 l-35 47 -70 0 -69 0 50
-47 c66 -61 108 -150 116 -243 5 -56 3 -70 -8 -70 -35 -2 -969 255 -969 266 0
6 11 28 25 48 14 20 25 39 25 41 0 3 -25 5 -56 5 l-55 0 -19 -42z m100 -168
c11 -7 5 -10 -22 -10 -21 0 -38 5 -38 10 0 13 40 13 60 0z m210 -54 c91 -25
91 -24 -11 -41 -32 -6 -38 -3 -63 29 -15 20 -23 36 -19 36 4 0 46 -11 93 -24z
m268 -71 c39 -11 72 -22 72 -25 0 -4 -21 -12 -47 -18 l-48 -11 -40 41 c-22 22
-33 39 -25 36 8 -3 48 -13 88 -23z m-89 -141 c300 -80 555 -150 568 -155 13
-5 28 -20 35 -33 16 -36 -12 -76 -51 -76 -16 0 -280 67 -586 149 -566 152
-584 158 -585 204 0 22 35 57 57 57 9 0 262 -66 562 -146z m446 45 c12 -1 -75
-29 -91 -29 -6 0 -31 18 -55 40 l-44 39 90 -24 c50 -14 95 -25 100 -26z m-487
-254 c325 -87 482 -133 482 -142 0 -7 -7 -13 -16 -13 -8 0 -183 45 -388 100
-205 55 -389 100 -408 100 -28 0 -42 -7 -66 -34 -17 -19 -33 -44 -37 -55 -3
-12 -11 -21 -16 -21 -11 0 -12 -3 7 59 19 64 14 78 -31 97 -19 8 -35 21 -35
30 0 9 6 14 13 12 6 -3 229 -63 495 -133z m59 -146 c208 -56 381 -103 385
-105 11 -7 -15 -73 -38 -95 -45 -42 -75 -37 -479 70 -422 113 -426 114 -452
144 -16 18 -14 17 15 -3 58 -43 138 -20 158 44 6 21 23 46 30 46 2 0 174 -45
381 -101z"/>
<path d="M5620 9930 c0 -6 11 -22 25 -36 19 -19 31 -23 48 -18 32 10 47 24 47
45 0 17 -8 19 -60 19 -35 0 -60 -4 -60 -10z"/>
<path d="M5755 9930 c3 -5 15 -10 26 -10 14 0 19 -7 19 -28 0 -16 8 -36 18
-45 49 -45 118 8 90 68 -10 23 -16 25 -85 25 -47 0 -72 -4 -68 -10z"/>
<path d="M6079 9917 c-9 -19 -16 -22 -46 -19 -42 5 -63 -15 -63 -60 0 -57 87
-77 111 -25 8 18 17 22 38 19 23 -3 27 -8 23 -28 -10 -51 65 -86 102 -48 33
33 11 95 -35 97 -21 2 -24 6 -21 30 6 38 -14 57 -59 57 -31 0 -42 -5 -50 -23z"/>
<path d="M2065 9555 c-22 -8 -51 -27 -65 -43 l-25 -28 -70 14 c-105 20 -203
10 -282 -28 -82 -41 -166 -123 -199 -195 -26 -56 -77 -281 -89 -390 -23 -219
133 -414 363 -455 68 -13 70 -13 81 -51 20 -67 99 -112 168 -95 14 4 41 22 58
39 l32 32 84 -17 c129 -27 196 -10 252 64 28 36 29 40 122 521 61 316 61 336
11 402 -36 46 -54 55 -166 80 -93 20 -94 21 -101 53 -16 78 -97 123 -174 97z
m80 -95 c18 -19 15 -34 -74 -498 -120 -620 -109 -570 -137 -589 -22 -14 -26
-14 -49 1 -16 11 -25 26 -25 42 0 49 192 1019 206 1042 18 28 55 29 79 2z
m-328 -52 c-3 -13 -42 -214 -87 -448 -45 -234 -84 -426 -85 -428 -8 -9 -78 31
-114 64 -76 68 -112 148 -112 249 0 83 55 343 85 403 52 102 171 175 295 181
19 1 22 -3 18 -21z m439 -85 c-2 -10 -35 -177 -72 -371 -77 -399 -77 -388 4
-427 23 -11 42 -23 42 -26 0 -3 -25 -1 -55 4 -61 12 -85 1 -85 -39 0 -28 -18
-41 -26 -20 -5 12 142 807 162 879 3 9 12 17 20 17 10 0 14 -6 10 -17z m-347
-52 c12 -36 10 -41 -37 -99 -18 -23 -18 -22 -3 62 15 90 20 94 40 37z m511 20
c50 -35 49 -59 -26 -445 -55 -289 -70 -352 -78 -329 -13 41 -26 54 -73 74 -26
11 -41 23 -38 31 2 7 29 144 60 303 84 443 72 396 103 389 15 -3 38 -14 52
-23z m-561 -271 c11 -38 10 -42 -16 -75 -15 -19 -29 -32 -31 -30 -6 6 21 145
28 145 4 0 12 -18 19 -40z m-66 -332 c-15 -15 -28 -26 -31 -24 -4 5 15 110 25
136 3 9 11 -5 19 -35 13 -49 12 -50 -13 -77z m-43 -153 c0 -14 -4 -25 -10 -25
-11 0 -14 33 -3 43 11 11 13 8 13 -18z"/>
<path d="M1596 9264 c-9 -8 -16 -24 -16 -35 0 -13 -7 -19 -24 -19 -55 0 -73
-55 -31 -94 14 -13 25 -34 25 -48 0 -33 18 -48 57 -48 27 0 35 5 44 27 13 34
-3 73 -29 73 -15 0 -18 6 -14 29 3 22 8 27 22 24 22 -6 60 30 60 55 0 43 -63
67 -94 36z"/>
<path d="M1543 8960 c-16 -6 -23 -18 -23 -35 0 -20 -5 -25 -23 -25 -29 0 -57
-29 -57 -58 0 -11 11 -29 25 -40 16 -13 25 -30 25 -49 0 -36 16 -53 50 -53 35
0 50 17 50 57 0 26 -6 36 -25 45 -16 7 -24 17 -20 26 3 7 5 18 5 23 0 5 11 9
24 9 25 0 56 32 56 57 0 17 -36 53 -52 52 -7 0 -23 -4 -35 -9z"/>
<path d="M8955 8851 c-82 -30 -335 -150 -380 -181 -151 -104 -228 -311 -181
-490 8 -30 28 -86 45 -124 l31 -68 -24 -29 c-77 -92 -12 -239 107 -239 33 0
35 -2 76 -90 51 -109 87 -153 146 -176 82 -31 111 -22 501 160 197 92 378 179
401 192 60 35 98 102 97 174 0 44 -9 74 -43 148 l-43 93 20 22 c31 35 42 63
42 109 0 79 -66 148 -142 148 -37 0 -38 1 -85 93 -74 144 -170 226 -308 263
-71 19 -199 16 -260 -5z m183 -28 c-21 -2 -57 -2 -80 0 -24 2 -7 4 37 4 44 0
63 -2 43 -4z m-131 -9 c-3 -3 -12 -4 -19 -1 -8 3 -5 6 6 6 11 1 17 -2 13 -5z
m-47 -14 c-8 -5 -19 -10 -25 -10 -5 0 -3 5 5 10 8 5 20 10 25 10 6 0 3 -5 -5
-10z m290 0 c8 -5 11 -10 5 -10 -5 0 -17 5 -25 10 -8 5 -10 10 -5 10 6 0 17
-5 25 -10z m-360 -30 c-19 -11 -39 -19 -45 -19 -5 0 6 8 25 19 19 11 40 19 45
19 6 0 -6 -8 -25 -19z m372 -33 c70 -35 166 -126 143 -134 -6 -2 -212 -98
-459 -213 -331 -155 -452 -207 -458 -198 -28 46 -15 185 24 263 53 104 96 137
295 229 197 91 215 97 305 93 65 -3 89 -9 150 -40z m94 2 c3 -6 -5 -3 -20 6
-14 10 -26 19 -26 22 0 7 39 -17 46 -28z m39 -29 c10 -11 16 -20 13 -20 -3 0
-13 9 -23 20 -10 11 -16 20 -13 20 3 0 13 -9 23 -20z m-655 -10 c-19 -11 -39
-19 -45 -19 -5 0 6 8 25 19 19 11 40 19 45 19 6 0 -6 -8 -25 -19z m-80 -35 c0
-2 -10 -9 -22 -15 -22 -11 -22 -10 -4 4 21 17 26 19 26 11z m790 -26 c15 -28
5 -23 -15 7 -9 15 -12 23 -6 20 6 -4 16 -16 21 -27z m-840 -2 c0 -1 -21 -20
-47 -41 l-48 -38 44 41 c40 38 51 46 51 38z m800 -87 c-19 -11 -39 -19 -45
-19 -5 0 6 8 25 19 19 11 40 19 45 19 6 0 -6 -8 -25 -19z m-890 -4 c0 -2 -8
-10 -17 -17 -16 -13 -17 -12 -4 4 13 16 21 21 21 13z m1032 -97 c5 -3 -3 -11
-17 -17 -36 -16 -45 -14 -15 3 l25 14 -30 2 c-26 1 -27 2 -8 7 17 5 20 11 13
22 -5 8 -10 20 -9 25 0 6 7 -3 16 -20 9 -16 20 -33 25 -36z m-292 31 c-19 -11
-39 -19 -45 -19 -5 0 6 8 25 19 19 11 40 19 45 19 6 0 -6 -8 -25 -19z m74 -49
c-25 -35 -34 -41 -66 -41 -78 0 -76 12 7 51 44 20 82 35 84 33 2 -1 -10 -21
-25 -43z m56 -6 c-17 -25 -33 -45 -36 -45 -3 0 9 20 26 45 17 25 33 45 36 45
3 0 -9 -20 -26 -45z m83 38 c-7 -2 -21 -2 -30 0 -10 3 -4 5 12 5 17 0 24 -2
18 -5z m145 -10 c-10 -2 -26 -2 -35 0 -10 3 -2 5 17 5 19 0 27 -2 18 -5z
m-1167 -34 c-5 -13 -10 -19 -10 -12 -1 15 10 45 15 40 3 -2 0 -15 -5 -28z
m1230 4 c13 -16 12 -17 -3 -4 -10 7 -18 15 -18 17 0 8 8 3 21 -13z m-571 -13
c-19 -11 -39 -19 -45 -19 -5 0 6 8 25 19 19 11 40 19 45 19 6 0 -6 -8 -25 -19z
m530 -20 c23 -23 26 -49 8 -73 -15 -19 -1059 -507 -1086 -507 -47 0 -73 63
-40 96 19 19 1058 504 1081 504 9 0 26 -9 37 -20z m-1203 -22 c-3 -8 -6 -5 -6
6 -1 11 2 17 5 13 3 -3 4 -12 1 -19z m884 -34 c-63 -30 -116 -52 -118 -50 -3
2 5 7 16 11 23 7 27 25 9 43 -9 9 1 12 44 12 31 0 60 5 63 10 4 6 10 8 15 5 5
-3 22 1 37 9 16 8 33 15 38 15 6 0 -41 -25 -104 -55z m386 -1 c-3 -10 -5 -2
-5 17 0 19 2 27 5 18 2 -10 2 -26 0 -35z m-747 7 c-19 -11 -39 -19 -45 -19 -5
0 6 8 25 19 19 11 40 19 45 19 6 0 -6 -8 -25 -19z m114 -29 c-30 -42 -55 -50
-112 -34 -20 5 -12 11 55 43 43 20 80 36 82 34 2 -2 -10 -21 -25 -43z m-647
-48 c-2 -16 -4 -3 -4 27 0 30 2 43 4 28 2 -16 2 -40 0 -55z m689 23 c-32 -42
-32 -49 -3 -41 19 5 20 4 4 -5 -31 -20 -89 -41 -83 -31 4 6 -11 11 -36 14 -39
3 -38 4 13 5 54 2 57 3 88 47 18 25 35 45 38 45 3 0 -6 -15 -21 -34z m575 5
c-10 -18 -54 -51 -68 -51 -4 0 5 9 21 19 16 11 33 27 38 35 13 23 21 20 9 -3z
m-881 -21 c-19 -11 -39 -19 -45 -19 -5 0 6 8 25 19 19 11 40 19 45 19 6 0 -6
-8 -25 -19z m2 -78 c-37 -44 -44 -48 -79 -44 -21 2 -42 5 -48 6 -8 3 150 86
163 86 2 0 -14 -22 -36 -48z m108 41 c-8 -2 -26 -18 -39 -34 -21 -28 -22 -31
-7 -47 14 -17 11 -20 -50 -50 -37 -18 -69 -31 -72 -27 -3 3 1 5 9 5 11 0 11 2
-1 10 -12 8 -10 10 10 10 19 1 39 18 80 70 30 39 62 69 70 69 13 -1 13 -2 0
-6z m640 -23 c-19 -11 -39 -19 -45 -19 -5 0 6 8 25 19 19 11 40 19 45 19 6 0
-6 -8 -25 -19z m-1123 -12 c-3 -8 -6 -5 -6 6 -1 11 2 17 5 13 3 -3 4 -12 1
-19z m223 2 c-19 -11 -39 -19 -45 -19 -5 0 6 8 25 19 19 11 40 19 45 19 6 0
-6 -8 -25 -19z m1030 -80 c0 -3 -11 -5 -24 -5 -20 0 -22 3 -15 22 5 13 6 31 3
40 -3 10 4 2 15 -17 11 -19 20 -37 21 -40z m-740 40 c-19 -11 -39 -19 -45 -19
-5 0 6 8 25 19 19 11 40 19 45 19 6 0 -6 -8 -25 -19z m658 4 c-2 -10 -140 -79
-368 -185 -202 -94 -373 -180 -383 -192 -15 -18 -17 -34 -13 -89 3 -38 3 -68
0 -68 -2 0 -16 25 -30 55 -30 62 -50 73 -94 50 -28 -14 -31 -14 -36 0 -4 9 -5
17 -3 19 16 11 907 424 917 425 8 1 12 -6 10 -15z m-178 -14 c-19 -11 -39 -19
-45 -19 -5 0 6 8 25 19 19 11 40 19 45 19 6 0 -6 -8 -25 -19z m-923 -21 c-37
-19 -37 -20 -22 -49 8 -16 15 -33 15 -37 -1 -4 -10 9 -21 30 -11 22 -19 40
-17 42 10 9 65 34 73 34 6 0 -7 -9 -28 -20z m63 -34 c-24 -26 -40 -32 -40 -15
0 8 45 38 59 40 3 0 -6 -11 -19 -25z m62 -8 c-22 -22 -30 -39 -26 -50 8 -21
17 -21 55 -1 17 8 33 14 35 11 2 -2 -35 -21 -83 -42 -47 -22 -100 -50 -117
-64 -36 -29 -39 -33 72 87 47 50 88 92 91 92 3 0 -10 -15 -27 -33z m91 16 c-7
-2 -21 -2 -30 0 -10 3 -4 5 12 5 17 0 24 -2 18 -5z m877 -13 c-19 -11 -39 -19
-45 -19 -5 0 6 8 25 19 19 11 40 19 45 19 6 0 -6 -8 -25 -19z m-320 -10 c-19
-11 -39 -19 -45 -19 -5 0 6 8 25 19 19 11 40 19 45 19 6 0 -6 -8 -25 -19z
m402 -90 c2 -58 -21 -89 -91 -124 -246 -123 -723 -337 -743 -333 -20 4 -20 4
4 6 15 0 42 14 60 30 34 30 35 36 26 135 -3 29 -2 30 357 197 l360 168 13 -25
c7 -14 14 -38 14 -54z m47 30 c0 -10 -3 -8 -9 5 -12 27 -12 43 0 25 5 -8 9
-22 9 -30z m-279 0 c-19 -11 -39 -19 -45 -19 -5 0 6 8 25 19 19 11 40 19 45
19 6 0 -6 -8 -25 -19z m-320 -10 c-19 -11 -39 -19 -45 -19 -5 0 6 8 25 19 19
11 40 19 45 19 6 0 -6 -8 -25 -19z m170 -60 c-19 -11 -39 -19 -45 -19 -5 0 6
8 25 19 19 11 40 19 45 19 6 0 -6 -8 -25 -19z m-320 -10 c-19 -11 -39 -19 -45
-19 -5 0 6 8 25 19 19 11 40 19 45 19 6 0 -6 -8 -25 -19z m725 -54 c-17 -25
-73 -66 -91 -66 -5 0 9 11 31 24 23 14 47 36 55 50 7 14 15 24 17 22 3 -2 -3
-16 -12 -30z m-555 -6 c-19 -11 -39 -19 -45 -19 -5 0 6 8 25 19 19 11 40 19
45 19 6 0 -6 -8 -25 -19z m-320 -10 c-19 -11 -39 -19 -45 -19 -5 0 6 8 25 19
19 11 40 19 45 19 6 0 -6 -8 -25 -19z m-322 -87 c15 -12 16 -13 0 -7 -19 6
-48 47 -48 66 0 7 7 0 15 -16 9 -16 23 -35 33 -43z m492 27 c-19 -11 -39 -19
-45 -19 -5 0 6 8 25 19 19 11 40 19 45 19 6 0 -6 -8 -25 -19z m-320 -10 c-19
-11 -39 -19 -45 -19 -5 0 6 8 25 19 19 11 40 19 45 19 6 0 -6 -8 -25 -19z
m830 -30 c-19 -11 -39 -19 -45 -19 -5 0 6 8 25 19 19 11 40 19 45 19 6 0 -6
-8 -25 -19z m-871 -45 c0 -5 -6 1 -14 15 -8 14 -14 30 -14 35 0 6 6 -1 14 -15
8 -14 14 -29 14 -35z m-51 38 c-10 -2 -28 -2 -40 0 -13 2 -5 4 17 4 22 1 32
-1 23 -4z m305 -18 c-3 -9 -8 -14 -10 -11 -3 3 -2 9 2 15 9 16 15 13 8 -4z
m477 -40 c-25 -13 -49 -24 -55 -24 -5 0 10 11 35 24 25 13 50 24 55 24 6 0
-10 -11 -35 -24z m-471 -40 c0 -5 -4 -3 -9 5 -5 8 -9 22 -9 30 0 16 17 -16 18
-35z m-124 4 c9 -17 14 -33 12 -35 -2 -3 -10 9 -17 26 -14 33 -23 36 -60 15
-14 -8 -32 -14 -40 -14 -17 0 58 37 77 38 7 1 20 -13 28 -30z m455 -29 c-19
-11 -39 -19 -45 -19 -5 0 6 8 25 19 19 11 40 19 45 19 6 0 -6 -8 -25 -19z
m-486 -110 l21 -25 -24 20 c-22 19 -72 105 -71 122 1 4 12 -14 27 -42 14 -27
35 -61 47 -75z m101 60 c10 0 28 8 39 18 21 17 21 17 2 -5 -11 -13 -29 -23
-41 -23 -12 0 -30 10 -41 23 -19 22 -19 22 2 5 11 -10 29 -18 39 -18z m-70
-20 c10 -11 16 -20 13 -20 -3 0 -13 9 -23 20 -10 11 -16 20 -13 20 3 0 13 -9
23 -20z m305 0 c-19 -11 -39 -19 -45 -19 -5 0 6 8 25 19 19 11 40 19 45 19 6
0 -6 -8 -25 -19z m-140 -65 c-14 -8 -29 -14 -35 -14 -5 0 1 6 15 14 14 8 30
14 35 14 6 0 -1 -6 -15 -14z m-62 -22 c-10 -2 -28 -2 -40 0 -13 2 -5 4 17 4
22 1 32 -1 23 -4z"/>
<path d="M8955 8713 c-11 -11 -15 -28 -13 -50 2 -20 0 -33 -7 -33 -20 0 -45
-35 -45 -62 0 -30 28 -58 58 -58 34 0 65 37 59 70 -5 22 -1 29 18 38 19 9 26
7 41 -9 33 -36 104 -16 104 31 0 49 -39 77 -84 60 -19 -7 -28 -5 -42 11 -21
23 -67 25 -89 2z m170 -64 c10 -15 -1 -23 -20 -15 -9 3 -13 10 -10 16 8 13 22
13 30 -1z"/>
<path d="M8635 8564 c-10 -10 -15 -29 -13 -48 2 -23 -2 -34 -17 -41 -25 -13
-44 -51 -37 -77 6 -25 43 -42 75 -35 29 8 51 51 38 75 -7 12 -3 19 17 29 22
12 27 12 35 -2 15 -27 57 -38 83 -21 63 42 16 131 -55 104 -19 -7 -27 -4 -38
12 -17 24 -65 27 -88 4z"/>
<path d="M4870 7546 c-86 -31 -281 -119 -346 -157 -141 -80 -234 -260 -220
-425 5 -63 21 -121 66 -230 12 -28 11 -34 -13 -70 -21 -29 -27 -51 -27 -89 0
-79 41 -127 127 -149 44 -11 45 -13 96 -116 47 -94 57 -108 101 -135 38 -23
60 -29 105 -30 51 0 89 14 436 169 209 92 396 180 415 195 90 70 102 175 35
319 l-38 83 26 27 c56 60 53 150 -6 210 -28 28 -45 36 -84 39 l-49 5 -44 92
c-69 142 -168 229 -309 272 -73 22 -195 18 -271 -10z m123 -23 c-7 -2 -19 -2
-25 0 -7 3 -2 5 12 5 14 0 19 -2 13 -5z m64 1 c-3 -3 -12 -4 -19 -1 -8 3 -5 6
6 6 11 1 17 -2 13 -5z m127 -88 c71 -34 146 -101 146 -129 0 -8 -830 -388
-909 -415 -15 -5 -25 39 -24 108 1 108 57 224 137 285 42 32 320 161 391 181
83 23 173 13 259 -30z m136 -31 c13 -14 21 -25 18 -25 -2 0 -15 11 -28 25 -13
14 -21 25 -18 25 2 0 15 -11 28 -25z m-810 -78 c0 -2 -17 -19 -37 -38 l-38
-34 34 38 c33 34 41 42 41 34z m770 -164 c0 -3 -11 -21 -26 -40 -24 -31 -28
-33 -87 -32 l-62 1 80 38 c84 40 95 44 95 33z m70 3 c0 -2 -8 -10 -17 -17 -16
-13 -17 -12 -4 4 13 16 21 21 21 13z m118 -25 c11 -6 10 -10 -4 -15 -9 -3 -19
-4 -22 -1 -3 3 1 5 9 5 11 0 11 2 -1 10 -8 5 -10 10 -5 10 6 0 16 -4 23 -9z
m132 -26 c13 -14 21 -25 18 -25 -2 0 -15 11 -28 25 -13 14 -21 25 -18 25 2 0
15 -11 28 -25z m-280 11 c0 -2 -8 -10 -17 -17 -16 -13 -17 -12 -4 4 13 16 21
21 21 13z m242 -43 c26 -23 23 -69 -4 -87 -43 -28 -1060 -476 -1081 -476 -49
0 -75 65 -39 96 25 21 1062 483 1086 484 11 0 28 -7 38 -17z m-563 -68 c-34
-47 -56 -54 -117 -37 -19 6 -9 13 60 44 46 21 84 38 86 38 2 0 -11 -20 -29
-45z m239 13 c-85 -39 -85 -39 -80 -13 3 18 -1 24 -19 28 -13 3 6 2 42 0 44
-4 69 -2 73 6 4 6 12 8 18 5 5 -4 -10 -15 -34 -26z m372 -52 c0 -2 -8 -10 -17
-17 -16 -13 -17 -12 -4 4 13 16 21 21 21 13z m-603 -40 c0 -8 -9 -17 -20 -20
-18 -4 -18 -4 -1 15 21 23 21 23 21 5z m-274 -41 c-39 -46 -54 -50 -117 -36
-26 5 -21 9 55 43 46 20 88 37 92 37 5 1 -9 -19 -30 -44z m117 41 c0 -2 -9 -6
-20 -9 -11 -3 -18 -1 -14 4 5 9 34 13 34 5z m97 -12 c-3 -3 -12 -4 -19 -1 -8
3 -5 6 6 6 11 1 17 -2 13 -5z m-155 -36 c-8 -8 -8 -17 -1 -30 13 -24 15 -22
-52 -52 l-55 -24 56 59 c30 32 57 59 60 59 2 0 -1 -5 -8 -12z m736 -34 c-2 -9
-142 -77 -376 -181 -318 -141 -375 -170 -387 -194 -17 -32 -20 -92 -5 -119 6
-11 6 -21 1 -24 -5 -3 -22 20 -37 52 -30 60 -37 63 -109 50 -12 -2 -20 3 -20
10 0 12 892 419 923 421 8 1 12 -6 10 -15z m70 -29 c9 -17 7 -20 -13 -20 -20
0 -21 3 -12 23 6 12 11 21 12 20 1 -2 7 -12 13 -23z m-1108 -20 c-24 -26 -40
-32 -40 -15 0 8 45 38 59 40 3 0 -6 -11 -19 -25z m52 -18 c-29 -30 -31 -34
-16 -49 15 -15 12 -19 -47 -48 -37 -19 -58 -26 -50 -17 7 9 10 21 6 26 -3 6 0
9 7 6 8 -3 36 21 66 55 29 33 56 60 60 60 3 0 -8 -15 -26 -33z m1055 -131 c-3
-23 -15 -49 -29 -62 -21 -21 -757 -354 -782 -354 -6 0 3 9 20 19 44 27 58 67
44 121 -6 23 -8 46 -3 51 4 4 170 80 368 168 l359 160 14 -32 c8 -18 11 -49 9
-71z m23 -79 c0 -2 -12 -14 -27 -28 l-28 -24 24 28 c23 25 31 32 31 24z
m-1083 -101 c0 -8 -8 -11 -21 -8 -19 5 -19 6 0 13 10 4 19 8 20 8 0 1 1 -5 1
-13z m273 -160 c0 -2 -8 -10 -17 -17 -16 -13 -17 -12 -4 4 13 16 21 21 21 13z"/>
<path d="M4894 7422 c-23 -15 -35 -51 -24 -72 9 -17 8 -20 -9 -20 -13 0 -27
-12 -37 -31 -15 -30 -15 -33 4 -58 27 -37 64 -39 91 -5 13 16 19 35 16 48 -8
29 33 57 47 32 15 -28 43 -37 77 -25 51 18 51 82 0 109 -15 8 -27 8 -48 -3
-27 -14 -30 -13 -40 9 -11 24 -52 33 -77 16z m156 -77 c0 -8 -7 -15 -15 -15
-16 0 -20 12 -8 23 11 12 23 8 23 -8z"/>
<path d="M4560 7268 c-14 -16 -20 -31 -16 -48 4 -20 -1 -29 -25 -42 -53 -31
-32 -108 30 -108 48 0 80 57 49 88 -9 9 -8 12 8 12 11 0 25 5 31 11 7 7 15 2
27 -15 32 -49 106 -24 106 36 0 14 -8 32 -18 41 -20 18 -67 23 -77 8 -3 -5
-16 1 -30 15 -30 30 -58 31 -85 2z"/>
<path d="M358 7105 c-133 -33 -212 -94 -300 -230 -49 -76 -58 -96 -58 -136 l0
-46 494 -296 c271 -163 496 -304 500 -313 3 -8 6 -22 6 -30 0 -20 -37 -54 -59
-54 -10 0 -218 120 -462 266 -244 146 -452 270 -462 275 -15 9 -17 4 -17 -43
l0 -53 388 -233 c213 -128 394 -237 402 -242 11 -7 12 -12 3 -21 -8 -8 -98 41
-363 200 -415 249 -430 254 -430 132 l0 -66 23 28 23 29 329 -197 c182 -109
337 -204 345 -211 33 -31 -70 -112 -125 -98 -15 4 -147 78 -293 166 -147 88
-275 164 -284 169 -16 9 -18 4 -18 -43 l0 -53 263 -158 c144 -86 278 -162 297
-167 51 -15 90 -12 135 9 52 23 86 60 140 151 l44 74 53 -3 c42 -2 60 3 87 21
69 47 88 126 50 203 l-21 42 46 79 c74 128 91 233 61 363 -20 85 -59 154 -121
216 -55 55 -325 222 -414 256 -71 27 -187 33 -262 14z m250 -111 c94 -41 318
-182 361 -226 83 -85 122 -211 101 -323 -6 -34 -15 -67 -19 -73 -5 -9 -140 67
-431 243 -233 140 -428 260 -434 266 -15 15 53 74 122 106 101 47 205 50 300
7z m-452 -209 c18 -14 17 -14 -13 -15 -31 0 -41 9 -26 23 10 10 17 9 39 -8z
m192 -115 c40 -23 71 -45 68 -47 -2 -3 -29 -2 -59 2 -52 7 -55 9 -76 52 -12
24 -18 43 -14 40 5 -2 41 -23 81 -47z m250 -150 c40 -23 70 -45 68 -48 -3 -2
-29 -1 -59 2 -49 6 -55 10 -73 44 -27 53 -28 55 -18 50 5 -3 42 -24 82 -48z
m311 -187 c2 -2 -20 -3 -50 -3 -54 0 -54 0 -82 45 -15 25 -27 48 -27 50 0 4
143 -79 159 -92z"/>
<path d="M519 6961 c-11 -16 -15 -17 -38 -5 -35 19 -47 18 -71 -6 -54 -54 23
-136 80 -85 14 13 22 14 43 4 22 -10 24 -15 16 -31 -13 -25 -3 -55 26 -74 21
-13 28 -14 52 -2 38 18 44 67 12 99 -17 17 -22 32 -20 60 2 29 -2 40 -18 48
-30 17 -70 13 -82 -8z"/>
<path d="M825 6780 c-13 -14 -22 -17 -29 -10 -14 14 -59 13 -80 -3 -27 -20
-18 -77 16 -96 25 -14 29 -14 55 5 24 18 32 19 57 9 18 -8 24 -15 17 -19 -20
-13 -13 -64 11 -80 46 -32 98 -5 98 50 0 22 -28 54 -48 54 -8 0 -9 7 -2 26 14
35 13 41 -10 64 -26 26 -62 26 -85 0z"/>
<path d="M10442 6780 c-53 -32 -74 -75 -69 -142 2 -34 10 -65 19 -75 15 -17
12 -25 -40 -112 -47 -78 -57 -103 -60 -152 -5 -70 21 -134 71 -171 34 -26 185
-118 192 -118 3 0 5 24 5 53 l0 52 -61 35 c-60 34 -109 75 -109 91 0 4 13 -6
29 -22 22 -21 39 -29 66 -29 66 0 75 11 75 93 l-1 72 -35 -38 c-20 -21 -38
-36 -41 -33 -3 3 6 25 21 50 34 58 33 79 -5 109 -44 34 -30 55 17 27 20 -11
37 -20 40 -20 2 0 4 24 3 53 0 51 -1 53 -47 82 -56 35 -66 71 -32 105 17 17
29 21 51 16 29 -5 29 -5 29 44 l0 50 -42 0 c-25 0 -57 -8 -76 -20z m-55 -507
c-3 -10 -5 -2 -5 17 0 19 2 27 5 18 2 -10 2 -26 0 -35z"/>
<path d="M8350 6381 c-43 -22 -80 -74 -80 -111 0 -26 -6 -30 -77 -56 -124 -44
-136 -50 -166 -80 -46 -46 -61 -83 -61 -149 1 -50 23 -123 138 -453 75 -217
146 -407 158 -422 30 -41 107 -80 159 -80 24 0 86 14 137 31 l92 31 35 -31
c42 -37 92 -52 138 -41 66 15 104 54 115 121 l7 42 85 32 c107 40 154 69 214
136 83 93 121 192 119 316 -1 72 -8 103 -63 265 -83 247 -119 305 -234 380
-130 84 -257 98 -420 47 -96 -30 -98 -30 -112 -11 -18 27 -75 52 -116 52 -18
0 -49 -8 -68 -19z m103 -85 c17 -13 397 -1097 397 -1133 0 -49 -77 -72 -104
-30 -17 27 -386 1097 -386 1120 0 22 35 57 58 57 9 0 25 -7 35 -14z m512 -35
c74 -34 142 -98 173 -161 12 -25 46 -117 77 -205 48 -139 55 -170 55 -235 0
-80 -24 -156 -69 -219 -22 -31 -116 -111 -129 -111 -4 0 -81 214 -171 476
-134 390 -161 478 -150 486 27 18 147 1 214 -31z m-315 -10 c0 -5 3 -18 7 -28
6 -17 5 -17 -15 1 -26 22 -28 36 -7 36 8 0 15 -4 15 -9z m-190 -590 c130 -377
160 -475 149 -481 -7 -5 -14 -8 -15 -7 -1 1 -61 175 -134 387 -151 441 -147
434 -241 428 -31 -1 -60 0 -63 3 -4 3 21 16 54 28 65 24 79 45 61 93 -7 19 -7
28 2 31 7 3 15 2 18 -2 4 -3 80 -219 169 -480z m270 353 l30 -89 -44 45 -45
45 11 47 c6 27 13 46 15 45 2 -2 17 -44 33 -93z m-625 -101 c26 -23 35 -25 84
-19 l56 6 129 -375 c100 -292 126 -379 117 -388 -7 -7 -34 -12 -61 -12 -86 0
-90 7 -238 440 -72 209 -133 394 -136 410 -6 29 -6 29 7 -4 7 -18 26 -45 42
-58z m742 -249 c-1 -1 -19 13 -40 33 -36 33 -38 37 -32 76 4 23 10 46 13 51 3
6 18 -28 34 -74 15 -46 27 -85 25 -86z m93 -268 c0 -6 -17 7 -39 28 -21 21
-37 45 -35 54 1 10 6 35 10 57 l6 40 29 -85 c16 -46 29 -89 29 -94z"/>
<path d="M8916 6168 c-20 -29 -20 -48 0 -77 13 -18 24 -22 49 -19 29 3 34 0
38 -21 4 -18 -2 -30 -19 -44 -53 -41 -9 -123 54 -101 33 12 51 57 34 84 -10
16 -10 20 1 20 20 0 47 33 47 58 0 34 -37 65 -71 60 -22 -4 -29 -1 -29 12 0
46 -77 67 -104 28z"/>
<path d="M9036 5834 c-38 -38 -3 -112 48 -102 20 4 27 0 35 -22 8 -24 6 -29
-15 -39 -34 -15 -34 -74 1 -97 46 -30 110 21 87 71 -9 20 -7 26 14 39 26 18
32 53 14 87 -8 13 -21 19 -45 19 -23 0 -35 5 -35 13 0 40 -74 62 -104 31z"/>
<path d="M2440 5029 c-116 -20 -243 -101 -305 -195 -39 -58 -67 -132 -85 -226
-10 -49 -15 -58 -33 -58 -32 0 -84 -35 -107 -72 -37 -62 -18 -160 40 -201 18
-13 18 -15 -1 -102 -24 -110 -24 -159 0 -210 19 -43 68 -91 109 -106 45 -17
824 -179 860 -179 51 1 111 30 149 73 34 39 43 63 68 180 12 57 20 77 33 77
36 0 99 41 120 79 39 69 24 144 -38 193 -27 21 -29 26 -20 57 21 73 30 186 20
246 -14 86 -71 196 -135 260 -76 76 -148 106 -350 148 -204 43 -253 48 -325
36z m43 -46 c-7 -2 -21 -2 -30 0 -10 3 -4 5 12 5 17 0 24 -2 18 -5z m100 0
c-7 -2 -21 -2 -30 0 -10 3 -4 5 12 5 17 0 24 -2 18 -5z m104 -19 c-3 -3 -12
-4 -19 -1 -8 3 -5 6 6 6 11 1 17 -2 13 -5z m-327 -8 c0 -2 -7 -7 -16 -10 -8
-3 -12 -2 -9 4 6 10 25 14 25 6z m377 -2 c-3 -3 -12 -4 -19 -1 -8 3 -5 6 6 6
11 1 17 -2 13 -5z m1 -50 c199 -42 235 -57 306 -124 67 -64 108 -149 114 -239
4 -58 3 -63 -14 -57 -11 3 -233 51 -493 106 -261 55 -477 102 -479 105 -9 8
40 91 76 128 40 42 104 83 160 103 62 22 154 16 330 -22z m89 30 c-3 -3 -12
-4 -19 -1 -8 3 -5 6 6 6 11 1 17 -2 13 -5z m50 -10 c-3 -3 -12 -4 -19 -1 -8 3
-5 6 6 6 11 1 17 -2 13 -5z m-657 -71 c-30 -32 -55 -60 -57 -62 -2 -2 -3 -1
-3 3 0 8 100 116 108 116 3 0 -19 -26 -48 -57z m770 32 c17 -9 30 -18 30 -21
0 -4 -59 23 -69 32 -10 9 13 3 39 -11z m65 -45 c10 -11 16 -20 13 -20 -3 0
-13 9 -23 20 -10 11 -16 20 -13 20 3 0 13 -9 23 -20z m60 -60 c10 -11 16 -20
13 -20 -3 0 -13 9 -23 20 -10 11 -16 20 -13 20 3 0 13 -9 23 -20z m-967 -25
c-6 -14 -13 -23 -15 -21 -5 5 15 46 22 46 3 0 -1 -11 -7 -25z m-24 -102 c-5
-5 -12 -12 -16 -18 -4 -6 -8 -2 -8 8 0 9 7 17 17 17 9 0 12 -3 7 -7z m53 -9
c-3 -3 -12 -4 -19 -1 -8 3 -5 6 6 6 11 1 17 -2 13 -5z m50 -10 c-3 -3 -12 -4
-19 -1 -8 3 -5 6 6 6 11 1 17 -2 13 -5z m90 -20 c-3 -3 -12 -4 -19 -1 -8 3 -5
6 6 6 11 1 17 -2 13 -5z m-220 -26 c-3 -8 -6 -5 -6 6 -1 11 2 17 5 13 3 -3 4
-12 1 -19z m270 16 c-3 -3 -12 -4 -19 -1 -8 3 -5 6 6 6 11 1 17 -2 13 -5z
m-172 -14 c19 -8 19 -9 -2 -9 -12 -1 -28 -4 -37 -7 -11 -4 -16 -1 -16 10 0 17
23 20 55 6z m222 4 c-3 -3 -12 -4 -19 -1 -8 3 -5 6 6 6 11 1 17 -2 13 -5z m40
-10 c-3 -3 -12 -4 -19 -1 -8 3 -5 6 6 6 11 1 17 -2 13 -5z m750 -31 c-3 -10
-5 -4 -5 12 0 17 2 24 5 18 2 -7 2 -21 0 -30z m-700 21 c-3 -3 -12 -4 -19 -1
-8 3 -5 6 6 6 11 1 17 -2 13 -5z m-92 -30 l80 -18 -63 -15 -63 -15 -37 38
c-28 28 -32 37 -17 33 11 -3 56 -14 100 -23z m142 20 c-3 -3 -12 -4 -19 -1 -8
3 -5 6 6 6 11 1 17 -2 13 -5z m-470 -26 c-3 -8 -6 -5 -6 6 -1 11 2 17 5 13 3
-3 4 -12 1 -19z m218 -39 c52 -53 52 -53 129 -33 23 5 26 3 26 -20 0 -14 -6
-26 -12 -26 -18 1 -125 28 -113 29 13 1 -65 81 -90 91 -14 6 -15 9 -5 9 9 1
38 -22 65 -50z m342 45 c-3 -3 -12 -4 -19 -1 -8 3 -5 6 6 6 11 1 17 -2 13 -5z
m-430 -10 c-3 -3 -12 -4 -19 -1 -8 3 -5 6 6 6 11 1 17 -2 13 -5z m480 0 c-3
-3 -12 -4 -19 -1 -8 3 -5 6 6 6 11 1 17 -2 13 -5z m-522 -30 c0 -23 -3 -25
-30 -19 -16 3 -55 9 -85 13 l-55 6 70 12 c102 17 100 17 100 -12z m572 20 c-3
-3 -12 -4 -19 -1 -8 3 -5 6 6 6 11 1 17 -2 13 -5z m40 -10 c-3 -3 -12 -4 -19
-1 -8 3 -5 6 6 6 11 1 17 -2 13 -5z m-137 -19 c19 -4 53 -11 75 -17 l40 -11
-35 -13 c-54 -19 -72 -16 -115 23 -26 23 -33 34 -20 30 11 -3 36 -8 55 -12z
m187 9 c-3 -3 -12 -4 -19 -1 -8 3 -5 6 6 6 11 1 17 -2 13 -5z m370 -46 c-2
-13 -4 -5 -4 17 -1 22 1 32 4 23 2 -10 2 -28 0 -40z m-320 36 c-3 -3 -12 -4
-19 -1 -8 3 -5 6 6 6 11 1 17 -2 13 -5z m-907 -8 c0 -2 -8 -10 -17 -17 -16
-13 -17 -12 -4 4 13 16 21 21 21 13z m576 -18 c19 -23 19 -23 -1 -7 -11 9 -27
19 -35 22 -13 5 -13 6 1 6 9 1 24 -9 35 -21z m371 16 c-3 -3 -12 -4 -19 -1 -8
3 -5 6 6 6 11 1 17 -2 13 -5z m-710 -10 c-3 -3 -12 -4 -19 -1 -8 3 -5 6 6 6
11 1 17 -2 13 -5z m280 0 c-3 -3 -12 -4 -19 -1 -8 3 -5 6 6 6 11 1 17 -2 13
-5z m480 0 c-3 -3 -12 -4 -19 -1 -8 3 -5 6 6 6 11 1 17 -2 13 -5z m50 -10 c-3
-3 -12 -4 -19 -1 -8 3 -5 6 6 6 11 1 17 -2 13 -5z m-410 -124 c312 -67 573
-126 580 -131 31 -26 23 -78 -15 -98 -13 -7 -178 24 -597 113 -601 128 -605
129 -605 178 0 22 34 58 55 58 8 0 270 -54 582 -120z m-310 114 c-3 -3 -12 -4
-19 -1 -8 3 -5 6 6 6 11 1 17 -2 13 -5z m361 -71 c26 -13 26 -13 2 -8 -14 2
-34 5 -45 6 -12 0 -15 3 -7 6 10 4 6 14 -15 37 l-28 31 33 -30 c18 -16 45 -35
60 -42z m262 52 c19 -4 53 -11 75 -17 l40 -11 -35 -13 c-54 -19 -72 -16 -115
22 -27 24 -33 34 -20 30 11 -2 36 -7 55 -11z m187 9 c-3 -3 -12 -4 -19 -1 -8
3 -5 6 6 6 11 1 17 -2 13 -5z m50 -10 c-3 -3 -12 -4 -19 -1 -8 3 -5 6 6 6 11
1 17 -2 13 -5z m-1230 -41 c-3 -10 -5 -4 -5 12 0 17 2 24 5 18 2 -7 2 -21 0
-30z m927 -7 c28 -25 65 -50 80 -56 43 -16 25 -22 -30 -10 -74 16 -76 17 -65
38 8 15 5 24 -12 40 -12 11 -31 22 -42 25 -18 4 -18 5 -2 6 11 0 42 -19 71
-43z m-367 28 c-3 -3 -12 -4 -19 -1 -8 3 -5 6 6 6 11 1 17 -2 13 -5z m50 -10
c-3 -3 -12 -4 -19 -1 -8 3 -5 6 6 6 11 1 17 -2 13 -5z m40 -10 c-3 -3 -12 -4
-19 -1 -8 3 -5 6 6 6 11 1 17 -2 13 -5z m540 -66 c34 -33 43 -38 43 -23 0 10
3 16 6 12 13 -13 -8 -47 -29 -46 -19 0 -19 1 -4 7 15 7 13 12 -20 44 -21 19
-45 38 -53 41 -13 5 -13 6 0 6 8 1 34 -18 57 -41z m60 20 c-3 -8 -6 -5 -6 6
-1 11 2 17 5 13 3 -3 4 -12 1 -19z m-410 6 c-3 -3 -12 -4 -19 -1 -8 3 -5 6 6
6 11 1 17 -2 13 -5z m50 -10 c-3 -3 -12 -4 -19 -1 -8 3 -5 6 6 6 11 1 17 -2
13 -5z m-856 -21 c13 -16 12 -17 -3 -4 -10 7 -18 15 -18 17 0 8 8 3 21 -13z
m54 -23 c13 -6 15 -9 5 -9 -8 0 -22 4 -30 9 -18 12 -2 12 25 0z m992 4 c-3 -3
-12 -4 -19 -1 -8 3 -5 6 6 6 11 1 17 -2 13 -5z m-930 -20 c-3 -3 -12 -4 -19
-1 -8 3 -5 6 6 6 11 1 17 -2 13 -5z m1020 0 c-3 -3 -12 -4 -19 -1 -8 3 -5 6 6
6 11 1 17 -2 13 -5z m-970 -10 c-3 -3 -12 -4 -19 -1 -8 3 -5 6 6 6 11 1 17 -2
13 -5z m-120 -26 c-3 -8 -6 -5 -6 6 -1 11 2 17 5 13 3 -3 4 -12 1 -19z m160
16 c-3 -3 -12 -4 -19 -1 -8 3 -5 6 6 6 11 1 17 -2 13 -5z m1045 -16 c13 -13
17 -18 8 -12 -8 6 -24 16 -35 22 -11 6 -15 12 -8 12 7 0 22 -10 35 -22z m-995
6 c-3 -3 -12 -4 -19 -1 -8 3 -5 6 6 6 11 1 17 -2 13 -5z m50 -10 c-3 -3 -12
-4 -19 -1 -8 3 -5 6 6 6 11 1 17 -2 13 -5z m302 -114 c261 -55 477 -103 480
-105 2 -3 0 -10 -6 -16 -8 -8 -121 13 -391 70 -210 45 -398 81 -418 81 -42 0
-88 -42 -99 -90 -4 -17 -11 -30 -16 -30 -12 0 -11 8 2 70 13 59 0 83 -51 94
-22 4 -28 10 -23 21 4 11 13 15 27 11 11 -3 234 -50 495 -106z m-572 78 c-3
-8 -6 -5 -6 6 -1 11 2 17 5 13 3 -3 4 -12 1 -19z m360 16 c-3 -3 -12 -4 -19
-1 -8 3 -5 6 6 6 11 1 17 -2 13 -5z m50 -10 c-3 -3 -12 -4 -19 -1 -8 3 -5 6 6
6 11 1 17 -2 13 -5z m50 -10 c-3 -3 -12 -4 -19 -1 -8 3 -5 6 6 6 11 1 17 -2
13 -5z m40 -10 c-3 -3 -12 -4 -19 -1 -8 3 -5 6 6 6 11 1 17 -2 13 -5z m50 -10
c-3 -3 -12 -4 -19 -1 -8 3 -5 6 6 6 11 1 17 -2 13 -5z m-560 -26 c-3 -8 -6 -5
-6 6 -1 11 2 17 5 13 3 -3 4 -12 1 -19z m610 16 c-3 -3 -12 -4 -19 -1 -8 3 -5
6 6 6 11 1 17 -2 13 -5z m660 -26 c-3 -7 -5 -2 -5 12 0 14 2 19 5 13 2 -7 2
-19 0 -25z m-1220 16 c-3 -3 -12 -4 -19 -1 -8 3 -5 6 6 6 11 1 17 -2 13 -5z
m650 -10 c-3 -3 -12 -4 -19 -1 -8 3 -5 6 6 6 11 1 17 -2 13 -5z m50 -10 c-3
-3 -12 -4 -19 -1 -8 3 -5 6 6 6 11 1 17 -2 13 -5z m50 -10 c-3 -3 -12 -4 -19
-1 -8 3 -5 6 6 6 11 1 17 -2 13 -5z m-810 -26 c-3 -8 -6 -5 -6 6 -1 11 2 17 5
13 3 -3 4 -12 1 -19z m100 0 c-3 -8 -6 -5 -6 6 -1 11 2 17 5 13 3 -3 4 -12 1
-19z m750 16 c-3 -3 -12 -4 -19 -1 -8 3 -5 6 6 6 11 1 17 -2 13 -5z m398 -32
l-28 -27 24 31 c13 17 26 30 28 27 3 -2 -8 -16 -24 -31z m-962 21 c-7 -2 -21
-2 -30 0 -10 3 -4 5 12 5 17 0 24 -2 18 -5z m614 1 c-3 -3 -12 -4 -19 -1 -8 3
-5 6 6 6 11 1 17 -2 13 -5z m-560 -10 c-3 -3 -12 -4 -19 -1 -8 3 -5 6 6 6 11
1 17 -2 13 -5z m610 0 c-3 -3 -12 -4 -19 -1 -8 3 -5 6 6 6 11 1 17 -2 13 -5z
m-560 -10 c-3 -3 -12 -4 -19 -1 -8 3 -5 6 6 6 11 1 17 -2 13 -5z m600 0 c-3
-3 -12 -4 -19 -1 -8 3 -5 6 6 6 11 1 17 -2 13 -5z m-1000 -56 c-2 -13 -4 -5
-4 17 -1 22 1 32 4 23 2 -10 2 -28 0 -40z m100 5 c-3 -10 -5 -2 -5 17 0 19 2
27 5 18 2 -10 2 -26 0 -35z m350 41 c-3 -3 -12 -4 -19 -1 -8 3 -5 6 6 6 11 1
17 -2 13 -5z m600 0 c-3 -3 -12 -4 -19 -1 -8 3 -5 6 6 6 11 1 17 -2 13 -5z
m-1000 -51 c-3 -10 -5 -2 -5 17 0 19 2 27 5 18 2 -10 2 -26 0 -35z m440 41
c-3 -3 -12 -4 -19 -1 -8 3 -5 6 6 6 11 1 17 -2 13 -5z m610 0 c-3 -3 -12 -4
-19 -1 -8 3 -5 6 6 6 11 1 17 -2 13 -5z m-434 -86 l389 -82 -6 -30 c-9 -44
-33 -75 -71 -93 -34 -16 -43 -14 -452 72 -355 76 -420 93 -442 113 l-26 24 29
-21 c34 -25 87 -27 121 -5 13 9 32 36 41 60 9 24 19 44 23 44 3 0 181 -37 394
-82z m-126 76 c-3 -3 -12 -4 -19 -1 -8 3 -5 6 6 6 11 1 17 -2 13 -5z m603 -4
c0 -5 -2 -10 -4 -10 -3 0 -8 5 -11 10 -3 6 -1 10 4 10 6 0 11 -4 11 -10z
m-553 -6 c-3 -3 -12 -4 -19 -1 -8 3 -5 6 6 6 11 1 17 -2 13 -5z m600 0 c-3 -3
-12 -4 -19 -1 -8 3 -5 6 6 6 11 1 17 -2 13 -5z m-560 -10 c-3 -3 -12 -4 -19
-1 -8 3 -5 6 6 6 11 1 17 -2 13 -5z m50 -10 c-3 -3 -12 -4 -19 -1 -8 3 -5 6 6
6 11 1 17 -2 13 -5z m-486 -27 c-10 -9 -11 -8 -5 6 3 10 9 15 12 12 3 -3 0
-11 -7 -18z m536 17 c-3 -3 -12 -4 -19 -1 -8 3 -5 6 6 6 11 1 17 -2 13 -5z
m400 -16 c-3 -8 -6 -5 -6 6 -1 11 2 17 5 13 3 -3 4 -12 1 -19z m-310 -4 c-3
-3 -12 -4 -19 -1 -8 3 -5 6 6 6 11 1 17 -2 13 -5z m-654 -11 c-7 -2 -19 -2
-25 0 -7 3 -2 5 12 5 14 0 19 -2 13 -5z m704 1 c-3 -3 -12 -4 -19 -1 -8 3 -5
6 6 6 11 1 17 -2 13 -5z m50 -10 c-3 -3 -12 -4 -19 -1 -8 3 -5 6 6 6 11 1 17
-2 13 -5z m194 -40 c-5 -21 -9 -31 -10 -21 -1 9 -8 17 -16 17 -12 0 -10 6 7
24 13 13 24 22 26 21 1 -1 -2 -20 -7 -41z m-154 30 c-3 -3 -12 -4 -19 -1 -8 3
-5 6 6 6 11 1 17 -2 13 -5z m50 -10 c-3 -3 -12 -4 -19 -1 -8 3 -5 6 6 6 11 1
17 -2 13 -5z m-922 -52 c11 -6 14 -12 8 -12 -7 0 -25 12 -41 28 -15 15 -19 20
-7 11 11 -9 29 -21 40 -27z m972 42 c-3 -3 -12 -4 -19 -1 -8 3 -5 6 6 6 11 1
17 -2 13 -5z m-880 -70 c-3 -3 -12 -4 -19 -1 -8 3 -5 6 6 6 11 1 17 -2 13 -5z
m920 -16 c-3 -8 -6 -5 -6 6 -1 11 2 17 5 13 3 -3 4 -12 1 -19z m-880 6 c-3 -3
-12 -4 -19 -1 -8 3 -5 6 6 6 11 1 17 -2 13 -5z m50 -10 c-3 -3 -12 -4 -19 -1
-8 3 -5 6 6 6 11 1 17 -2 13 -5z m50 -10 c-3 -3 -12 -4 -19 -1 -8 3 -5 6 6 6
11 1 17 -2 13 -5z m40 -10 c-3 -3 -12 -4 -19 -1 -8 3 -5 6 6 6 11 1 17 -2 13
-5z m50 -10 c-3 -3 -12 -4 -19 -1 -8 3 -5 6 6 6 11 1 17 -2 13 -5z m50 -10
c-3 -3 -12 -4 -19 -1 -8 3 -5 6 6 6 11 1 17 -2 13 -5z m90 -20 c-3 -3 -12 -4
-19 -1 -8 3 -5 6 6 6 11 1 17 -2 13 -5z m50 -10 c-3 -3 -12 -4 -19 -1 -8 3 -5
6 6 6 11 1 17 -2 13 -5z m473 3 c0 -2 -12 -14 -27 -28 l-28 -24 24 28 c23 25
31 32 31 24z m-423 -13 c-3 -3 -12 -4 -19 -1 -8 3 -5 6 6 6 11 1 17 -2 13 -5z
m40 -10 c-3 -3 -12 -4 -19 -1 -8 3 -5 6 6 6 11 1 17 -2 13 -5z m50 -10 c-3 -3
-12 -4 -19 -1 -8 3 -5 6 6 6 11 1 17 -2 13 -5z m50 -10 c-3 -3 -12 -4 -19 -1
-8 3 -5 6 6 6 11 1 17 -2 13 -5z m40 -10 c-3 -3 -12 -4 -19 -1 -8 3 -5 6 6 6
11 1 17 -2 13 -5z m50 -10 c-3 -3 -12 -4 -19 -1 -8 3 -5 6 6 6 11 1 17 -2 13
-5z m71 -11 c-10 -2 -26 -2 -35 0 -10 3 -2 5 17 5 19 0 27 -2 18 -5z"/>
<path d="M2479 4889 c-18 -19 -35 -29 -44 -25 -46 17 -89 -40 -67 -88 21 -46
95 -41 108 7 4 19 11 23 35 19 25 -4 29 -8 29 -37 0 -41 19 -57 62 -53 23 2
37 11 47 30 14 25 14 29 -5 55 -12 15 -31 29 -43 31 -16 3 -21 10 -21 32 0 29
-30 60 -58 60 -8 0 -27 -14 -43 -31z"/>
<path d="M2827 4822 c-10 -10 -17 -23 -17 -29 0 -5 -14 -8 -30 -5 -64 9 -97
-70 -44 -104 32 -21 74 -10 89 24 6 12 16 20 23 17 8 -3 19 -5 27 -5 7 0 13
-12 13 -27 0 -29 33 -63 62 -63 24 0 53 35 53 65 0 34 -20 55 -53 55 -24 0
-27 3 -22 25 10 53 -64 88 -101 47z m133 -127 c0 -8 -7 -15 -15 -15 -8 0 -15
7 -15 15 0 8 7 15 15 15 8 0 15 -7 15 -15z"/>
<path d="M6110 4006 c-86 -31 -281 -119 -346 -157 -141 -80 -234 -260 -220
-425 5 -63 21 -121 66 -230 12 -28 11 -34 -13 -70 -21 -29 -27 -51 -27 -89 0
-79 41 -127 127 -149 44 -11 45 -13 96 -116 47 -94 57 -108 101 -135 38 -23
60 -29 105 -30 51 0 89 14 436 169 209 92 396 180 415 195 90 70 102 175 35
319 l-38 83 26 27 c56 60 53 150 -6 210 -28 28 -45 36 -84 39 l-49 5 -44 92
c-69 142 -168 229 -309 272 -73 22 -195 18 -271 -10z m314 -110 c71 -34 146
-101 146 -129 0 -8 -830 -388 -909 -415 -15 -5 -25 39 -24 108 1 108 57 224
137 285 42 32 320 161 391 181 83 23 173 13 259 -30z m96 -273 c0 -3 -11 -21
-26 -40 -24 -31 -28 -33 -87 -32 l-62 1 80 38 c84 40 95 44 95 33z m282 -80
c26 -23 23 -69 -4 -87 -43 -28 -1060 -476 -1081 -476 -49 0 -75 65 -39 96 25
21 1062 483 1086 484 11 0 28 -7 38 -17z m-563 -68 c-34 -47 -56 -54 -117 -37
-19 6 -9 13 60 44 46 21 84 38 86 38 2 0 -11 -20 -29 -45z m-266 -120 c-39
-46 -54 -50 -117 -36 -26 5 -21 9 55 43 46 20 88 37 92 37 5 1 -9 -19 -30 -44z
m795 -41 c-2 -9 -142 -77 -376 -181 -318 -141 -375 -170 -387 -194 -17 -32
-20 -92 -5 -119 6 -11 6 -21 1 -24 -5 -3 -22 20 -37 52 -30 60 -37 63 -109 50
-12 -2 -20 3 -20 10 0 12 892 419 923 421 8 1 12 -6 10 -15z m-1038 -49 c-24
-26 -40 -32 -40 -15 0 8 45 38 59 40 3 0 -6 -11 -19 -25z m1107 -149 c-3 -23
-15 -49 -29 -62 -21 -21 -757 -354 -782 -354 -6 0 3 9 20 19 44 27 58 67 44
121 -6 23 -8 46 -3 51 4 4 170 80 368 168 l359 160 14 -32 c8 -18 11 -49 9
-71z"/>
<path d="M6134 3882 c-23 -15 -35 -51 -24 -72 9 -17 8 -20 -9 -20 -13 0 -27
-12 -37 -31 -15 -30 -15 -33 4 -58 27 -37 64 -39 91 -5 13 16 19 35 16 48 -8
29 33 57 47 32 15 -28 43 -37 77 -25 51 18 51 82 0 109 -15 8 -27 8 -48 -3
-27 -14 -30 -13 -40 9 -11 24 -52 33 -77 16z"/>
<path d="M5800 3728 c-14 -16 -20 -31 -16 -48 4 -20 -1 -29 -25 -42 -53 -31
-32 -108 30 -108 48 0 80 57 49 88 -9 9 -8 12 8 12 11 0 25 5 31 11 7 7 15 2
27 -15 32 -49 106 -24 106 36 0 14 -8 32 -18 41 -20 18 -67 23 -77 8 -3 -5
-16 1 -30 15 -30 30 -58 31 -85 2z"/>
<path d="M8680 2496 c-134 -38 -230 -121 -303 -263 -47 -92 -48 -93 -85 -93
-112 0 -182 -138 -118 -233 l24 -35 -44 -93 c-63 -136 -59 -223 15 -296 19
-19 169 -95 420 -212 l392 -183 64 4 c100 6 137 37 200 166 l50 102 43 0 c52
0 94 20 120 57 41 58 39 131 -4 182 l-24 29 31 68 c17 38 37 94 45 124 47 179
-30 386 -181 490 -47 33 -302 153 -384 181 -63 22 -191 24 -261 5z m285 -114
c334 -140 419 -212 455 -385 11 -56 7 -140 -9 -165 -5 -9 -140 50 -462 199
-250 117 -456 213 -458 215 -7 6 68 87 102 110 105 71 243 81 372 26z m-465
-243 c10 -6 3 -8 -22 -9 -28 0 -38 4 -38 16 0 16 25 13 60 -7z m215 -102 l50
-26 -62 -1 c-59 0 -62 1 -82 34 -12 18 -21 36 -21 40 0 8 47 -11 115 -47z
m130 -235 c558 -260 569 -267 543 -316 -14 -26 -28 -36 -51 -36 -26 0 -1070
488 -1084 507 -7 9 -13 25 -13 35 0 23 35 58 58 58 9 0 255 -112 547 -248z
m174 93 c2 -3 -7 -5 -21 -5 -14 0 -38 -2 -54 -5 -25 -5 -33 0 -56 34 -16 21
-28 42 -28 45 0 5 149 -60 159 -69z m182 -84 l84 -38 -53 -8 c-57 -8 -52 -11
-103 58 -11 15 -18 27 -16 27 2 0 42 -17 88 -39z m-451 -198 c487 -228 461
-215 451 -231 -6 -9 -101 31 -372 158 -407 190 -418 193 -473 138 -18 -18 -35
-40 -38 -48 -3 -8 -9 -12 -14 -7 -4 4 2 28 14 52 31 63 28 82 -13 106 -35 21
-41 30 -29 42 8 8 -4 13 474 -210z m-543 -5 c-3 -8 -6 -5 -6 6 -1 11 2 17 5
13 3 -3 4 -12 1 -19z m583 -153 c194 -91 356 -167 358 -170 3 -3 -2 -21 -11
-40 -21 -43 -68 -69 -116 -62 -47 6 -755 338 -787 368 -13 12 -24 26 -24 30 0
4 13 -6 29 -22 23 -22 39 -29 68 -29 43 1 59 11 92 58 12 17 26 32 30 32 4 0
166 -74 361 -165z"/>
<path d="M8853 2379 c-12 -4 -26 -16 -32 -26 -8 -14 -12 -16 -22 -5 -32 31
-99 -4 -99 -51 0 -54 73 -76 107 -33 18 23 20 23 42 7 14 -11 20 -23 15 -34
-8 -22 19 -63 46 -72 30 -10 70 20 70 51 0 35 -17 64 -39 64 -14 0 -17 6 -13
29 8 54 -28 87 -75 70z"/>
<path d="M9154 2215 c-20 -20 -29 -23 -39 -15 -21 17 -56 8 -77 -21 -38 -51
17 -108 78 -80 13 6 24 18 24 26 0 14 3 14 25 -1 18 -12 25 -25 25 -50 0 -68
91 -86 113 -21 11 33 -13 77 -41 77 -14 0 -17 7 -14 33 7 63 -50 96 -94 52z"/>
<path d="M725 1966 c-104 -26 -153 -60 -305 -216 -80 -81 -159 -172 -177 -202
-80 -133 -83 -324 -6 -458 14 -25 57 -77 95 -116 l70 -72 -12 -37 c-31 -95 42
-195 145 -195 20 0 44 4 54 10 15 7 34 -5 103 -69 49 -45 102 -84 123 -91 54
-18 134 -8 176 21 43 29 584 587 618 636 15 23 25 55 28 93 7 78 -17 128 -108
215 -67 65 -70 69 -59 98 37 108 -32 207 -145 207 -27 0 -56 -4 -64 -9 -11 -7
-32 6 -78 48 -88 79 -157 119 -239 136 -82 17 -151 18 -219 1z m225 -96 c19
-6 52 -20 73 -33 l39 -23 -353 -366 c-347 -360 -353 -365 -370 -344 -74 95
-86 254 -28 374 28 57 255 301 322 345 94 63 200 78 317 47z m426 -196 c13
-19 15 -32 8 -49 -5 -13 -193 -213 -417 -444 -284 -293 -415 -421 -429 -421
-31 0 -58 29 -58 61 0 22 72 102 411 453 354 366 415 426 440 426 20 0 34 -8
45 -26z m-326 -56 c-11 -41 -16 -47 -52 -57 -22 -7 -47 -15 -57 -18 -9 -3 13
24 48 60 36 37 66 65 68 63 2 -2 -1 -24 -7 -48z m355 -155 c0 -5 -125 -139
-278 -297 -153 -158 -282 -299 -288 -313 -13 -35 -3 -77 28 -114 39 -46 19
-47 -32 0 -24 22 -51 41 -59 41 -8 0 -28 -12 -45 -26 -26 -21 -32 -23 -37 -10
-4 11 100 124 343 376 191 198 353 358 358 357 6 -2 10 -8 10 -14z m-555 -54
c-11 -42 -13 -45 -67 -61 l-56 -16 64 64 c34 35 64 62 66 60 2 -2 -1 -23 -7
-47z m685 -76 c34 -72 31 -77 -296 -414 -166 -170 -304 -309 -309 -309 -4 0 5
14 21 31 37 40 38 83 3 134 -14 21 -23 43 -21 49 3 6 127 138 277 294 257 266
274 281 291 266 10 -9 25 -32 34 -51z m-887 -123 c-16 -50 -25 -61 -46 -66
-15 -3 -36 -8 -47 -11 -20 -6 -20 -6 0 18 23 28 108 119 111 119 2 0 -6 -27
-18 -60z m-189 -180 c-11 -30 -20 -36 -32 -23 -6 5 30 53 39 53 2 0 -2 -13 -7
-30z m346 -390 c10 -11 16 -20 13 -20 -3 0 -13 9 -23 20 -10 11 -16 20 -13 20
3 0 13 -9 23 -20z m93 -37 c-10 -2 -26 -2 -35 0 -10 3 -2 5 17 5 19 0 27 -2
18 -5z"/>
<path d="M722 1788 c-7 -7 -12 -19 -12 -27 0 -10 -3 -12 -8 -5 -4 6 -18 17
-31 24 -48 25 -103 -49 -67 -89 15 -16 15 -19 -4 -36 -26 -24 -25 -59 2 -85
26 -24 46 -25 76 -4 25 17 30 65 8 83 -12 10 -10 16 8 36 18 21 23 22 37 9 23
-21 52 -17 77 9 26 28 27 45 6 75 -17 25 -71 31 -92 10z"/>
<path d="M494 1539 c-12 -4 -24 -15 -28 -24 -5 -15 -7 -15 -22 -1 -16 17 -51
21 -70 8 -6 -4 -17 -18 -24 -31 -10 -20 -9 -27 7 -49 19 -25 19 -25 -5 -49
-23 -24 -23 -51 0 -80 13 -16 52 -17 79 -3 21 12 27 68 8 87 -8 8 -6 16 9 31
17 17 22 18 46 5 24 -13 30 -12 52 1 63 42 19 132 -52 105z"/>
<path d="M4330 1593 c-46 -4 -141 -30 -195 -53 -43 -18 -43 -18 -62 2 -24 27
-74 48 -115 48 -71 -1 -148 -74 -148 -141 0 -23 -9 -29 -99 -63 -120 -46 -164
-84 -187 -164 -13 -43 -14 -62 -5 -98 19 -75 299 -793 322 -826 12 -17 46 -42
77 -55 68 -32 115 -28 235 17 87 33 88 33 102 13 20 -29 76 -53 122 -53 72 0
143 68 143 138 0 26 5 35 28 44 120 48 193 90 239 136 116 116 166 285 129
432 -21 80 -98 282 -142 372 -81 162 -265 266 -444 251z m-3 -49 c-3 -3 -12
-4 -19 -1 -8 3 -5 6 6 6 11 1 17 -2 13 -5z m-102 -24 c-3 -5 -14 -10 -23 -9
-14 0 -13 2 3 9 27 11 27 11 20 0z m-352 -35 c-3 -9 -8 -14 -10 -11 -3 3 -2 9
2 15 9 16 15 13 8 -4z m125 -3 c9 -9 111 -261 226 -560 153 -400 206 -549 202
-568 -8 -32 -48 -51 -79 -37 -19 9 -59 106 -231 553 -115 299 -211 550 -213
559 -6 23 34 71 58 71 10 0 27 -8 37 -18z m523 -19 c122 -58 160 -114 259
-378 46 -123 53 -149 53 -215 0 -120 -47 -218 -139 -291 -20 -16 -42 -29 -48
-29 -6 0 -91 210 -190 466 -142 372 -175 468 -165 476 8 5 48 7 90 5 58 -3 90
-10 140 -34z m-381 -60 c36 -37 51 -55 34 -40 -31 28 -60 29 -66 1 -2 -8 -13
12 -25 46 -12 33 -18 60 -15 60 4 0 37 -30 72 -67z m495 47 c10 -11 16 -20 13
-20 -3 0 -13 9 -23 20 -10 11 -16 20 -13 20 3 0 13 -9 23 -20z m-436 -22 l11
-32 -25 24 c-13 12 -22 27 -19 31 10 17 22 9 33 -23z m502 -45 c13 -16 12 -17
-3 -4 -17 13 -22 21 -14 21 2 0 10 -8 17 -17z m-938 -29 c-7 -3 -9 -13 -6 -22
6 -14 5 -15 -9 -2 -16 15 -7 31 17 29 6 0 5 -3 -2 -5z m258 -498 c137 -356
177 -471 168 -480 -7 -7 -13 -7 -16 -1 -2 6 -70 181 -151 390 l-147 380 -39
19 c-32 16 -46 17 -83 9 -56 -13 -53 3 5 26 65 26 79 44 64 84 -16 43 -15 49
4 45 10 -2 73 -153 195 -472z m286 278 c-2 -2 -22 15 -44 39 l-42 42 12 48 11
49 33 -87 c18 -49 32 -89 30 -91z m-697 142 c0 -2 -8 -10 -17 -17 -16 -13 -17
-12 -4 4 13 16 21 21 21 13z m633 -146 c34 -35 47 -51 29 -35 -30 27 -33 28
-49 12 -16 -16 -18 -13 -39 41 -12 31 -19 64 -15 72 4 12 6 10 9 -5 2 -11 32
-49 65 -85z m-574 -44 c35 -19 64 -20 93 -5 15 8 23 8 31 0 6 -6 75 -177 153
-379 l141 -367 -36 -13 c-42 -15 -86 -9 -119 16 -16 13 -65 128 -172 406 -83
214 -150 396 -150 405 1 9 7 2 15 -16 7 -17 27 -39 44 -47z m11 49 c14 -19 14
-19 -2 -6 -10 7 -18 18 -18 24 0 6 1 8 3 6 1 -2 9 -13 17 -24z m699 -176 c17
-45 30 -83 28 -85 -2 -2 -21 11 -41 28 -37 32 -37 34 -30 86 3 28 8 52 9 52 2
0 17 -37 34 -81z m-92 -11 c-3 -8 -6 -5 -6 6 -1 11 2 17 5 13 3 -3 4 -12 1
-19z m3 -53 c0 -5 -5 -3 -10 5 -5 8 -10 20 -10 25 0 6 5 3 10 -5 5 -8 10 -19
10 -25z m40 -20 c13 -14 21 -25 18 -25 -2 0 -15 11 -28 25 -13 14 -21 25 -18
25 2 0 15 -11 28 -25z m55 -45 c10 -11 16 -20 13 -20 -3 0 -13 9 -23 20 -10
11 -16 20 -13 20 3 0 13 -9 23 -20z m103 -152 c16 -43 27 -78 23 -78 -3 1 -22
15 -43 33 -35 31 -36 34 -31 85 3 29 9 50 13 45 5 -4 22 -43 38 -85z m-95 27
c-5 -45 -2 -59 13 -77 12 -14 13 -18 3 -10 -9 6 -18 10 -20 8 -2 -3 -14 21
-26 53 -20 56 -20 58 -2 54 11 -3 21 1 25 11 11 28 13 17 7 -39z m417 -79 c0
-2 -8 -10 -17 -17 -16 -13 -17 -12 -4 4 13 16 21 21 21 13z m-349 -43 c13 -16
12 -17 -3 -4 -10 7 -18 15 -18 17 0 8 8 3 21 -13z m309 -7 c0 -2 -17 -16 -37
-31 l-38 -26 35 30 c34 31 40 35 40 27z m-293 -198 c-3 -8 -6 -5 -6 6 -1 11 2
17 5 13 3 -3 4 -12 1 -19z m-320 -70 c-19 -12 -22 -10 -23 16 -2 22 -1 23 17
8 14 -12 15 -18 6 -24z m303 -2 c0 -2 -8 -10 -17 -17 -16 -13 -17 -12 -4 4 13
16 21 21 21 13z m-437 -43 c-7 -2 -19 -2 -25 0 -7 3 -2 5 12 5 14 0 19 -2 13
-5z m370 0 c-7 -2 -21 -2 -30 0 -10 3 -4 5 12 5 17 0 24 -2 18 -5z"/>
<path d="M4467 1382 c-39 -43 -5 -108 52 -100 25 4 30 1 34 -21 4 -18 -2 -30
-19 -44 -29 -23 -31 -60 -4 -87 25 -25 62 -26 83 -2 19 21 22 63 6 79 -8 8 -6
13 9 17 30 10 47 58 30 85 -14 24 -49 37 -73 27 -9 -3 -15 0 -15 9 0 23 -37
55 -63 55 -13 0 -31 -8 -40 -18z"/>
<path d="M4612 1059 c-12 -5 -26 -19 -31 -31 -16 -45 10 -82 58 -80 43 1 57
-37 25 -65 -29 -26 -31 -64 -6 -86 51 -47 129 15 93 72 -7 10 -2 20 15 33 46
37 18 114 -38 106 -16 -2 -28 5 -39 23 -20 30 -45 40 -77 28z m99 -224 c-1
-15 -24 -12 -29 3 -3 9 2 13 12 10 10 -1 17 -7 17 -13z"/>
<path d="M5670 213 c-68 -13 -177 -78 -240 -142 l-65 -66 58 -3 c53 -3 61 0
95 29 20 18 66 46 102 63 99 47 177 43 395 -18 94 -26 180 -54 192 -62 14 -9
49 -14 95 -14 l72 0 -28 29 c-47 49 -136 89 -307 137 -161 45 -296 62 -369 47z"/>
<path d="M5747 82 c-10 -10 -17 -24 -17 -30 0 -8 -7 -9 -26 -2 -29 12 -58 0
-74 -30 -10 -19 -7 -20 122 -19 73 1 124 4 112 6 -16 3 -20 10 -17 28 10 50
-65 86 -100 47z"/>
<path d="M6118 3 c6 -2 18 -2 25 0 6 3 1 5 -13 5 -14 0 -19 -2 -12 -5z"/>
</g>
</svg>
