<?xml version="1.0" standalone="no"?>
<!DOCTYPE svg PUBLIC "-//W3C//DTD SVG 20010904//EN"
 "http://www.w3.org/TR/2001/REC-SVG-20010904/DTD/svg10.dtd">
<svg version="1.0" xmlns="http://www.w3.org/2000/svg"
 width="996.000000pt" height="862.000000pt" viewBox="0 0 996.000000 862.000000"
 preserveAspectRatio="xMidYMid meet">

<g transform="translate(0.000000,862.000000) scale(0.100000,-0.100000)"
fill="#b665db" stroke="none">
<path d="M1834 8304 c-16 -8 -258 -243 -536 -522 -545 -545 -536 -535 -507
-607 7 -17 11 -34 10 -39 -3 -14 181 -196 192 -189 5 3 104 -89 221 -205 116
-115 221 -213 234 -217 61 -18 67 -13 594 513 279 279 515 522 524 540 31 66
21 80 -206 307 -116 116 -208 215 -206 221 5 13 -176 196 -190 193 -5 -1 -22
3 -37 9 -37 16 -55 15 -93 -4z m393 -336 c291 -291 313 -315 313 -348 0 -33
-31 -66 -513 -547 -481 -482 -514 -513 -547 -513 -33 0 -57 22 -348 313 -362
362 -348 340 -261 433 29 30 56 54 62 54 5 0 43 -20 84 -45 131 -80 85 -108
480 288 396 395 368 349 288 480 -25 41 -45 79 -45 84 0 6 24 33 54 62 93 87
71 101 433 -261z m-462 83 c36 -63 44 -84 36 -98 -13 -24 -654 -663 -665 -663
-9 0 -68 33 -140 78 l-39 24 373 373 c206 206 377 372 381 369 4 -2 28 -40 54
-83z"/>
<path d="M1526 7571 c-445 -445 -508 -512 -503 -532 9 -33 428 -449 452 -449
27 0 1035 1008 1035 1035 0 27 -429 455 -455 455 -13 0 -200 -180 -529 -509z
m736 272 c115 -114 208 -212 208 -218 0 -13 -982 -995 -995 -995 -6 0 -105 95
-220 210 l-210 210 500 500 c275 275 502 500 505 500 3 0 98 -93 212 -207z"/>
<path d="M1936 7770 c-52 -16 -96 -73 -96 -125 0 -145 201 -187 255 -53 30 76
-8 157 -83 178 -42 11 -37 11 -76 0z m44 -45 c0 -18 26 -20 33 -2 3 8 12 5 28
-12 17 -16 20 -25 12 -28 -18 -7 -16 -33 3 -33 11 0 14 -8 12 -27 -2 -20 -9
-28 -23 -28 -12 0 -20 -7 -20 -18 0 -19 -21 -37 -42 -37 -7 0 -13 6 -13 14 0
23 -22 31 -32 12 -9 -16 -12 -16 -34 5 -21 20 -22 23 -7 34 18 13 10 35 -13
35 -17 0 -17 1 -4 35 8 22 13 25 24 16 16 -13 32 2 21 19 -10 16 4 30 31 30
15 0 24 -6 24 -15z"/>
<path d="M1647 7452 l-147 -147 58 -58 57 -57 148 148 147 147 -58 58 -57 57
-148 -148z m188 68 l29 -31 -127 -126 -126 -127 -31 29 c-16 16 -30 33 -30 39
0 6 23 34 52 63 l52 53 23 -22 c18 -17 26 -19 35 -10 10 10 7 17 -10 34 l-22
22 52 53 c29 29 57 53 63 53 6 0 24 -14 40 -30z"/>
<path d="M1786 7521 c-8 -12 21 -34 34 -26 8 5 8 11 -1 21 -13 16 -25 18 -33
5z"/>
<path d="M1755 7491 c-10 -17 15 -45 29 -31 7 7 5 15 -6 26 -11 11 -18 13 -23
5z"/>
<path d="M1715 7450 c-4 -6 -1 -17 5 -26 10 -11 16 -12 26 -3 11 9 11 15 3 25
-14 17 -25 18 -34 4z"/>
<path d="M1645 7380 c-4 -6 -1 -17 5 -26 10 -11 16 -12 26 -3 11 9 11 15 3 25
-14 17 -25 18 -34 4z"/>
<path d="M1606 7341 c-8 -12 21 -34 34 -26 8 5 8 11 -1 21 -13 16 -25 18 -33
5z"/>
<path d="M1575 7311 c-10 -17 15 -45 29 -31 7 7 5 15 -6 26 -11 11 -18 13 -23
5z"/>
<path d="M1395 7242 c-39 -24 -54 -43 -65 -83 -13 -46 4 -102 40 -133 87 -73
220 -12 220 100 0 101 -111 167 -195 116z m65 -26 c0 -23 22 -31 35 -13 11 15
14 14 34 -7 21 -22 21 -25 5 -34 -19 -10 -11 -32 12 -32 8 0 14 -6 14 -12 0
-22 -18 -43 -37 -43 -11 0 -18 -8 -18 -20 0 -14 -8 -21 -27 -23 -20 -2 -28 1
-28 12 0 19 -26 21 -33 4 -3 -9 -12 -6 -28 11 -17 16 -20 25 -11 28 17 7 15
33 -3 33 -16 0 -20 27 -6 49 5 7 14 10 20 7 18 -12 34 4 20 20 -9 11 -6 16 12
23 33 14 39 13 39 -3z"/>
<path d="M1630 8036 c-6 -8 -10 -25 -8 -38 4 -30 46 -38 65 -12 17 23 16 29
-3 48 -19 20 -38 20 -54 2z"/>
<path d="M1524 7873 c-5 -19 -2 -30 11 -40 11 -7 22 -13 25 -13 3 0 14 6 25
13 13 10 16 21 11 40 -5 22 -12 27 -36 27 -24 0 -31 -5 -36 -27z"/>
<path d="M1213 7573 c-19 -7 -16 -60 3 -67 27 -11 43 -7 54 14 21 38 -14 71
-57 53z"/>
<path d="M1061 7466 c-7 -8 -10 -24 -6 -35 14 -45 79 -30 73 17 -2 21 -9 28
-29 30 -14 2 -31 -4 -38 -12z"/>
<path d="M8827 6860 c-147 -37 -269 -64 -272 -60 -3 4 -60 -6 -127 -23 -115
-28 -126 -33 -165 -73 -30 -30 -43 -51 -43 -71 0 -15 77 -341 172 -723 165
-667 173 -696 204 -727 22 -23 41 -33 63 -33 17 0 31 -4 31 -9 0 -12 242 49
255 64 6 6 136 43 290 81 256 63 283 72 313 100 24 24 32 41 32 65 -1 19 -79
347 -174 729 -168 671 -175 695 -205 722 -23 21 -41 28 -69 27 -20 0 -157 -31
-305 -69z m357 10 c25 -24 368 -1404 356 -1435 -4 -11 -14 -26 -22 -32 -16
-14 -811 -215 -851 -216 -41 -1 -66 31 -86 111 l-19 71 42 24 c22 14 60 34 82
45 57 29 74 48 74 83 0 16 -50 228 -110 472 -88 350 -115 446 -131 460 -17 14
-41 17 -125 17 l-103 0 -11 43 c-6 23 -15 57 -20 75 -9 36 -1 70 22 89 20 17
839 222 863 216 11 -3 28 -13 39 -23z m-686 -443 c16 -19 234 -896 227 -916
-5 -15 -162 -107 -171 -99 -3 4 -254 1013 -254 1024 0 2 42 4 94 4 64 0 97 -4
104 -13z"/>
<path d="M8816 6787 c-198 -51 -282 -77 -290 -89 -8 -13 27 -171 153 -680 90
-364 168 -677 173 -695 6 -24 16 -35 36 -40 30 -7 561 119 600 143 12 8 22 23
22 33 0 35 -332 1356 -346 1379 -10 14 -24 22 -42 21 -15 0 -153 -33 -306 -72z
m320 31 c4 -6 83 -313 175 -682 135 -540 166 -673 155 -681 -18 -13 -565 -149
-573 -142 -11 11 -341 1362 -335 1369 5 5 533 143 564 147 4 1 10 -4 14 -11z"/>
<path d="M8793 6520 c-88 -53 -82 -190 10 -233 43 -21 67 -21 111 -3 47 19 78
67 78 121 2 103 -111 169 -199 115z m77 -30 c0 -22 26 -28 33 -7 3 8 10 7 26
-7 25 -22 27 -36 6 -36 -9 0 -12 -6 -9 -15 4 -8 12 -15 20 -15 15 0 18 -18 8
-44 -5 -12 -10 -14 -19 -6 -15 12 -37 -10 -33 -31 2 -9 -8 -15 -24 -17 -22 -3
-27 0 -22 12 8 20 -32 23 -40 4 -3 -9 -12 -5 -27 12 -18 21 -19 25 -5 28 23 5
20 23 -5 29 -15 4 -19 11 -15 27 3 11 6 24 6 28 0 4 10 7 23 5 15 -1 22 3 22
16 0 19 21 37 43 37 6 0 12 -9 12 -20z"/>
<path d="M8870 6251 c-50 -14 -65 -21 -63 -35 0 -10 22 -102 48 -206 l47 -187
79 20 c43 11 79 25 79 31 0 6 -21 98 -47 204 -36 147 -51 192 -63 191 -8 0
-44 -9 -80 -18z m109 -187 c23 -91 39 -169 36 -175 -10 -15 -35 -11 -29 5 7
18 -7 26 -34 20 -23 -7 -20 -30 6 -37 10 -3 7 -5 -9 -6 -23 -1 -26 4 -42 71
-19 75 -15 87 26 88 10 0 17 8 17 20 0 11 -1 20 -3 20 -1 0 -17 -4 -35 -9 -30
-9 -32 -8 -38 17 -3 15 -12 51 -19 80 -7 28 -10 52 -5 52 4 0 10 -9 13 -19 7
-29 47 -16 47 15 0 14 6 24 14 24 9 0 26 -52 55 -166z m-82 150 c-3 -3 -12 -4
-19 -1 -8 3 -5 6 6 6 11 1 17 -2 13 -5z"/>
<path d="M8892 6162 c-16 -3 -22 -8 -18 -19 3 -8 6 -16 6 -17 0 -2 11 -1 25 2
14 2 25 7 25 11 -1 16 -17 26 -38 23z"/>
<path d="M8908 6113 c-10 -3 -18 -13 -18 -22 0 -14 6 -17 25 -13 14 2 25 10
25 18 0 16 -10 22 -32 17z"/>
<path d="M8928 6013 c-28 -7 -22 -33 7 -33 18 0 25 5 25 20 0 20 -2 21 -32 13z"/>
<path d="M8938 5963 c-22 -5 -23 -22 -3 -29 23 -9 45 3 39 21 -6 16 -7 16 -36
8z"/>
<path d="M8964 5811 c-40 -24 -67 -89 -58 -138 9 -45 62 -99 105 -105 145 -22
220 167 96 242 -41 25 -103 25 -143 1z m80 -25 c-3 -7 2 -16 11 -20 9 -3 18 1
22 10 5 13 9 12 29 -7 21 -20 22 -23 7 -34 -18 -13 -10 -35 13 -35 17 0 18
-14 3 -41 -8 -16 -14 -18 -24 -9 -16 13 -30 -3 -22 -25 3 -7 -1 -16 -9 -19
-26 -10 -44 -7 -44 8 0 8 -7 16 -15 20 -9 3 -15 0 -15 -9 0 -21 -14 -19 -36 6
-14 16 -15 23 -6 26 6 3 12 14 12 25 0 14 -5 18 -16 14 -12 -5 -15 0 -12 22 2
21 8 27 28 27 19 0 25 5 23 20 -2 22 13 35 39 35 11 0 15 -5 12 -14z"/>
<path d="M8351 6346 c-26 -32 13 -76 53 -60 12 5 16 16 14 38 -2 25 -8 32 -29
34 -14 2 -31 -4 -38 -12z"/>
<path d="M8432 6198 c-30 -30 -1 -83 38 -70 32 11 39 42 14 66 -19 19 -36 20
-52 4z"/>
<path d="M8534 5736 c-12 -49 43 -76 70 -33 15 24 -3 51 -37 55 -21 3 -28 -2
-33 -22z"/>
<path d="M8552 5581 c-8 -5 -12 -21 -10 -37 2 -23 9 -30 29 -32 36 -4 55 21
41 53 -12 25 -36 32 -60 16z"/>
<path d="M3919 5521 c-15 -12 -82 -122 -150 -246 -68 -124 -128 -225 -134
-225 -5 0 -33 -42 -61 -93 -63 -115 -70 -170 -27 -216 35 -37 1106 -631 1151
-638 24 -4 41 0 62 16 16 11 33 21 37 21 11 0 113 186 113 205 0 9 56 118 125
243 74 135 125 238 125 254 0 16 -11 40 -27 57 -37 39 -1107 631 -1153 638
-26 4 -42 -1 -61 -16z m626 -315 c297 -164 550 -308 563 -319 12 -11 22 -32
22 -45 0 -24 -319 -615 -367 -679 -16 -22 -32 -33 -50 -33 -25 0 -143 57 -143
69 0 3 9 40 20 81 24 93 25 113 3 133 -34 30 -725 407 -747 407 -13 0 -47 -26
-90 -69 l-68 -69 -62 35 c-67 38 -76 47 -76 82 0 23 320 615 368 679 20 28 30
33 56 30 17 -2 274 -138 571 -302z m-331 -608 c188 -104 349 -196 358 -206 17
-16 16 -21 -4 -97 -12 -44 -23 -81 -24 -83 -3 -5 -824 452 -824 458 0 3 27 33
59 67 44 46 64 61 77 56 9 -3 170 -91 358 -195z"/>
<path d="M3947 5462 c-9 -10 -71 -116 -137 -236 -83 -150 -120 -227 -118 -244
3 -23 69 -62 548 -328 300 -167 555 -303 567 -303 28 -1 35 11 182 277 72 130
110 209 106 221 -5 16 -1098 631 -1122 631 -6 0 -17 -8 -26 -18z m579 -313
c299 -166 544 -306 544 -311 0 -12 -238 -440 -253 -455 -9 -9 -134 56 -551
287 -296 164 -543 303 -548 308 -11 11 240 472 256 472 4 0 253 -136 552 -301z"/>
<path d="M4007 5110 c-60 -48 -57 -152 6 -190 51 -32 103 -26 143 14 29 29 34
40 34 83 -1 50 -17 80 -57 102 -34 18 -97 13 -126 -9z m95 -23 c-2 -14 3 -17
24 -15 20 2 28 -3 35 -19 6 -17 5 -23 -6 -23 -19 0 -19 -16 0 -24 12 -4 13
-10 3 -30 -9 -20 -16 -24 -35 -20 -18 5 -22 3 -18 -9 7 -17 -18 -29 -41 -20
-8 3 -13 11 -10 18 3 8 -2 16 -10 19 -8 3 -14 1 -14 -4 0 -18 -19 -10 -31 12
-9 16 -9 23 0 26 6 2 11 10 11 17 0 7 -5 15 -11 17 -9 3 -9 10 0 26 8 16 18
21 30 17 13 -4 20 1 24 16 7 27 54 24 49 -4z"/>
<path d="M4195 4943 c-16 -31 -31 -60 -33 -64 -3 -7 300 -179 316 -179 5 0 23
27 41 59 l32 60 -43 24 c-54 31 -280 157 -282 157 0 0 -14 -26 -31 -57z m179
-55 c72 -39 133 -73 135 -74 5 -5 -30 -84 -37 -84 -4 0 -112 59 -121 67 -2 1
1 14 7 28 8 17 8 26 1 31 -10 6 -24 -7 -32 -31 -4 -11 -69 16 -105 44 -23 17
-23 18 -6 54 10 20 20 37 23 37 2 0 63 -32 135 -72z"/>
<path d="M4221 4912 c-8 -15 -7 -21 3 -25 17 -7 31 22 17 36 -6 6 -13 2 -20
-11z"/>
<path d="M4257 4885 c-8 -19 13 -31 24 -14 13 20 11 29 -5 29 -8 0 -16 -7 -19
-15z"/>
<path d="M4297 4865 c-8 -19 13 -31 24 -14 13 20 11 29 -5 29 -8 0 -16 -7 -19
-15z"/>
<path d="M4382 4828 c-16 -16 -15 -28 2 -28 16 0 29 27 17 34 -4 3 -13 0 -19
-6z"/>
<path d="M4422 4808 c-16 -16 -15 -28 2 -28 16 0 29 27 17 34 -4 3 -13 0 -19
-6z"/>
<path d="M4457 4776 c-3 -8 -3 -17 0 -20 7 -7 33 13 33 25 0 15 -27 10 -33 -5z"/>
<path d="M4588 4804 c-35 -18 -58 -62 -58 -110 0 -53 53 -104 109 -104 52 0
84 15 104 50 61 103 -51 221 -155 164z m79 -28 c-7 -17 19 -30 29 -15 4 6 11
6 20 -2 16 -13 19 -39 4 -39 -14 0 -13 -27 1 -32 7 -2 9 -13 5 -26 -6 -18 -12
-21 -32 -16 -21 5 -25 3 -22 -12 2 -14 -4 -20 -24 -22 -23 -3 -28 1 -28 17 0
23 -10 27 -28 9 -8 -8 -14 -4 -23 16 -11 23 -10 29 2 37 11 8 11 12 2 16 -16
6 -17 35 -1 51 9 9 15 9 25 0 11 -9 15 -7 20 10 4 15 13 22 30 22 18 0 23 -4
20 -14z"/>
<path d="M3820 4676 c-27 -33 18 -72 48 -42 13 13 14 20 6 34 -15 23 -38 26
-54 8z"/>
<path d="M3967 4634 c-4 -4 -7 -18 -7 -31 0 -19 5 -23 31 -23 27 0 30 3 27 28
-3 26 -34 43 -51 26z"/>
<path d="M4326 4434 c-9 -8 -16 -18 -16 -22 1 -38 63 -42 68 -5 4 30 -31 49
-52 27z"/>
<path d="M4440 4335 c-19 -23 -8 -50 22 -53 34 -4 50 34 22 55 -23 17 -29 16
-44 -2z"/>
<path d="M6375 2625 c-346 -184 -640 -346 -652 -360 -46 -52 -36 -83 112 -362
75 -139 133 -258 130 -262 -6 -11 116 -241 128 -241 5 0 20 -9 34 -20 58 -46
58 -46 732 312 344 183 636 342 650 354 19 16 26 35 31 80 7 58 6 61 -52 171
-32 61 -65 113 -72 116 -7 3 -71 115 -142 249 -70 133 -140 255 -155 271 -58
58 -48 62 -744 -308z m714 288 c25 -22 421 -764 421 -790 0 -32 -25 -57 -94
-93 l-66 -35 -71 78 c-60 65 -76 77 -102 77 -41 0 -833 -418 -861 -454 -19
-24 -18 -26 3 -113 12 -48 24 -95 27 -104 3 -12 -14 -26 -65 -53 -77 -40 -100
-44 -130 -18 -25 21 -421 764 -421 790 0 11 8 29 18 41 22 26 1270 690 1298
691 12 0 31 -8 43 -17z m160 -860 c34 -37 61 -70 61 -74 0 -3 -208 -116 -462
-251 -304 -162 -465 -242 -469 -235 -17 32 -42 169 -33 183 11 18 802 442 826
443 9 1 44 -29 77 -66z"/>
<path d="M6407 2565 c-335 -178 -615 -329 -623 -336 -8 -6 -14 -22 -14 -36 0
-23 248 -500 278 -535 8 -10 26 -18 39 -18 20 0 1225 632 1260 662 7 6 13 20
13 32 0 20 -253 508 -280 541 -7 8 -24 15 -39 15 -14 -1 -296 -145 -634 -325z
m786 30 c112 -209 136 -260 125 -270 -7 -7 -287 -157 -621 -335 -510 -270
-611 -320 -622 -309 -7 8 -72 126 -145 262 -91 171 -129 252 -122 259 18 18
1227 658 1237 655 6 -2 72 -120 148 -262z"/>
<path d="M6870 2503 c-28 -10 -69 -56 -80 -89 -27 -81 43 -174 132 -174 65 0
128 67 128 136 0 92 -94 158 -180 127z m75 -45 c0 -24 12 -33 28 -19 11 8 17
8 24 -1 19 -25 23 -48 8 -48 -18 0 -20 -27 -3 -32 10 -4 10 -10 0 -32 -10 -23
-15 -26 -27 -16 -17 14 -38 3 -31 -16 4 -10 -4 -14 -28 -14 -30 0 -33 3 -29
21 5 19 3 21 -20 15 -20 -5 -29 -2 -37 13 -13 26 -13 31 5 31 20 0 19 38 0 42
-14 3 -14 6 1 26 11 16 19 20 28 13 13 -11 38 0 35 15 -3 20 2 25 24 22 13 -2
22 -10 22 -20z"/>
<path d="M6566 2265 c-99 -52 -181 -97 -184 -99 -3 -4 60 -125 74 -145 2 -2
86 41 187 95 l185 97 -36 74 c-20 40 -39 73 -42 73 -3 0 -86 -43 -184 -95z
m184 25 c8 -16 8 -18 -4 -14 -18 7 -28 -9 -20 -31 5 -12 14 -15 30 -11 45 12
24 -10 -43 -43 -62 -30 -68 -32 -80 -15 -7 9 -14 21 -15 26 -2 5 -11 6 -20 3
-16 -6 -16 -9 -2 -37 9 -16 14 -31 12 -33 -2 -1 -31 -17 -66 -34 -48 -24 -67
-29 -77 -21 -14 12 -40 69 -34 74 9 8 295 156 301 156 4 0 12 -9 18 -20z"/>
<path d="M6683 2253 c-9 -3 -9 -10 -1 -28 9 -21 38 -25 38 -6 0 15 -26 38 -37
34z"/>
<path d="M6636 2221 c-9 -13 4 -41 18 -41 20 0 26 11 15 31 -10 20 -24 24 -33
10z"/>
<path d="M6551 2181 c-18 -12 4 -52 24 -45 12 5 12 10 3 27 -6 12 -11 23 -12
24 -1 1 -8 -2 -15 -6z"/>
<path d="M6496 2151 c-3 -4 1 -17 9 -27 16 -23 40 -7 29 19 -7 18 -29 23 -38
8z"/>
<path d="M6461 2131 c-18 -12 3 -53 24 -45 18 7 19 15 3 37 -9 11 -18 14 -27
8z"/>
<path d="M6209 2151 c-87 -48 -90 -178 -4 -231 91 -56 214 19 201 123 -12 99
-112 154 -197 108z m97 -38 c-1 -12 6 -18 19 -18 11 0 26 -4 33 -8 17 -11 15
-37 -3 -37 -20 0 -19 -27 1 -38 13 -7 14 -13 5 -31 -13 -23 -27 -27 -33 -10
-2 5 -11 7 -20 4 -9 -4 -14 -13 -12 -20 3 -7 1 -16 -5 -20 -17 -10 -51 4 -45
20 7 19 -14 29 -31 15 -12 -10 -17 -7 -27 15 -10 23 -10 28 5 36 21 12 22 29
2 29 -19 0 -19 19 1 45 11 15 17 17 23 7 10 -17 41 -4 34 14 -4 10 3 14 25 14
22 0 29 -4 28 -17z"/>
<path d="M7147 1989 c-18 -24 -13 -45 14 -60 14 -7 23 -5 40 12 18 18 19 23 6
42 -20 30 -42 32 -60 6z"/>
<path d="M6988 1949 c-23 -13 -23 -55 -2 -67 43 -24 88 36 49 65 -22 15 -25
16 -47 2z"/>
<path d="M6570 1720 c-23 -44 29 -80 64 -44 19 18 19 20 6 45 -14 25 -56 25
-70 -1z"/>
<path d="M6440 1615 c-26 -32 13 -81 48 -59 34 22 22 74 -18 74 -10 0 -23 -7
-30 -15z"/>
<path d="M27 1353 c-19 -3 -27 -10 -27 -24 0 -18 5 -19 59 -13 70 8 95 -4 110
-48 20 -61 172 -793 173 -828 0 -44 -26 -65 -100 -80 -31 -6 -64 -13 -72 -15
-11 -3 -26 20 -54 81 -37 81 -73 124 -102 124 -8 0 -14 -9 -14 -20 0 -11 7
-20 15 -20 9 0 33 -37 59 -89 l45 -89 -60 -11 c-48 -10 -59 -16 -59 -32 0 -10
3 -19 8 -19 4 0 76 15 160 34 171 37 190 48 215 123 14 43 13 53 -10 166 -14
67 -31 126 -37 133 -7 6 -36 125 -65 265 -68 320 -66 313 -102 343 -31 26 -65
30 -142 19z"/>
<path d="M9282 1201 c-571 -122 -646 -140 -668 -162 -46 -47 -45 -63 18 -359
32 -151 56 -284 54 -294 -3 -11 6 -74 21 -140 24 -116 27 -123 68 -163 36 -36
50 -43 82 -43 40 1 1088 222 1099 232 3 4 4 13 2 21 -2 11 -86 -4 -438 -79
-239 -51 -446 -93 -459 -94 -17 0 -22 4 -17 16 3 9 6 48 6 87 0 40 4 77 8 84
4 6 207 54 450 106 243 52 445 97 448 100 3 3 4 12 2 19 -4 19 -901 -171 -926
-196 -13 -13 -18 -42 -22 -124 l-5 -107 -70 -14 c-81 -16 -119 -10 -136 21
-20 38 -186 841 -180 868 4 15 20 31 41 41 19 9 320 76 668 150 550 116 632
136 632 151 0 11 -7 18 -17 17 -10 0 -307 -63 -661 -138z"/>
<path d="M27 1283 c-19 -3 -27 -10 -27 -24 0 -22 10 -23 60 -9 19 5 38 6 42 2
12 -12 129 -575 121 -582 -5 -4 -33 -12 -63 -18 -30 -7 -79 -17 -108 -23 -41
-8 -52 -15 -52 -30 0 -15 5 -18 23 -14 12 3 65 14 117 25 98 21 136 45 126 79
-3 9 -30 138 -61 286 -32 149 -64 280 -71 293 -15 22 -37 25 -107 15z"/>
<path d="M9297 1135 c-369 -79 -625 -139 -633 -147 -8 -8 -16 -23 -16 -34 -2
-34 114 -568 128 -591 8 -13 23 -23 34 -23 15 0 1047 216 1128 237 13 3 22 13
22 25 0 14 -5 18 -17 14 -39 -12 -1105 -236 -1123 -236 -11 0 -20 3 -20 8 0 4
-27 133 -60 287 -33 153 -57 282 -52 286 4 4 290 68 637 141 518 110 631 137
633 151 3 12 -3 17 -20 16 -13 -1 -301 -61 -641 -134z"/>
<path d="M9741 942 c-79 -42 -93 -145 -29 -209 86 -86 228 -28 228 92 0 104
-106 167 -199 117z m50 -52 c11 0 19 7 19 16 0 10 7 14 23 12 16 -2 22 -10 22
-28 0 -20 5 -25 23 -23 17 2 22 -2 22 -22 0 -16 -6 -25 -15 -25 -17 0 -21 -36
-4 -42 8 -3 6 -10 -5 -21 -19 -19 -36 -22 -36 -7 0 6 -9 10 -21 10 -15 0 -19
-5 -15 -15 6 -17 -20 -20 -44 -5 -12 8 -12 12 -2 18 10 7 10 11 -1 21 -8 6
-21 10 -28 9 -9 -2 -15 8 -17 24 -3 22 0 27 12 22 11 -4 16 0 16 15 0 12 -5
21 -12 21 -6 0 -1 12 13 26 19 21 25 23 27 10 2 -9 12 -16 23 -16z"/>
<path d="M9433 817 c-105 -23 -194 -45 -197 -48 -6 -6 20 -149 29 -157 3 -4
404 76 412 82 6 5 -35 160 -42 162 -6 1 -96 -16 -202 -39z m187 -22 c0 -9 -9
-15 -21 -15 -15 0 -19 -4 -15 -16 3 -9 6 -20 6 -26 0 -6 9 -8 20 -5 11 3 20 1
20 -3 0 -5 -24 -13 -52 -20 -29 -6 -62 -13 -74 -16 -18 -5 -23 0 -29 25 -4 21
-13 31 -25 31 -16 0 -18 -6 -13 -34 l5 -34 -53 -11 c-30 -7 -64 -14 -76 -17
-14 -4 -23 -2 -23 5 0 6 9 11 21 11 15 0 19 4 15 16 -3 9 -6 20 -6 26 0 6 -9
8 -19 5 -22 -5 -39 21 -18 28 28 10 284 63 310 64 18 1 27 -4 27 -14z"/>
<path d="M9536 748 c9 -30 10 -31 28 -25 21 8 8 47 -16 47 -15 0 -18 -4 -12
-22z"/>
<path d="M9484 744 c3 -9 6 -20 6 -25 0 -5 9 -9 21 -9 15 0 19 4 15 16 -3 9
-6 20 -6 25 0 5 -9 9 -21 9 -15 0 -19 -4 -15 -16z"/>
<path d="M9384 724 c3 -9 6 -20 6 -25 0 -5 9 -9 21 -9 15 0 19 4 15 16 -3 9
-6 20 -6 25 0 5 -9 9 -21 9 -15 0 -19 -4 -15 -16z"/>
<path d="M9338 724 c-12 -12 5 -44 24 -44 14 0 18 5 14 16 -3 9 -6 20 -6 25 0
10 -23 12 -32 3z"/>
<path d="M9031 793 c-121 -60 -76 -253 59 -253 50 0 95 27 120 71 36 65 15
138 -53 179 -39 24 -81 25 -126 3z m103 -29 c12 -5 14 -10 6 -19 -12 -15 10
-37 31 -33 9 2 15 -8 17 -24 3 -21 0 -26 -11 -22 -20 7 -30 -23 -11 -34 12 -7
10 -12 -11 -32 -21 -19 -25 -21 -25 -7 0 10 -8 17 -20 17 -12 0 -20 -7 -20
-16 0 -10 -7 -14 -22 -12 -17 2 -23 10 -23 28 0 20 -5 25 -22 23 -13 -2 -23 1
-23 6 0 5 -3 16 -6 25 -4 12 0 16 15 16 23 0 28 19 9 39 -11 10 -9 15 6 27 23
16 36 18 36 4 0 -5 7 -10 15 -10 8 0 15 7 15 15 0 16 17 19 44 9z"/>
<path d="M9736 385 c-19 -20 -20 -26 -3 -49 27 -38 95 2 71 42 -15 23 -48 27
-68 7z"/>
<path d="M9912 388 c-25 -25 -6 -68 30 -68 14 0 18 8 18 40 0 32 -4 40 -18 40
-10 0 -23 -5 -30 -12z"/>
<path d="M0 360 c0 -18 4 -29 10 -25 6 3 10 15 10 25 0 10 -4 22 -10 25 -6 4
-10 -7 -10 -25z"/>
<path d="M9295 296 c-21 -15 -17 -55 8 -70 25 -16 52 4 52 39 0 33 -33 51 -60
31z"/>
<path d="M9136 227 c-22 -16 -18 -55 7 -71 39 -24 79 44 41 71 -10 7 -21 13
-24 13 -3 0 -14 -6 -24 -13z"/>
</g>
</svg>
