<?xml version="1.0" standalone="no"?>
<!DOCTYPE svg PUBLIC "-//W3C//DTD SVG 20010904//EN"
 "http://www.w3.org/TR/2001/REC-SVG-20010904/DTD/svg10.dtd">
<svg version="1.0" xmlns="http://www.w3.org/2000/svg"
 width="800.000000pt" height="700.000000pt" viewBox="0 0 800.000000 700.000000"
 preserveAspectRatio="xMidYMid meet">
<metadata>
Created by potrace 1.16, written by Peter Selinger 2001-2019
</metadata>
<g transform="translate(0.000000,700.000000) scale(0.100000,-0.100000)"
fill="#d9d257" stroke="none">
<path d="M898 6571 c-60 -19 -97 -61 -108 -123 -14 -76 28 -146 103 -172 l36
-12 -74 -96 c-41 -53 -78 -99 -84 -102 -7 -4 -426 175 -439 188 -1 2 5 19 13
39 36 86 6 164 -77 205 -53 27 -98 23 -151 -12 -65 -44 -85 -144 -41 -210 22
-35 78 -68 117 -69 l32 -1 -40 -240 -41 -241 -50 -3 c-82 -4 -94 -9 -94 -40
l0 -28 63 3 c80 5 125 12 131 21 2 4 23 118 47 254 23 136 46 252 49 258 4 6
99 -31 243 -95 131 -58 243 -105 251 -105 8 0 20 10 29 23 8 12 53 71 100 130
l85 107 91 -171 c51 -95 93 -177 94 -183 1 -6 -26 -13 -63 -18 -276 -32 -885
-359 -1035 -555 l-33 -44 -26 43 -26 43 0 -63 c0 -98 38 -154 113 -166 146
-24 550 138 857 342 221 147 327 258 317 332 -3 19 -38 96 -77 170 -40 74 -94
176 -120 226 l-49 92 24 32 c70 95 14 226 -105 244 -19 3 -47 1 -62 -3z m103
-76 c22 -14 37 -67 28 -99 -12 -43 -44 -66 -91 -66 -97 0 -125 137 -36 175 30
12 69 8 99 -10z m-730 -74 c37 -37 38 -79 3 -120 -21 -25 -34 -31 -64 -31 -58
0 -95 35 -95 90 0 84 95 121 156 61z m952 -611 c17 -16 -5 -49 -82 -123 -208
-198 -671 -442 -926 -487 -91 -16 -119 -12 -123 18 -5 33 135 169 263 254 337
225 797 404 868 338z"/>
<path d="M5921 6560 c-13 -6 -105 -94 -205 -196 l-181 -186 -47 12 c-153 39
-260 -148 -147 -258 52 -50 124 -58 195 -21 32 16 64 81 64 127 l0 41 123 -44
c110 -39 122 -45 121 -67 -1 -12 -12 -120 -24 -239 l-23 -217 -52 2 c-126 3
-203 -113 -147 -224 38 -76 144 -105 218 -60 47 29 78 99 70 156 -3 24 -4 44
-2 44 10 0 425 61 447 65 25 6 28 2 76 -117 l50 -123 -38 -1 c-78 -2 -139 -62
-146 -141 -8 -94 56 -163 151 -163 117 0 178 98 141 226 -5 16 27 55 168 200
95 98 179 189 185 201 39 72 -16 190 -184 398 -176 218 -501 493 -666 564 -57
24 -117 33 -147 21z m145 -90 c165 -82 449 -328 623 -536 97 -117 181 -256
181 -301 0 -40 -13 -42 -90 -10 -136 56 -321 199 -515 399 -179 183 -286 325
-320 425 -26 75 6 82 121 23z m-166 -75 c68 -159 308 -431 560 -634 126 -103
176 -136 269 -179 l78 -37 -141 -148 -142 -148 -59 146 c-33 80 -65 151 -72
157 -9 7 -90 -1 -269 -26 -142 -20 -260 -34 -262 -31 -3 2 7 120 22 261 15
141 25 261 23 268 -3 7 -73 37 -156 67 -83 30 -150 57 -148 61 3 9 268 288
273 288 3 0 13 -20 24 -45z m-385 -292 c35 -35 34 -87 -2 -125 -69 -72 -187 5
-148 98 26 63 100 76 150 27z m283 -676 c25 -20 33 -58 22 -93 -22 -67 -100
-85 -151 -35 -85 85 36 205 129 128z m690 -260 c25 -20 33 -58 22 -93 -15 -43
-45 -64 -91 -64 -77 0 -117 99 -63 153 38 38 90 40 132 4z"/>
<path d="M2700 6542 c-94 -43 -128 -161 -68 -237 16 -21 19 -31 11 -44 -96
-154 -253 -443 -253 -466 0 -53 40 -113 133 -200 222 -210 683 -461 926 -505
72 -13 134 -4 158 22 10 11 75 117 144 236 l125 217 46 1 c135 5 208 136 134
242 -62 90 -199 89 -256 -2 -21 -36 -28 -94 -15 -134 8 -26 11 -26 -141 -10
-66 7 -114 16 -114 22 -1 6 -16 115 -34 241 l-33 230 44 5 c141 18 187 206 68
280 -20 12 -52 24 -73 27 -49 6 -120 -31 -145 -74 -23 -41 -25 -109 -5 -151
11 -22 13 -32 4 -35 -6 -3 -107 -44 -224 -92 -118 -47 -215 -85 -216 -83 -2 2
-37 49 -79 105 l-77 102 39 11 c48 13 98 66 107 115 19 103 -50 186 -153 184
-21 0 -45 -3 -53 -7z m121 -81 c33 -34 37 -69 12 -112 -38 -64 -122 -57 -156
13 -16 33 -16 40 -3 71 27 65 97 78 147 28z m704 -65 c63 -27 75 -97 25 -148
-27 -27 -36 -30 -73 -25 -51 7 -77 36 -77 84 0 46 15 72 53 88 40 18 32 17 72
1z m-726 -308 c51 -71 96 -128 100 -128 3 0 118 44 253 99 235 94 247 98 251
77 3 -11 20 -128 38 -258 18 -131 36 -243 40 -249 3 -6 77 -19 163 -29 86 -10
159 -20 162 -23 4 -4 -173 -321 -193 -346 -2 -3 -11 6 -20 20 -51 77 -236 228
-413 339 -92 58 -342 184 -430 218 -70 27 -160 52 -214 60 l-43 7 100 178 c56
97 104 174 107 170 4 -5 48 -65 99 -135z m-129 -317 c187 -63 470 -214 639
-341 172 -130 285 -258 249 -282 -41 -28 -258 36 -458 136 -226 113 -433 252
-561 377 -75 73 -99 114 -84 140 12 19 109 5 215 -30z m1325 14 c29 -28 33
-71 10 -114 -16 -33 -33 -41 -81 -41 -77 0 -113 95 -59 154 33 36 95 37 130 1z"/>
<path d="M7685 5926 c-56 -25 -95 -85 -95 -144 0 -15 9 -46 19 -69 23 -50 79
-83 143 -83 l43 0 100 -191 100 -191 3 61 c3 58 0 66 -67 194 -39 74 -68 137
-64 140 3 4 35 7 70 7 l63 0 0 30 0 30 -60 0 c-59 0 -60 1 -49 21 15 30 6 106
-18 137 -46 62 -126 87 -188 58z m116 -66 c55 -40 48 -124 -13 -156 -38 -20
-69 -17 -101 9 -94 76 15 217 114 147z"/>
<path d="M4260 4429 c-63 -25 -103 -89 -99 -156 l3 -46 -219 -137 c-247 -155
-260 -168 -251 -256 13 -115 99 -321 221 -531 190 -324 440 -582 539 -557 15
3 125 68 244 144 l217 137 45 -24 c102 -55 217 8 227 124 10 122 -115 200
-227 143 -39 -20 -80 -79 -80 -115 0 -21 5 -23 -118 58 -57 38 -102 74 -99 80
2 7 39 107 82 222 42 116 79 213 81 217 2 4 17 0 32 -8 98 -51 217 27 217 142
0 110 -104 180 -208 140 -54 -20 -88 -64 -96 -125 l-6 -46 -241 24 -241 24
-17 116 c-9 64 -16 121 -16 126 0 6 26 10 59 10 67 0 99 18 139 76 19 27 23
43 19 82 -10 106 -113 173 -207 136z m99 -63 c51 -27 66 -95 31 -139 -42 -54
-130 -43 -155 18 -21 50 -19 63 19 101 37 37 62 42 105 20z m-152 -362 c13
-91 27 -162 35 -169 8 -8 113 -22 266 -37 139 -14 254 -27 257 -30 3 -2 -36
-115 -85 -251 -49 -135 -87 -252 -85 -259 3 -7 66 -53 141 -102 l134 -88 -147
-92 c-82 -51 -160 -100 -175 -110 l-27 -18 -6 39 c-45 275 -422 883 -636 1027
l-47 31 172 108 c94 58 173 107 176 107 3 0 15 -70 27 -156z m771 -69 c54 -45
49 -120 -9 -150 -43 -23 -77 -18 -110 14 -83 83 29 211 119 136z m-1142 -63
c103 -75 278 -292 399 -492 148 -246 251 -517 216 -570 -9 -12 -14 -12 -43 2
-158 78 -470 513 -597 833 -43 109 -68 212 -58 238 9 25 39 21 83 -11z m1265
-668 c51 -46 22 -147 -46 -160 -105 -19 -158 124 -65 174 31 16 86 9 111 -14z"/>
<path d="M7074 4406 c-17 -8 -44 -31 -60 -52 -25 -33 -29 -45 -27 -100 l1 -62
-195 -148 c-213 -161 -231 -177 -240 -213 -10 -39 24 -158 72 -253 210 -416
629 -865 777 -833 17 4 121 76 234 161 111 85 207 154 212 154 5 0 23 -7 38
-15 16 -8 48 -15 72 -15 41 0 42 1 42 34 0 34 0 34 -40 29 -34 -5 -43 -2 -70
25 -18 18 -30 41 -30 57 0 64 57 114 114 99 26 -6 27 -5 24 27 -3 32 -6 34
-43 37 -30 2 -51 -4 -82 -24 -46 -30 -63 -56 -72 -108 l-6 -34 -110 60 c-60
34 -112 62 -114 64 -2 2 25 109 60 238 59 218 65 234 82 224 32 -17 102 -13
138 8 138 81 81 291 -77 287 -83 -2 -162 -87 -150 -160 l5 -33 -244 0 c-223 0
-244 1 -249 18 -3 9 -15 60 -26 112 -11 52 -23 102 -26 111 -4 14 2 16 40 12
36 -4 54 0 89 20 105 62 103 210 -3 265 -50 25 -91 27 -136 8z m134 -81 c30
-35 29 -86 -2 -122 -53 -61 -157 -21 -159 62 -1 31 5 43 32 67 28 25 39 29 70
24 21 -3 45 -16 59 -31z m-157 -347 c19 -83 39 -157 46 -163 9 -9 83 -14 267
-16 140 -2 258 -7 262 -11 4 -4 -23 -119 -60 -256 -37 -137 -64 -255 -61 -263
3 -8 68 -48 145 -89 77 -41 139 -77 139 -80 0 -3 -73 -60 -163 -127 l-163
-121 -13 55 c-25 114 -204 422 -340 585 -160 193 -308 333 -393 374 l-36 17
162 123 c89 67 165 123 168 123 3 1 21 -67 40 -151z m788 -7 c16 -12 25 -31
28 -62 4 -37 1 -48 -21 -71 -29 -32 -87 -38 -123 -13 -34 24 -47 77 -29 114 9
16 24 35 33 40 28 16 86 12 112 -8z m-1144 -160 c254 -147 705 -772 705 -977
0 -34 -1 -36 -27 -30 -78 19 -276 197 -418 376 -230 288 -410 661 -321 660 6
0 34 -13 61 -29z"/>
<path d="M1644 4220 c-131 -66 -102 -263 42 -289 l31 -6 -66 -232 -66 -233
-110 0 c-60 0 -120 3 -131 6 -20 5 -21 8 -8 32 20 38 17 79 -7 129 -39 80
-147 109 -220 59 -119 -81 -73 -263 69 -282 l48 -6 94 -233 c52 -128 106 -246
119 -261 22 -26 30 -28 110 -32 54 -3 118 2 173 12 370 70 914 337 994 488 8
15 14 40 14 55 0 15 -43 135 -96 265 l-96 237 25 30 c38 45 50 92 38 139 -21
77 -79 122 -158 122 -94 0 -167 -100 -142 -194 12 -46 70 -106 101 -106 11 0
18 -4 16 -9 -1 -4 -42 -49 -90 -100 l-86 -92 -209 122 c-114 67 -209 123 -211
124 -2 2 8 20 23 40 84 125 -65 285 -201 215z m137 -77 c36 -37 33 -98 -6
-129 -43 -35 -90 -32 -126 7 -36 39 -37 77 -4 118 39 46 96 48 136 4z m730
-11 c24 -22 31 -36 31 -65 0 -42 -13 -62 -55 -83 -91 -47 -171 73 -98 147 39
38 80 39 122 1z m-506 -344 c99 -58 195 -113 213 -122 l34 -17 119 117 c65 65
120 116 122 113 3 -4 129 -313 142 -350 5 -14 -8 -17 -90 -23 -181 -12 -436
-93 -702 -221 -168 -81 -301 -163 -360 -222 l-39 -39 -57 140 c-31 78 -66 165
-77 195 l-21 53 23 -5 c13 -3 87 -7 166 -8 111 -2 145 0 152 11 4 7 34 103 65
214 94 329 82 298 108 282 12 -8 103 -61 202 -118z m-758 -153 c12 -8 26 -30
33 -49 31 -95 -85 -162 -152 -87 -38 42 -37 83 1 122 33 33 82 39 118 14z
m1401 -191 c12 -4 22 -14 22 -24 0 -24 -86 -105 -168 -158 -180 -117 -540
-265 -760 -312 -120 -26 -255 -25 -260 2 -5 26 53 84 151 149 297 199 852 386
1015 343z"/>
<path d="M0 3299 c0 -19 10 -43 25 -61 14 -16 25 -36 25 -44 0 -24 -28 -84
-39 -84 -6 0 -11 -16 -11 -35 0 -47 18 -45 63 4 63 70 59 161 -8 220 -45 39
-55 39 -55 0z"/>
<path d="M5510 2223 c-54 -17 -93 -40 -109 -67 -24 -40 -32 -87 -22 -123 8
-27 4 -31 -204 -182 -120 -86 -218 -164 -224 -178 -41 -89 35 -289 210 -553
240 -364 511 -613 619 -572 14 5 119 78 234 161 203 148 209 151 228 134 32
-29 134 -25 175 6 102 77 76 235 -45 272 -83 24 -170 -23 -194 -104 -6 -23
-13 -43 -14 -45 -1 -2 -52 24 -112 58 l-110 61 19 67 c11 37 41 142 67 235 38
135 50 166 62 161 59 -26 136 -14 178 27 65 64 67 152 4 218 -96 101 -262 32
-262 -108 l0 -41 -192 6 c-106 3 -216 7 -244 10 l-52 5 -21 103 c-12 56 -24
112 -27 123 -6 20 -2 21 51 21 64 -1 95 16 133 72 30 45 30 115 -1 160 -33 49
-106 86 -147 73z m79 -82 c16 -12 25 -31 28 -62 4 -37 1 -48 -21 -71 -19 -22
-34 -28 -66 -28 -56 0 -90 34 -90 90 0 78 86 119 149 71z m-149 -361 c18 -85
36 -159 41 -164 4 -5 126 -13 271 -18 145 -5 264 -11 265 -12 2 -1 -29 -111
-67 -243 -39 -133 -70 -250 -70 -262 0 -16 31 -39 140 -103 111 -65 137 -85
127 -95 -6 -6 -79 -61 -162 -121 l-150 -109 -20 71 c-37 128 -189 393 -329
576 -127 165 -301 336 -390 382 l-28 15 168 121 c93 66 169 120 170 119 1 -1
16 -72 34 -157z m793 -30 c31 -35 33 -47 12 -95 -25 -61 -98 -73 -146 -26 -32
32 -37 70 -15 110 32 57 101 63 149 11z m-1147 -131 c66 -42 219 -193 312
-309 167 -206 322 -470 358 -611 32 -119 0 -127 -124 -32 -235 179 -561 647
-626 896 -25 95 -5 109 80 56z m1309 -580 c14 -14 20 -33 20 -65 0 -38 -5 -50
-29 -71 -74 -63 -183 18 -146 108 25 59 108 74 155 28z"/>
<path d="M543 2203 c-75 -42 -105 -140 -65 -213 34 -64 131 -95 203 -66 20 9
29 -45 29 -169 l0 -82 -232 -61 c-127 -33 -235 -59 -240 -56 -4 3 -8 15 -8 28
0 13 -10 38 -23 57 -39 58 -117 84 -181 59 -22 -8 -26 -16 -26 -50 l0 -41 29
22 c59 43 143 -2 143 -77 0 -30 -7 -44 -31 -66 -38 -34 -78 -36 -115 -7 l-26
20 0 -41 c0 -35 4 -42 28 -51 37 -15 109 -5 141 19 l27 19 118 -213 118 -213
-87 -83 c-48 -46 -91 -84 -95 -86 -4 -2 -19 17 -33 41 -40 67 -119 95 -191 67
-22 -8 -26 -16 -26 -50 l0 -41 26 20 c35 28 82 27 119 -3 24 -19 30 -31 30
-65 0 -82 -93 -125 -151 -70 l-24 22 0 -40 c0 -47 11 -59 62 -68 45 -9 98 8
130 40 l24 23 230 -97 c127 -54 246 -101 264 -104 24 -5 41 -2 66 13 204 127
519 819 519 1142 0 91 -2 99 -25 122 -14 14 -128 69 -260 124 l-235 100 -7 48
c-12 81 -66 134 -145 141 -33 2 -58 -2 -80 -14z m134 -75 c63 -59 17 -158 -72
-158 -33 0 -85 52 -85 86 0 86 95 130 157 72z m285 -244 l178 -76 -46 -51
c-208 -232 -453 -820 -454 -1089 0 -27 -2 -48 -4 -48 -2 0 -87 35 -190 78
l-186 79 120 112 c66 62 120 118 120 124 0 7 -58 116 -129 242 l-128 230 226
61 c125 34 243 67 264 73 l37 13 0 164 c0 90 3 164 7 164 3 0 87 -34 185 -76z
m276 -177 c10 -199 -169 -688 -351 -957 -82 -120 -158 -188 -179 -158 -5 7 -7
54 -4 103 16 282 271 868 451 1034 62 57 79 52 83 -22z"/>
<path d="M3455 2096 c-89 -40 -120 -143 -68 -223 29 -46 55 -63 107 -72 l34
-6 -60 -110 c-34 -60 -62 -112 -64 -114 -2 -2 -109 25 -238 60 -218 59 -234
65 -224 82 17 32 13 102 -8 138 -81 138 -291 81 -287 -77 2 -83 87 -162 161
-150 l32 5 0 -244 c0 -223 -1 -244 -17 -249 -10 -3 -61 -15 -113 -26 -52 -11
-102 -23 -111 -26 -14 -4 -16 2 -12 40 4 36 0 54 -20 89 -62 105 -210 103
-264 -3 -39 -76 -24 -145 43 -196 33 -25 45 -29 100 -27 l62 1 148 -195 c161
-213 177 -231 213 -240 39 -10 158 24 253 72 416 210 865 629 833 777 -4 17
-76 121 -161 234 -85 111 -154 207 -154 212 0 5 7 24 16 41 25 50 15 124 -22
163 -52 55 -118 71 -179 44z m94 -57 c63 -22 80 -102 32 -150 -33 -32 -67 -37
-110 -14 -58 30 -63 105 -9 150 33 28 42 30 87 14z m-685 -194 c30 -28 36 -87
11 -122 -24 -34 -77 -47 -114 -28 -37 19 -51 43 -51 87 1 79 95 118 154 63z
m863 -219 l121 -163 -55 -13 c-114 -25 -422 -204 -585 -340 -193 -160 -333
-308 -374 -393 l-17 -36 -124 165 c-69 91 -123 167 -121 169 2 1 72 19 157 38
85 20 157 41 162 48 4 6 8 125 10 265 2 139 7 256 11 260 4 4 119 -23 256 -60
137 -37 255 -64 263 -61 8 3 48 68 89 145 41 77 77 139 80 139 3 0 60 -73 127
-163z m169 -253 c-19 -78 -197 -276 -376 -418 -271 -216 -631 -397 -656 -330
-14 36 94 179 231 306 263 244 629 467 769 469 37 0 38 -1 32 -27z m-1399
-167 c61 -53 21 -157 -62 -159 -31 -1 -43 5 -67 32 -25 28 -29 39 -24 70 11
75 96 106 153 57z"/>
</g>
</svg>
