<?xml version="1.0" standalone="no"?>
<!DOCTYPE svg PUBLIC "-//W3C//DTD SVG 20010904//EN"
 "http://www.w3.org/TR/2001/REC-SVG-20010904/DTD/svg10.dtd">
<svg version="1.0" xmlns="http://www.w3.org/2000/svg"
 width="800.000000pt" height="700.000000pt" viewBox="0 0 800.000000 700.000000"
 preserveAspectRatio="xMidYMid meet">
<metadata>
Created by potrace 1.16, written by Peter Selinger 2001-2019
</metadata>
<g transform="translate(0.000000,700.000000) scale(0.100000,-0.100000)"
fill="#cc0a0a" stroke="none">
<path d="M4165 6700 c-4 -7 -11 -58 -16 -113 -4 -56 -8 -104 -9 -107 0 -3 -46
-6 -103 -6 -114 -2 -190 -24 -293 -85 -182 -109 -272 -411 -194 -649 57 -171
185 -358 380 -552 96 -96 134 -128 153 -128 46 0 271 175 413 321 186 193 264
357 264 554 0 157 -46 279 -140 375 -86 88 -181 129 -362 155 l-37 6 2 117 2
117 -27 3 c-14 2 -29 -2 -33 -8z m-34 -375 c-1 -38 -4 -83 -7 -100 l-5 -30
-232 -59 c-128 -33 -240 -61 -249 -64 -23 -6 -23 5 3 73 28 76 112 166 192
205 77 37 131 49 226 47 l75 -2 -3 -70z m264 33 c113 -37 191 -102 239 -196
24 -48 52 -149 44 -158 -3 -2 -112 40 -243 93 l-237 97 6 50 c3 28 6 73 6 99
l0 49 63 -7 c34 -4 89 -16 122 -27z m-281 -290 c-2 -24 -8 -101 -14 -172 -5
-70 -10 -130 -12 -131 -2 -2 -94 -30 -206 -63 l-203 -59 -25 48 c-32 65 -54
159 -54 241 0 58 2 66 18 62 9 -2 118 23 242 55 124 33 232 60 241 60 13 1 16
-7 13 -41z m338 -61 l228 -92 0 -45 c0 -25 -11 -75 -23 -111 -21 -63 -85 -179
-97 -179 -10 0 -374 170 -383 179 -4 4 -2 85 5 180 10 149 14 171 27 166 9 -3
118 -47 243 -98z m-384 -564 c-9 -131 -17 -245 -17 -253 -1 -20 -117 96 -210
210 -75 93 -127 168 -120 174 5 4 341 103 354 105 7 1 4 -81 -7 -236z m275
150 c92 -43 167 -80 167 -84 0 -13 -219 -217 -299 -278 l-84 -65 6 80 c4 43
12 157 18 252 7 94 15 172 18 172 3 0 81 -35 174 -77z"/>
<path d="M6905 6558 c-381 -43 -647 -163 -771 -349 -125 -189 -144 -363 -56
-539 29 -59 121 -163 177 -201 19 -13 35 -27 35 -30 0 -3 -27 -42 -60 -87 -61
-84 -71 -111 -46 -131 23 -19 44 -2 107 85 33 46 62 84 65 84 2 0 28 -16 57
-35 114 -76 254 -110 377 -94 201 28 395 217 456 444 25 94 30 327 10 465 -20
137 -51 275 -78 348 l-19 52 -87 -1 c-48 -1 -123 -6 -167 -11z m133 -90 c-54
-82 -271 -373 -278 -373 -10 0 -213 305 -207 311 21 21 344 80 451 83 48 1 48
1 34 -21z m106 -118 c26 -121 46 -270 46 -346 l0 -71 -180 51 c-134 37 -179
53 -175 64 11 30 280 391 286 384 4 -4 14 -41 23 -82z m-557 -147 c60 -93 113
-173 116 -179 5 -8 -166 -260 -198 -292 -6 -6 -305 416 -305 430 0 41 210 208
261 208 11 0 57 -62 126 -167z m-287 -325 c80 -111 146 -207 148 -213 1 -5
-23 -45 -54 -88 l-56 -77 -38 30 c-66 53 -132 132 -164 200 -27 57 -31 76 -31
150 0 79 27 200 44 200 3 0 71 -91 151 -202z m690 31 c102 -28 189 -55 194
-59 12 -12 -22 -166 -50 -226 -36 -76 -62 -106 -82 -95 -9 4 -120 41 -247 81
-126 40 -231 74 -233 75 -2 2 43 67 99 144 72 99 107 140 118 136 9 -2 99 -27
201 -56z m-218 -370 c123 -39 227 -75 231 -79 11 -10 -78 -74 -140 -102 -36
-16 -69 -22 -133 -22 -103 -1 -175 20 -266 79 l-64 41 60 83 c40 54 66 81 75
77 8 -3 115 -37 237 -77z"/>
<path d="M1781 6361 l-63 -90 -42 28 c-84 57 -163 87 -266 100 -150 19 -286
-34 -410 -158 -83 -84 -125 -155 -162 -271 -21 -67 -23 -93 -22 -255 0 -143 5
-203 22 -290 30 -149 70 -295 89 -324 15 -23 17 -24 118 -17 204 13 426 60
578 121 224 91 367 248 419 460 20 79 21 95 10 167 -20 136 -85 247 -202 342
-33 28 -60 54 -60 59 0 5 25 45 56 88 61 87 68 122 23 127 -22 3 -34 -9 -88
-87z m-326 -46 c69 -18 147 -54 188 -87 l28 -23 -56 -80 c-39 -55 -61 -79 -73
-77 -9 2 -120 35 -245 73 -126 38 -231 69 -234 69 -13 0 33 42 79 71 99 64
204 82 313 54z m348 -205 c73 -62 100 -95 131 -157 46 -91 57 -186 32 -279
-27 -102 -19 -107 -185 114 -83 111 -151 206 -151 213 0 12 101 159 109 159 3
0 32 -22 64 -50z m-523 -65 c124 -37 226 -68 227 -69 3 -2 -175 -257 -191
-274 -10 -10 -52 -2 -217 41 l-204 54 3 58 c3 67 37 172 75 232 24 38 29 41
54 34 16 -5 129 -39 253 -76z m455 -325 l158 -210 -28 -40 c-15 -22 -47 -56
-71 -76 -52 -42 -153 -104 -169 -104 -13 0 -245 334 -245 351 0 10 189 289
195 289 2 0 74 -95 160 -210z m-493 -97 c13 -7 -8 -42 -125 -210 -78 -111
-145 -199 -148 -195 -22 23 -79 340 -79 438 l0 62 168 -44 c92 -24 174 -47
184 -51z m193 -209 c58 -86 104 -158 103 -159 -14 -11 -214 -58 -293 -69 -200
-29 -208 -29 -200 -15 18 29 277 399 280 399 2 0 52 -70 110 -156z"/>
<path d="M2790 4383 c-46 -9 -145 -60 -197 -102 -65 -52 -124 -140 -160 -237
-15 -40 -32 -74 -38 -74 -5 0 -53 13 -105 29 -101 30 -116 30 -125 0 -10 -32
11 -46 117 -79 83 -26 99 -34 93 -48 -3 -9 -13 -48 -21 -85 -57 -274 76 -502
354 -604 83 -31 231 -42 324 -23 179 35 391 127 597 261 74 47 113 79 117 94
11 42 -123 330 -225 485 -31 47 -101 130 -156 186 -112 113 -192 159 -322 188
-67 15 -196 19 -253 9z m168 -82 c-11 -32 -286 -410 -297 -410 -8 -1 -53 10
-99 24 -93 29 -89 19 -51 120 25 67 108 175 161 210 66 44 135 64 216 65 42 0
72 -4 70 -9z m187 -41 c39 -19 91 -56 134 -98 l70 -67 -125 -160 c-69 -88
-129 -164 -134 -169 -9 -9 -314 77 -333 93 -4 4 50 88 119 187 167 237 173
244 191 244 8 0 44 -14 78 -30z m325 -325 c60 -93 170 -308 170 -332 0 -7 -3
-13 -7 -13 -25 0 -458 140 -458 147 0 12 217 293 226 293 4 0 35 -43 69 -95z
m-906 -101 l83 -25 7 -256 c4 -141 5 -258 2 -260 -11 -11 -127 80 -158 124
-50 69 -69 126 -75 219 -7 96 19 224 44 224 8 0 52 -12 97 -26z m330 -100 c83
-25 155 -50 159 -54 14 -13 36 -424 23 -432 -34 -22 -205 -28 -282 -9 l-51 12
-6 97 c-9 123 -9 432 -1 432 3 0 74 -21 158 -46z m501 -154 c110 -33 206 -63
214 -66 19 -6 -58 -58 -192 -129 -80 -42 -239 -115 -252 -115 -1 0 -5 57 -9
128 -4 70 -9 157 -13 194 l-6 68 29 -10 c16 -5 119 -36 229 -70z"/>
<path d="M195 4270 c-49 -4 -114 -13 -142 -20 -53 -12 -53 -12 -53 -51 0 -21
3 -39 8 -39 4 1 34 7 67 15 33 8 63 15 67 15 7 0 138 -388 138 -408 0 -9 -211
-184 -258 -213 -18 -12 -22 -23 -22 -70 l0 -57 215 -137 c118 -76 212 -141
210 -146 -3 -4 -31 -18 -63 -30 -88 -35 -217 -33 -296 4 -32 15 -60 27 -62 27
-10 0 -2 -79 9 -88 7 -6 48 -21 92 -33 91 -25 163 -22 264 11 240 79 393 280
459 605 40 194 56 509 28 538 -27 27 -291 72 -471 80 -55 3 -140 1 -190 -3z
m361 -90 c86 -11 162 -24 169 -28 9 -5 -48 -57 -178 -162 -105 -85 -193 -154
-196 -153 -6 2 -121 341 -121 355 0 15 168 8 326 -12z m234 -163 c0 -133 -44
-427 -66 -434 -5 -1 -80 40 -167 91 l-159 94 74 60 c40 33 125 103 188 155 63
53 118 96 123 96 4 1 7 -27 7 -62z m-261 -416 c94 -56 171 -107 171 -113 0
-25 -75 -160 -112 -203 -36 -41 -110 -102 -96 -79 4 5 -89 70 -205 145 -117
74 -212 140 -212 146 0 18 249 214 266 210 9 -3 94 -50 188 -106z"/>
<path d="M5475 4249 c-136 -47 -283 -178 -347 -309 -73 -151 -98 -291 -98
-552 0 -180 13 -316 34 -342 28 -37 431 -50 619 -20 119 19 243 60 326 109 85
50 183 160 234 263 l42 85 0 121 0 121 -41 85 c-24 50 -62 108 -92 141 -29 31
-52 60 -52 65 0 4 34 42 75 85 76 77 81 85 67 105 -22 33 -44 24 -121 -51 -43
-41 -81 -75 -86 -75 -5 0 -27 18 -50 39 -134 131 -348 185 -510 130z m260 -71
c22 -6 58 -19 80 -30 43 -22 165 -115 165 -127 0 -3 -32 -38 -70 -76 l-70 -70
-230 115 c-127 63 -230 118 -230 122 0 13 127 69 176 78 52 8 114 4 179 -12z
m-76 -484 l-125 -125 -189 87 c-105 47 -194 90 -198 94 -4 4 5 43 22 88 29 80
65 142 113 193 l25 27 238 -120 238 -120 -124 -124z m437 209 c86 -108 135
-250 118 -348 -8 -51 -38 -132 -63 -169 l-19 -29 -117 233 -117 233 68 68 c38
38 72 69 76 69 4 0 28 -26 54 -57z m-126 -394 l111 -219 -38 -35 c-21 -20 -58
-47 -82 -61 -47 -26 -189 -80 -195 -73 -1 2 -42 91 -90 198 l-87 195 123 123
c106 106 125 121 135 107 6 -8 62 -114 123 -235z m-666 81 c91 -41 166 -77
166 -80 0 -11 -350 -354 -355 -348 -3 3 -7 84 -8 179 -2 181 9 332 23 327 5
-2 83 -37 174 -78z m304 -304 c39 -90 72 -168 72 -174 0 -6 -26 -14 -57 -19
-62 -9 -433 -7 -442 2 -5 6 339 355 349 355 3 0 38 -74 78 -164z"/>
<path d="M7902 4197 c-228 -116 -361 -344 -324 -559 14 -82 64 -193 116 -261
l37 -48 -28 -22 c-144 -113 -167 -144 -123 -167 24 -13 25 -12 117 62 39 32
74 58 78 58 3 0 36 -30 74 -67 38 -38 87 -78 110 -91 l41 -23 0 44 c0 40 -4
47 -37 70 -21 15 -57 49 -80 76 l-43 50 80 63 80 63 0 66 c0 60 -9 91 -90 300
l-89 234 35 32 c19 17 60 43 90 57 50 24 54 28 54 61 0 45 -14 45 -98 2z m-48
-452 c47 -126 86 -234 86 -240 -1 -16 -151 -129 -159 -119 -153 211 -172 381
-60 553 18 28 36 47 40 43 3 -4 45 -110 93 -237z"/>
<path d="M3687 2114 c-15 -16 -5 -51 38 -131 25 -45 45 -87 45 -91 0 -5 -24
-22 -52 -37 -29 -16 -85 -61 -124 -100 -153 -154 -188 -331 -108 -542 32 -86
67 -146 117 -200 137 -149 423 -281 748 -345 59 -12 114 -18 123 -15 35 14
148 320 187 507 26 126 31 325 10 410 -31 128 -132 281 -233 356 -144 106
-354 117 -531 28 -27 -14 -53 -24 -58 -22 -6 2 -31 44 -57 93 -39 73 -52 91
-73 93 -13 2 -28 0 -32 -4z m555 -185 c29 -6 74 -22 99 -35 60 -30 147 -109
134 -122 -5 -5 -111 -26 -235 -46 -124 -21 -234 -40 -245 -42 -16 -4 -28 11
-65 81 -52 100 -53 98 49 136 103 39 176 46 263 28z m-377 -206 l43 -82 -175
-183 c-96 -101 -178 -184 -183 -186 -4 -2 -14 29 -21 69 -23 128 10 241 99
341 50 55 157 131 180 126 7 -2 33 -40 57 -85z m694 -68 c30 -65 51 -159 51
-237 0 -38 -2 -68 -3 -68 -2 0 -89 -11 -193 -25 -104 -14 -200 -25 -214 -25
-22 0 -34 18 -103 151 -43 83 -77 153 -74 155 3 4 435 82 508 93 4 1 16 -19
28 -44z m-526 -248 l79 -147 -104 -117 c-56 -64 -121 -137 -144 -162 l-41 -45
-51 33 c-61 39 -147 130 -181 191 -13 24 -20 40 -14 37 5 -3 88 77 184 178 95
101 178 183 184 181 5 -1 45 -69 88 -149z m562 -179 c-18 -115 -109 -413 -134
-440 -4 -5 -59 90 -123 210 -64 119 -114 219 -112 222 4 4 310 46 357 49 16 1
18 -4 12 -41z m-324 -266 c63 -119 112 -218 108 -220 -10 -4 -191 43 -279 73
-109 37 -201 77 -198 86 4 13 241 279 247 279 3 0 58 -98 122 -218z"/>
<path d="M6614 1990 c-177 -46 -318 -159 -378 -303 -8 -21 -21 -76 -28 -122
-10 -71 -9 -97 4 -172 9 -48 19 -96 23 -105 6 -14 -9 -22 -93 -48 -106 -33
-127 -47 -117 -79 9 -30 24 -30 125 0 52 16 100 29 106 29 6 0 18 -24 27 -52
38 -122 138 -248 242 -308 109 -62 252 -76 398 -39 186 47 325 164 474 395 97
151 218 420 208 460 -8 36 -255 190 -420 262 -224 97 -411 124 -571 82z m269
-66 c24 -3 49 -9 56 -13 9 -6 8 -55 -3 -216 -8 -114 -18 -211 -23 -215 -11
-10 -322 -105 -326 -99 -2 2 -2 120 1 262 5 295 -3 272 105 287 60 8 97 7 190
-6z m262 -82 c141 -63 348 -188 325 -196 -30 -11 -465 -143 -467 -142 -3 3 18
329 23 354 6 28 25 26 119 -16z m-633 -224 c-2 -139 -7 -257 -12 -262 -11 -11
-148 -56 -171 -56 -40 0 -64 214 -34 315 28 99 85 171 185 237 14 9 27 17 30
17 3 1 4 -113 2 -251z m988 -59 c0 -24 -122 -260 -179 -347 l-62 -93 -115 151
c-64 83 -113 154 -110 158 7 7 434 140 454 141 6 1 12 -4 12 -10z m-427 -324
c70 -91 127 -172 127 -179 0 -14 -84 -89 -145 -129 -51 -34 -152 -69 -152 -53
0 6 -64 102 -142 213 -79 111 -142 205 -142 210 2 8 282 100 312 102 9 1 67
-66 142 -164z m-403 -155 c68 -96 132 -188 143 -204 l20 -29 -94 5 c-119 6
-187 36 -265 116 -53 54 -113 159 -129 224 -7 26 -5 27 87 56 68 21 96 26 104
18 7 -6 67 -90 134 -186z"/>
<path d="M1295 1949 c-136 -47 -283 -178 -347 -309 -73 -151 -98 -291 -98
-552 0 -180 13 -316 34 -342 28 -37 431 -50 619 -20 119 19 243 60 326 109 85
50 183 160 234 263 l42 85 0 121 0 121 -41 85 c-24 50 -62 108 -92 141 -29 31
-52 60 -52 65 0 4 34 42 75 85 76 77 81 85 67 105 -22 33 -44 24 -121 -51 -43
-41 -81 -75 -86 -75 -5 0 -27 18 -50 39 -134 131 -348 185 -510 130z m260 -71
c22 -6 58 -19 80 -30 43 -22 165 -115 165 -127 0 -3 -32 -38 -70 -76 l-70 -70
-230 115 c-127 63 -230 118 -230 122 0 13 127 69 176 78 52 8 114 4 179 -12z
m-76 -484 l-125 -125 -189 87 c-105 47 -194 90 -198 94 -4 4 5 43 22 88 29 80
65 142 113 193 l25 27 238 -120 238 -120 -124 -124z m437 209 c86 -108 135
-250 118 -348 -8 -51 -38 -132 -63 -169 l-19 -29 -117 233 -117 233 68 68 c38
38 72 69 76 69 4 0 28 -26 54 -57z m-126 -394 l111 -219 -38 -35 c-21 -20 -58
-47 -82 -61 -47 -26 -189 -80 -195 -73 -1 2 -42 91 -90 198 l-87 195 123 123
c106 106 125 121 135 107 6 -8 62 -114 123 -235z m-666 81 c91 -41 166 -77
166 -80 0 -11 -350 -354 -355 -348 -3 3 -7 84 -8 179 -2 181 9 332 23 327 5
-2 83 -37 174 -78z m304 -304 c39 -90 72 -168 72 -174 0 -6 -26 -14 -57 -19
-62 -9 -433 -7 -442 2 -5 6 339 355 349 355 3 0 38 -74 78 -164z"/>
</g>
</svg>
