<?xml version="1.0" standalone="no"?>
<!DOCTYPE svg PUBLIC "-//W3C//DTD SVG 20010904//EN"
 "http://www.w3.org/TR/2001/REC-SVG-20010904/DTD/svg10.dtd">
<svg version="1.0" xmlns="http://www.w3.org/2000/svg"
 width="800.000000pt" height="700.000000pt" viewBox="0 0 800.000000 700.000000"
 preserveAspectRatio="xMidYMid meet">
<metadata>
Created by potrace 1.16, written by Peter Selinger 2001-2019
</metadata>
<g transform="translate(0.000000,700.000000) scale(0.100000,-0.100000)"
fill="#099e4c" stroke="none">
<path d="M3552 6624 c-197 -143 -312 -233 -312 -244 0 -24 818 -1144 839
-1148 16 -3 100 54 306 206 145 107 270 198 303 221 17 12 32 30 32 40 0 25
-818 1145 -839 1149 -10 2 -149 -93 -329 -224z m368 65 c29 -40 48 -75 43 -80
-15 -15 -97 -21 -138 -10 -22 6 -53 21 -69 34 l-28 23 68 52 c38 28 70 52 70
52 1 0 25 -32 54 -71z m-143 -155 c49 -21 156 -22 205 -1 l38 16 53 -72 c29
-40 63 -87 75 -104 l23 -33 -48 21 c-31 14 -77 23 -128 26 -96 6 -168 -17
-243 -76 -79 -63 -142 -211 -128 -302 3 -21 4 -39 2 -39 -2 0 -34 41 -71 92
-62 84 -66 94 -54 112 7 12 26 45 41 75 33 63 38 151 13 221 -8 23 -15 44 -15
46 0 2 27 24 61 49 l61 45 38 -30 c21 -17 56 -38 77 -46z m-287 -119 c5 -20 6
-54 3 -74 -6 -37 -41 -111 -54 -111 -3 0 -29 31 -57 69 l-51 70 67 50 c37 27
71 46 75 42 5 -5 12 -25 17 -46z m600 -127 c143 -61 205 -236 134 -376 -53
-103 -162 -161 -279 -149 -145 15 -256 151 -242 297 17 194 206 306 387 228z
m360 -331 c28 -40 32 -51 22 -65 -55 -78 -67 -109 -70 -177 -3 -50 1 -83 12
-110 9 -21 13 -42 9 -45 -5 -4 -34 -26 -66 -49 l-58 -43 -39 27 c-80 56 -184
70 -267 39 -24 -9 -45 -15 -46 -13 -167 230 -157 215 -120 195 17 -8 60 -20
96 -27 56 -10 76 -10 133 4 114 28 190 90 244 197 17 34 24 68 28 138 l5 92
41 -57 c23 -32 57 -80 76 -106z m139 -189 l41 -58 -62 -45 c-34 -25 -67 -44
-72 -42 -13 4 -26 65 -20 95 2 12 6 33 9 45 6 31 45 81 55 70 4 -4 26 -34 49
-65z m-401 -318 c19 -11 32 -25 30 -31 -2 -6 -31 -31 -65 -55 l-61 -44 -46 64
c-25 36 -46 67 -46 70 0 8 33 14 95 15 44 1 69 -4 93 -19z"/>
<path d="M3955 6188 c-25 -20 -27 -25 -22 -73 5 -49 4 -54 -25 -75 -36 -27
-44 -21 -29 22 10 28 9 35 -6 46 -22 16 -35 11 -53 -21 -11 -21 -12 -34 -4
-66 10 -38 9 -42 -13 -56 -18 -12 -23 -24 -21 -43 4 -32 37 -41 69 -19 19 14
25 13 61 -3 76 -34 136 11 124 92 -5 36 -3 45 13 55 17 10 19 8 25 -18 4 -20
11 -29 25 -29 30 0 44 26 38 68 -5 30 -2 41 17 60 43 40 2 91 -47 59 -19 -12
-25 -12 -52 5 -39 24 -66 23 -100 -4z"/>
<path d="M6339 6169 c-313 -228 -565 -418 -567 -428 -3 -16 54 -100 206 -306
107 -145 198 -270 221 -302 12 -18 30 -33 40 -33 10 0 271 185 582 411 449
327 564 416 564 433 -1 30 -443 636 -465 636 -9 0 -270 -185 -581 -411z m635
234 l37 -52 -23 -12 c-38 -20 -131 -14 -177 12 -23 12 -41 26 -41 30 0 4 30
30 68 57 76 57 69 59 136 -35z m-241 -93 c75 -59 186 -76 281 -44 26 9 48 15
50 13 2 -2 22 -30 45 -62 l42 -58 -31 -38 c-16 -22 -38 -57 -46 -78 -21 -49
-22 -156 -1 -205 l16 -37 -72 -52 c-40 -29 -87 -63 -105 -77 l-32 -25 21 49
c14 32 23 77 26 129 6 96 -17 168 -76 243 -65 82 -209 142 -309 127 l-47 -6
65 47 c36 25 79 57 95 70 37 29 46 29 78 4z m-37 -218 c102 -52 157 -137 157
-245 0 -160 -122 -281 -281 -280 -200 1 -334 223 -243 401 26 50 100 116 154
136 57 21 160 15 213 -12z m568 -89 l36 -51 -72 -51 c-50 -36 -75 -48 -82 -41
-6 6 -11 41 -11 79 0 57 4 74 28 110 33 50 32 51 101 -46z m-1008 -11 c-8 -16
-20 -59 -27 -95 -10 -56 -10 -76 4 -133 41 -165 156 -260 331 -273 l90 -6
-104 -77 -105 -76 -25 23 c-64 60 -195 84 -277 50 -20 -8 -37 -14 -38 -13 -1
2 -23 32 -49 67 -44 60 -46 65 -31 85 62 87 82 196 50 280 -10 26 -16 48 -14
50 16 13 202 146 206 146 2 0 -3 -13 -11 -28z m-252 -194 c13 -50 6 -133 -14
-165 -11 -18 -23 -33 -28 -33 -8 0 -93 111 -96 125 -1 7 114 94 125 95 4 0 9
-10 13 -22z m327 -474 c54 -27 53 -37 -16 -86 l-64 -47 -41 55 c-22 30 -43 60
-46 68 -13 33 107 40 167 10z"/>
<path d="M6437 6033 c-11 -11 -7 -47 7 -66 12 -16 12 -24 -4 -59 -34 -76 11
-136 92 -124 36 5 45 3 55 -13 10 -17 8 -19 -18 -25 -20 -4 -29 -11 -29 -25 0
-30 26 -44 68 -38 30 5 41 2 60 -17 40 -43 91 -2 59 47 -12 19 -12 25 5 52 24
39 23 66 -4 100 -20 25 -25 27 -73 22 -49 -5 -54 -4 -75 25 -27 36 -21 44 22
29 28 -10 35 -9 46 6 16 22 11 35 -21 53 -21 11 -34 12 -66 4 -38 -10 -42 -9
-56 12 -15 23 -53 32 -68 17z"/>
<path d="M1244 6472 c-22 -13 -698 -1197 -698 -1221 -1 -27 50 -59 444 -284
226 -128 230 -130 246 -119 16 10 696 1192 702 1219 3 16 -5 27 -34 46 -71 45
-633 367 -641 367 -4 0 -13 -4 -19 -8z m108 -128 c35 -21 65 -39 67 -40 8 -7
-35 -47 -71 -65 -37 -19 -122 -26 -145 -11 -8 5 0 28 28 80 22 39 44 72 49 72
5 0 37 -16 72 -36z m216 -124 c52 -29 62 -38 56 -55 -3 -11 -8 -48 -11 -82 -7
-80 15 -147 68 -207 l41 -46 -64 -110 -63 -110 -6 75 c-15 169 -133 297 -299
324 -77 13 -127 6 -199 -25 -29 -13 -55 -24 -57 -24 -1 0 23 45 54 100 52 93
59 100 82 95 117 -27 202 -9 277 60 26 24 50 43 53 42 3 -1 34 -18 68 -37z
m275 -160 c8 -7 -70 -150 -82 -150 -13 0 -49 44 -60 73 -12 31 -15 116 -5 141
5 14 16 11 73 -20 36 -20 70 -40 74 -44z m-472 -156 c87 -48 141 -139 142
-239 0 -80 -32 -152 -90 -206 -60 -55 -104 -72 -188 -72 -57 -1 -80 4 -121 26
-104 53 -161 156 -152 271 7 78 34 132 94 185 88 77 211 91 315 35z m-450
-401 c33 -70 99 -134 169 -166 36 -17 65 -21 146 -22 94 0 105 2 163 32 l62
32 -32 -57 c-70 -123 -107 -177 -120 -174 -79 19 -112 20 -165 6 -61 -16 -70
-21 -121 -67 l-31 -29 -71 38 -70 39 6 76 c7 95 -12 159 -66 221 l-38 43 61
107 61 107 8 -62 c4 -35 21 -89 38 -124z m-140 -218 c7 -33 8 -62 3 -78 l-9
-26 -72 41 -72 42 31 55 c49 89 49 88 80 50 15 -18 33 -56 39 -84z m497 -209
c6 -7 -68 -136 -78 -136 -5 0 -38 17 -74 38 l-66 38 24 23 c36 33 94 52 145
46 25 -3 46 -7 49 -9z"/>
<path d="M1190 5823 c-8 -3 -25 -14 -37 -25 -19 -18 -25 -19 -56 -7 -44 15
-67 7 -67 -25 0 -18 9 -30 30 -41 25 -13 29 -20 24 -40 -14 -55 26 -115 75
-115 14 0 41 9 60 21 29 18 38 19 57 8 l24 -12 -23 -11 c-26 -13 -35 -45 -15
-57 16 -11 58 -2 79 17 12 11 21 11 46 2 40 -15 63 -5 63 27 0 17 -8 29 -24
36 -21 10 -23 16 -18 55 4 37 1 49 -18 69 -29 31 -72 32 -112 3 -30 -21 -31
-21 -64 -3 -38 20 -36 35 6 35 37 0 52 36 24 57 -19 14 -29 15 -54 6z"/>
<path d="M2464 4332 c-13 -9 -644 -1239 -644 -1257 0 -22 33 -41 368 -210 328
-166 333 -169 351 -149 21 21 641 1230 641 1249 0 6 -8 19 -17 27 -17 15 -671
348 -682 348 -4 0 -11 -4 -17 -8z m111 -124 c36 -18 65 -35 65 -39 0 -16 -63
-59 -101 -69 -34 -9 -109 -5 -109 6 0 12 66 134 72 134 4 0 37 -14 73 -32z
m224 -113 l69 -34 -9 -39 c-19 -85 23 -209 92 -266 l30 -26 -57 -110 -58 -110
-13 62 c-35 173 -155 286 -316 296 -96 6 -147 -4 -212 -43 -66 -40 -67 -43 10
101 l54 101 80 -5 c72 -4 86 -2 134 21 29 15 66 40 82 57 16 16 33 30 37 30 5
0 39 -16 77 -35z m255 -217 c-19 -37 -38 -68 -44 -68 -34 0 -89 132 -76 183
l6 27 74 -37 74 -37 -34 -68z m-427 -109 c88 -42 153 -149 153 -249 0 -118
-85 -233 -195 -266 -186 -53 -355 75 -357 271 -1 75 25 135 86 194 82 80 208
100 313 50z m-443 -404 c82 -180 299 -250 486 -156 l61 30 -58 -110 c-43 -80
-62 -108 -73 -103 -8 3 -36 8 -61 11 -73 9 -153 -21 -214 -80 l-50 -48 -67 32
-66 32 5 87 c7 102 -10 151 -77 224 l-41 45 22 43 c12 24 38 72 58 108 l36 65
7 -63 c4 -34 18 -87 32 -117z m-118 -222 c13 -44 12 -123 -2 -123 -2 0 -37 17
-78 37 l-74 37 40 79 39 79 30 -28 c17 -17 36 -50 45 -81z m507 -189 c7 -8
-64 -154 -75 -154 -5 0 -40 16 -79 36 l-71 35 23 26 c34 36 96 63 150 63 25 0
48 -3 52 -6z"/>
<path d="M2395 3640 c-13 -15 -22 -17 -36 -10 -29 16 -57 12 -69 -10 -9 -17
-6 -24 15 -44 19 -18 25 -33 25 -65 0 -31 6 -48 25 -66 31 -32 66 -32 105 2
l32 26 41 -20 42 -21 -30 -7 c-51 -12 -55 -14 -55 -34 0 -43 51 -46 106 -5 21
15 35 19 45 13 23 -14 66 -10 73 7 10 27 7 34 -26 54 -28 17 -32 24 -30 54 4
42 -19 80 -58 96 -30 12 -55 5 -93 -28 -14 -13 -21 -13 -45 -2 -27 12 -27 12
-4 21 15 6 22 17 22 34 0 22 -4 25 -33 25 -21 0 -41 -8 -52 -20z"/>
<path d="M7023 4298 c-5 -7 -65 -174 -133 -371 -120 -350 -122 -359 -104 -377
16 -15 1177 -420 1205 -420 5 0 9 18 9 39 0 36 -3 40 -30 46 -43 9 -44 18 -5
56 29 28 35 41 35 77 l0 43 -29 -15 c-15 -8 -50 -39 -76 -68 l-47 -52 -113 39
c-107 37 -133 55 -81 55 13 0 50 14 84 31 204 101 259 374 111 543 -22 25 -39
46 -37 46 2 0 41 -13 86 -30 46 -16 87 -30 92 -30 6 0 10 18 10 40 0 22 -2 40
-4 40 -2 0 -213 72 -469 160 -256 88 -472 160 -480 160 -8 0 -19 -6 -24 -12z
m139 -104 c43 -14 78 -29 78 -33 0 -14 -75 -80 -103 -90 -41 -16 -120 -14
-115 2 3 6 15 42 27 80 13 37 26 67 29 67 4 0 42 -12 84 -26z m273 -94 c55
-18 104 -36 108 -40 5 -4 -9 -11 -30 -15 -144 -27 -258 -146 -282 -295 -16
-97 4 -178 65 -262 18 -26 31 -48 26 -48 -4 0 -55 16 -113 36 l-106 37 5 42
c10 90 -44 199 -124 253 l-41 27 26 75 26 74 46 -2 c26 -2 66 2 90 8 60 15
142 73 165 115 10 20 23 34 29 32 5 -2 55 -19 110 -37z m265 -156 c57 -28 123
-98 141 -150 23 -67 17 -161 -13 -220 -66 -127 -196 -180 -339 -138 -102 30
-189 149 -189 259 0 56 30 135 67 176 51 56 83 77 144 93 66 17 129 11 189
-20z m-693 -274 c14 -26 23 -61 23 -87 0 -23 -1 -43 -3 -43 -7 0 -147 49 -156
55 -9 5 26 126 44 156 11 16 67 -33 92 -81z"/>
<path d="M7615 3914 c-8 -9 -15 -22 -15 -30 0 -9 -11 -14 -30 -14 -93 0 -133
-82 -69 -141 31 -29 32 -30 19 -72 l-13 -42 -16 38 c-13 31 -20 37 -41 35 -40
-5 -39 -48 3 -90 28 -28 32 -38 25 -58 -24 -66 45 -95 72 -29 9 20 19 29 36
29 39 0 72 21 89 55 18 38 13 59 -25 100 -23 24 -26 34 -19 54 l9 23 19 -23
c16 -20 23 -22 38 -13 27 17 27 38 -2 73 -20 23 -25 38 -21 58 10 45 -29 76
-59 47z"/>
<path d="M4918 4193 c-8 -10 -88 -169 -178 -352 -116 -239 -160 -339 -153
-349 9 -16 1245 -622 1267 -622 23 0 41 31 158 270 204 417 213 439 197 454
-18 18 -1246 616 -1263 616 -7 0 -20 -8 -28 -17z m127 -110 c41 -21 74 -42 72
-48 -2 -5 -25 -25 -51 -42 -42 -29 -57 -33 -112 -33 -35 0 -64 3 -64 6 0 11
69 154 74 154 3 0 40 -17 81 -37z m322 -160 l58 -26 -64 -8 c-127 -16 -227
-89 -284 -208 -25 -53 -30 -76 -30 -135 0 -85 14 -140 49 -191 14 -20 24 -39
22 -40 -2 -2 -48 18 -103 44 l-100 47 0 90 c0 80 -3 94 -30 143 -16 30 -46 68
-66 85 l-37 30 34 68 34 67 69 -6 c97 -8 170 16 230 76 l46 46 57 -27 c32 -16
83 -40 115 -55z m128 -126 c61 -17 149 -109 169 -177 20 -68 20 -89 -1 -164
-32 -114 -144 -196 -268 -196 -113 0 -229 87 -261 195 -29 101 -3 203 72 278
79 80 164 99 289 64z m297 -80 l114 -54 -4 -77 c-5 -97 14 -153 74 -213 l44
-43 -36 -73 -36 -72 -73 3 c-63 4 -82 0 -129 -21 -31 -14 -71 -43 -90 -63
l-35 -38 -103 47 c-140 65 -139 63 -76 71 260 33 397 330 252 549 -13 20 -22
37 -20 37 2 0 56 -24 118 -53z m-971 -122 c16 -35 27 -145 14 -145 -13 0 -155
75 -155 82 0 5 16 40 36 79 l35 71 26 -23 c14 -13 34 -42 44 -64z m1232 -6
c34 -17 64 -33 66 -35 7 -6 -62 -144 -71 -144 -15 0 -66 80 -72 116 -7 33 0
94 10 94 3 0 33 -14 67 -31z m-166 -475 c22 -6 22 -7 -14 -78 -19 -39 -37 -72
-38 -74 -4 -4 -145 67 -145 73 0 10 73 59 107 71 43 15 59 16 90 8z"/>
<path d="M5456 3744 c-9 -8 -16 -20 -16 -25 0 -5 -20 -9 -45 -9 -85 0 -121
-68 -68 -130 26 -31 26 -32 9 -67 -18 -38 -32 -35 -38 7 -2 19 -9 25 -28 25
-21 0 -25 -5 -28 -36 -2 -27 3 -41 23 -62 25 -24 26 -28 14 -62 -11 -30 -11
-37 3 -51 21 -21 44 -12 65 25 15 25 22 28 49 24 40 -7 70 9 89 48 18 34 13
63 -17 96 -15 16 -19 29 -14 47 8 31 22 34 29 6 3 -14 14 -20 31 -20 22 0 26
4 26 29 0 15 -9 40 -20 53 -17 22 -18 29 -7 57 11 29 10 34 -7 47 -25 18 -31
18 -50 -2z"/>
<path d="M0 3946 c0 -40 2 -44 33 -52 32 -10 32 -10 38 -84 3 -47 13 -90 26
-116 20 -38 87 -107 112 -115 7 -3 2 -30 -16 -85 l-27 -82 -55 0 c-31 0 -68
-5 -83 -11 -24 -9 -28 -16 -28 -52 0 -35 2 -40 18 -34 34 15 102 28 109 22 3
-4 -4 -41 -17 -83 -26 -81 -20 -77 -87 -58 -21 6 -23 3 -23 -33 0 -39 1 -40
54 -58 29 -10 60 -16 68 -12 9 3 25 32 36 64 11 32 36 103 55 158 140 397 177
511 172 526 -4 12 -35 27 -88 45 -45 15 -130 44 -189 65 l-108 38 0 -43z m206
-110 c22 -8 51 -19 66 -25 l27 -10 -25 -76 c-14 -41 -29 -75 -33 -75 -10 0
-67 61 -78 85 -23 46 -25 115 -3 115 4 0 25 -6 46 -14z"/>
<path d="M4279 2208 c-8 -21 -124 -1399 -118 -1414 7 -19 20 -22 141 -34 73
-6 149 -13 168 -15 19 -1 135 -11 258 -21 169 -14 225 -15 230 -7 4 7 34 313
65 680 32 367 60 679 63 693 11 57 8 57 -371 90 -318 27 -433 35 -436 28z
m188 -84 l52 -7 -15 -36 c-8 -20 -25 -46 -37 -59 -27 -29 -89 -62 -116 -62
-18 0 -19 5 -15 73 3 39 7 78 10 85 4 13 41 15 121 6z m230 -20 l61 -7 6 -46
c13 -93 91 -188 181 -218 l30 -10 -2 -94 c-2 -52 -5 -110 -9 -129 l-6 -35 -24
52 c-33 69 -118 145 -192 173 -47 18 -72 21 -142 17 -110 -5 -166 -30 -240
-106 l-57 -59 4 42 c2 22 7 74 11 115 l7 75 45 11 c106 28 186 96 211 181 15
49 14 48 116 38z m309 -28 c3 -3 -16 -170 -20 -174 -3 -2 -22 4 -43 15 -46 24
-103 104 -103 145 l0 29 83 -7 c45 -3 82 -7 83 -8z m-268 -365 c90 -47 152
-145 152 -242 0 -86 -17 -133 -68 -191 -80 -88 -175 -116 -287 -84 -77 23
-154 98 -180 175 -53 159 34 316 200 362 45 12 140 2 183 -20z m-361 -512 c82
-74 177 -103 287 -88 106 14 180 60 248 154 l29 39 -6 -64 c-4 -36 -10 -99
-13 -140 l-7 -75 -40 -6 c-86 -12 -165 -73 -205 -158 l-25 -53 -59 6 c-32 3
-69 6 -82 6 -18 0 -23 7 -29 38 -15 89 -96 184 -182 213 l-35 11 7 111 c4 61
9 117 12 124 4 9 16 -4 33 -34 16 -27 46 -65 67 -84z m-47 -239 c32 -25 80
-113 69 -125 -3 -2 -42 -2 -86 2 l-80 6 4 46 c9 103 12 113 36 106 12 -4 38
-19 57 -35z m571 -95 l-6 -70 -79 2 c-44 2 -81 5 -84 8 -11 10 51 96 81 111
42 22 80 33 88 25 4 -3 4 -37 0 -76z"/>
<path d="M4508 1583 c-14 -16 -28 -36 -31 -45 -4 -12 -17 -18 -40 -18 -37 0
-57 -15 -57 -42 0 -20 28 -38 60 -38 13 0 24 -10 31 -27 33 -87 127 -101 159
-23 10 24 19 30 41 30 28 0 29 -1 14 -23 -13 -20 -13 -26 -1 -42 12 -17 17
-18 40 -7 14 6 31 23 38 37 9 19 19 25 44 25 45 0 63 31 34 60 -11 11 -28 20
-39 20 -12 0 -20 9 -24 29 -11 53 -62 84 -111 65 -9 -3 -25 -21 -37 -40 -18
-29 -26 -34 -60 -34 -44 0 -51 15 -15 32 32 14 39 33 20 53 -22 22 -37 19 -66
-12z"/>
<path d="M1227 2167 c-9 -7 -34 -52 -57 -102 -22 -49 -48 -106 -56 -125 -107
-233 -210 -478 -207 -491 6 -22 1283 -590 1304 -578 20 10 331 702 324 721 -3
7 -288 139 -633 292 -345 154 -634 283 -643 287 -9 5 -23 3 -32 -4z m166 -139
c18 -9 17 -12 -9 -40 -16 -17 -43 -37 -61 -44 -31 -13 -123 -20 -123 -9 0 3
14 39 32 79 l31 74 56 -25 c31 -14 64 -29 74 -35z m240 -106 l88 -39 -63 -13
c-122 -24 -206 -89 -257 -200 -28 -60 -33 -83 -33 -143 0 -81 28 -168 69 -217
13 -17 21 -30 16 -30 -4 0 -60 23 -124 51 l-116 52 8 43 c16 83 -20 182 -90
248 -17 17 -31 33 -31 38 0 4 14 39 31 77 l31 69 53 -5 c83 -9 159 20 220 82
57 58 37 59 198 -13z m202 -146 c58 -27 104 -73 137 -136 31 -60 32 -165 2
-231 -64 -139 -227 -200 -364 -137 -195 88 -225 336 -59 470 77 62 195 76 284
34z m273 -66 l101 -44 -6 -61 c-9 -100 29 -191 103 -245 39 -28 39 -36 -1
-122 l-25 -56 -43 10 c-95 21 -222 -29 -280 -113 l-15 -21 -119 53 -118 54 59
7 c267 34 400 339 243 562 -11 16 -16 27 -10 25 5 -2 55 -24 111 -49z m-969
-187 c13 -47 14 -90 2 -97 -5 -4 -41 9 -79 26 l-69 33 34 75 35 75 33 -37 c18
-20 38 -53 44 -75z m1237 67 l72 -32 -32 -71 c-18 -39 -38 -73 -44 -75 -15 -5
-61 45 -78 85 -18 42 -19 137 -1 130 6 -3 44 -20 83 -37z m-143 -476 c12 -4 9
-19 -20 -84 l-35 -78 -77 35 c-42 19 -78 37 -80 39 -9 9 46 57 84 75 39 18 99
24 128 13z"/>
<path d="M1777 1722 c-10 -10 -17 -24 -17 -30 0 -7 -16 -12 -41 -12 -31 0 -47
-6 -70 -29 -36 -37 -37 -70 -3 -110 19 -23 24 -38 20 -56 -7 -27 -26 -34 -26
-11 0 20 -16 29 -40 21 -26 -8 -26 -45 -1 -77 15 -18 18 -34 14 -65 -5 -36 -3
-42 18 -48 18 -6 27 -2 44 19 15 19 30 26 57 26 81 0 113 70 62 138 -27 34
-27 34 -9 71 l18 36 11 -32 c14 -42 29 -55 49 -47 26 10 21 62 -9 101 -21 28
-24 38 -16 62 18 52 -25 83 -61 43z"/>
<path d="M7236 1802 c-378 -138 -653 -244 -659 -253 -8 -12 21 -102 118 -365
143 -390 140 -384 160 -384 11 0 1013 360 1128 405 12 5 17 18 17 47 0 38 -1
40 -25 34 -24 -6 -25 -4 -25 37 0 26 10 63 26 94 18 37 24 64 22 95 l-3 43
-42 -44 c-54 -56 -86 -137 -81 -209 l3 -52 -40 -15 c-22 -8 -71 -26 -109 -40
-88 -32 -92 -32 -62 8 73 95 91 228 47 344 -41 110 -150 199 -273 222 -26 5
-37 10 -28 14 8 4 65 25 125 47 l110 40 18 -23 c71 -90 122 -119 226 -126 l74
-6 16 -45 16 -45 3 105 c2 100 1 109 -35 205 -30 77 -43 101 -58 102 -11 2
-312 -104 -669 -235z m667 76 c19 -54 23 -74 14 -80 -15 -9 -73 0 -107 17 -31
17 -86 73 -77 81 6 6 126 52 138 53 4 1 18 -32 32 -71z m-415 -204 c130 -53
202 -209 158 -342 -21 -61 -84 -135 -139 -164 -57 -29 -151 -35 -214 -14 -182
61 -247 298 -120 442 81 92 205 123 315 78z m-378 -31 c-59 -67 -75 -116 -75
-228 0 -90 3 -105 28 -153 15 -29 44 -70 63 -92 41 -45 143 -100 186 -100 51
0 29 -15 -79 -55 l-107 -38 -15 24 c-52 81 -154 133 -254 127 l-57 -3 -20 52
c-36 96 -36 97 8 125 76 51 133 176 117 261 l-7 34 109 41 c59 22 114 41 122
41 7 1 -1 -15 -19 -36z m-280 -104 c0 -56 -24 -113 -63 -152 -22 -22 -43 -35
-47 -31 -14 14 -61 147 -54 153 6 6 144 59 157 60 4 1 7 -13 7 -30z m136 -508
c23 -10 51 -33 63 -50 l22 -31 -28 -11 c-33 -13 -135 -49 -139 -49 -1 0 -12
30 -25 68 -12 37 -24 73 -27 80 -7 19 86 15 134 -7z"/>
<path d="M7275 1620 c-3 -11 -3 -29 0 -41 5 -14 -1 -28 -19 -46 -66 -66 -32
-143 64 -143 21 0 29 -6 34 -24 3 -13 9 -32 12 -40 6 -15 4 -15 -29 0 -59 28
-90 -3 -47 -46 13 -13 33 -20 61 -20 36 0 42 -3 52 -30 7 -18 21 -33 34 -36
37 -10 46 4 39 56 -5 38 -3 49 9 54 9 3 22 21 30 40 27 63 -12 116 -84 116
-17 0 -31 7 -35 16 -10 27 -7 36 13 29 22 -7 53 19 45 39 -6 16 -47 36 -74 36
-12 0 -26 12 -35 30 -19 36 -60 42 -70 10z"/>
<path d="M2 1642 c0 -131 4 -180 11 -173 22 22 35 9 61 -61 30 -79 30 -79 -36
-100 -36 -11 -38 -13 -38 -54 l0 -43 83 30 c45 17 88 36 96 44 11 11 6 34 -33
147 -26 73 -69 192 -96 263 l-49 130 1 -183z"/>
</g>
</svg>
