<?xml version="1.0" standalone="no"?>
<!DOCTYPE svg PUBLIC "-//W3C//DTD SVG 20010904//EN"
 "http://www.w3.org/TR/2001/REC-SVG-20010904/DTD/svg10.dtd">
<svg version="1.0" xmlns="http://www.w3.org/2000/svg"
 width="800.000000pt" height="700.000000pt" viewBox="0 0 800.000000 700.000000"
 preserveAspectRatio="xMidYMid meet">

<g transform="translate(0.000000,700.000000) scale(0.100000,-0.100000)"
 stroke="none">
<path fill="#f78952" d="M2640 6980 c0 -33 29 -36 58 -6 l27 26 -43 0 c-36 0 -42 -3 -42 -20z"/>
<path fill="#f78952" d="M2928 6993 c7 -3 16 -2 19 1 4 3 -2 6 -13 5 -11 0 -14 -3 -6 -6z"/>
<path fill="#f78952" d="M668 6125 c-5 -5 -8 -341 -8 -747 0 -666 2 -739 16 -745 11 -4 43 21
104 82 l89 88 7 -39 c9 -54 21 -73 51 -85 38 -14 79 5 92 43 6 17 11 79 11
137 l0 106 104 104 c86 86 107 102 125 96 26 -8 41 -42 41 -92 0 -26 8 -42 31
-64 42 -39 86 -39 128 0 l31 29 0 193 0 194 128 128 127 128 -70 67 c-177 170
-432 298 -699 353 -109 22 -296 36 -308 24z m330 -76 c56 -12 102 -26 102 -31
0 -5 -7 -22 -15 -39 -9 -16 -13 -34 -10 -39 13 -20 36 -9 52 26 16 32 21 35
48 30 49 -10 265 -122 339 -177 l68 -50 -21 -23 c-12 -12 -21 -30 -21 -39 0
-23 33 -22 55 3 23 25 33 25 62 -2 l23 -22 -46 -47 -46 -47 -67 54 c-36 29
-93 69 -126 89 -33 19 -66 39 -74 44 -10 7 -9 16 10 49 20 34 22 43 11 54 -11
11 -18 8 -37 -14 -13 -16 -28 -35 -33 -44 -8 -14 -17 -13 -78 14 -80 35 -248
86 -316 96 l-47 7 14 38 c7 21 9 44 5 51 -14 22 -38 3 -51 -40 -12 -39 -14
-41 -48 -38 l-36 3 -3 64 -3 64 93 -6 c51 -3 139 -16 196 -28z m-93 -171 c213
-43 454 -157 612 -290 l42 -35 -28 -27 c-31 -30 -41 -32 -41 -11 0 21 -30 31
-41 14 -5 -8 -9 -118 -9 -244 0 -243 -2 -255 -46 -255 -30 0 -41 17 -49 74 -9
59 -46 103 -93 112 -30 6 -38 1 -127 -87 l-95 -93 0 36 c0 36 -21 65 -40 53
-6 -4 -10 -76 -10 -201 0 -164 -2 -196 -15 -200 -22 -9 -45 14 -45 46 0 29
-34 80 -54 80 -6 0 -32 -21 -56 -46 -25 -25 -57 -55 -72 -65 l-28 -20 0 119 0
120 37 19 c50 24 75 62 80 120 6 58 -22 107 -80 138 l-37 20 0 327 0 328 48
-6 c26 -3 92 -14 147 -26z"/>
<path fill="#c42929" d="M815 5799 c-89 -78 -58 -216 56 -251 53 -15 108 2 148 47 26 30 31
44 31 86 0 96 -53 149 -147 149 -44 0 -58 -5 -88 -31z"/>
<path fill="#c42929" d="M1064 5460 c-102 -41 -40 -199 62 -160 37 15 53 38 53 80 0 42 -16
65 -53 80 -32 12 -34 12 -62 0z"/>
<path fill="#f78952" d="M6108 6125 c-5 -5 -8 -341 -8 -747 0 -666 2 -739 16 -745 11 -4 43
21 104 82 l89 88 7 -39 c9 -54 21 -73 51 -85 38 -14 79 5 92 43 6 17 11 79 11
137 l0 106 104 104 c86 86 107 102 125 96 26 -8 41 -42 41 -92 0 -26 8 -42 31
-64 42 -39 86 -39 128 0 l31 29 0 193 0 194 128 128 127 128 -70 67 c-177 170
-432 298 -699 353 -109 22 -296 36 -308 24z m330 -76 c56 -12 102 -26 102 -31
0 -5 -7 -22 -15 -39 -9 -16 -13 -34 -10 -39 13 -20 36 -9 52 26 16 32 21 35
48 30 49 -10 265 -122 339 -177 l68 -50 -21 -23 c-12 -12 -21 -30 -21 -39 0
-23 33 -22 55 3 23 25 33 25 62 -2 l23 -22 -46 -47 -46 -47 -67 54 c-36 29
-93 69 -126 89 -33 19 -66 39 -74 44 -10 7 -9 16 10 49 20 34 22 43 11 54 -11
11 -18 8 -37 -14 -13 -16 -28 -35 -33 -44 -8 -14 -17 -13 -78 14 -80 35 -248
86 -316 96 l-47 7 14 38 c7 21 9 44 5 51 -14 22 -38 3 -51 -40 -12 -39 -14
-41 -48 -38 l-36 3 -3 64 -3 64 93 -6 c51 -3 139 -16 196 -28z m-93 -171 c213
-43 454 -157 612 -290 l42 -35 -28 -27 c-31 -30 -41 -32 -41 -11 0 21 -30 31
-41 14 -5 -8 -9 -118 -9 -244 0 -243 -2 -255 -46 -255 -30 0 -41 17 -49 74 -9
59 -46 103 -93 112 -30 6 -38 1 -127 -87 l-95 -93 0 36 c0 36 -21 65 -40 53
-6 -4 -10 -76 -10 -201 0 -164 -2 -196 -15 -200 -22 -9 -45 14 -45 46 0 29
-34 80 -54 80 -6 0 -32 -21 -56 -46 -25 -25 -57 -55 -72 -65 l-28 -20 0 119 0
120 37 19 c50 24 75 62 80 120 6 58 -22 107 -80 138 l-37 20 0 327 0 328 48
-6 c26 -3 92 -14 147 -26z"/>
<path fill="#de2121" d="M6255 5799 c-89 -78 -58 -216 56 -251 53 -15 108 2 148 47 26 30 31
44 31 86 0 96 -53 149 -147 149 -44 0 -58 -5 -88 -31z"/>
<path fill="#de2121" d="M6504 5460 c-102 -41 -40 -199 62 -160 37 15 53 38 53 80 0 42 -16
65 -53 80 -32 12 -34 12 -62 0z"/>
<path fill="#f78952" d="M3408 6105 c-5 -5 -8 -341 -8 -747 0 -666 2 -739 16 -745 11 -4 43
21 104 82 l89 88 7 -39 c9 -54 21 -73 51 -85 38 -14 79 5 92 43 6 17 11 79 11
137 l0 106 104 104 c86 86 107 102 125 96 26 -8 41 -42 41 -92 0 -26 8 -42 31
-64 42 -39 86 -39 128 0 l31 29 0 193 0 194 128 128 127 128 -70 67 c-177 170
-432 298 -699 353 -109 22 -296 36 -308 24z m330 -76 c56 -12 102 -26 102 -31
0 -5 -7 -22 -15 -39 -9 -16 -13 -34 -10 -39 13 -20 36 -9 52 26 16 32 21 35
48 30 49 -10 265 -122 339 -177 l68 -50 -21 -23 c-12 -12 -21 -30 -21 -39 0
-23 33 -22 55 3 23 25 33 25 62 -2 l23 -22 -46 -47 -46 -47 -67 54 c-36 29
-93 69 -126 89 -33 19 -66 39 -74 44 -10 7 -9 16 10 49 20 34 22 43 11 54 -11
11 -18 8 -37 -14 -13 -16 -28 -35 -33 -44 -8 -14 -17 -13 -78 14 -80 35 -248
86 -316 96 l-47 7 14 38 c7 21 9 44 5 51 -14 22 -38 3 -51 -40 -12 -39 -14
-41 -48 -38 l-36 3 -3 64 -3 64 93 -6 c51 -3 139 -16 196 -28z m-93 -171 c213
-43 454 -157 612 -290 l42 -35 -28 -27 c-31 -30 -41 -32 -41 -11 0 21 -30 31
-41 14 -5 -8 -9 -118 -9 -244 0 -243 -2 -255 -46 -255 -30 0 -41 17 -49 74 -9
59 -46 103 -93 112 -30 6 -38 1 -127 -87 l-95 -93 0 36 c0 36 -21 65 -40 53
-6 -4 -10 -76 -10 -201 0 -164 -2 -196 -15 -200 -22 -9 -45 14 -45 46 0 29
-34 80 -54 80 -6 0 -32 -21 -56 -46 -25 -25 -57 -55 -72 -65 l-28 -20 0 119 0
120 37 19 c50 24 75 62 80 120 6 58 -22 107 -80 138 l-37 20 0 327 0 328 48
-6 c26 -3 92 -14 147 -26z"/>
<path fill="#de2121" d="M3555 5779 c-45 -40 -62 -95 -47 -148 35 -114 173 -145 251 -56 26
30 31 44 31 86 0 96 -53 149 -147 149 -44 0 -58 -5 -88 -31z"/>
<path fill="#de2121" d="M3804 5440 c-102 -41 -40 -199 62 -160 37 15 53 38 53 80 0 42 -16
65 -53 80 -32 12 -34 12 -62 0z"/>
<path fill="#f78952" d="M1588 3825 c-5 -5 -8 -341 -8 -747 0 -666 2 -739 16 -745 11 -4 43
21 104 82 l89 88 7 -39 c9 -54 21 -73 51 -85 38 -14 79 5 92 43 6 17 11 79 11
137 l0 106 104 104 c86 86 107 102 125 96 26 -8 41 -42 41 -92 0 -26 8 -42 31
-64 42 -39 86 -39 128 0 l31 29 0 193 0 194 128 128 127 128 -70 67 c-177 170
-432 298 -699 353 -109 22 -296 36 -308 24z m330 -76 c56 -12 102 -26 102 -31
0 -5 -7 -22 -15 -39 -9 -16 -13 -34 -10 -39 13 -20 36 -9 52 26 16 32 21 35
48 30 49 -10 265 -122 339 -177 l68 -50 -21 -23 c-12 -12 -21 -30 -21 -39 0
-23 33 -22 55 3 23 25 33 25 62 -2 l23 -22 -46 -47 -46 -47 -67 54 c-36 29
-93 69 -126 89 -33 19 -66 39 -74 44 -10 7 -9 16 10 49 20 34 22 43 11 54 -11
11 -18 8 -37 -14 -13 -16 -28 -35 -33 -44 -8 -14 -17 -13 -78 14 -80 35 -248
86 -316 96 l-47 7 14 38 c7 21 9 44 5 51 -14 22 -38 3 -51 -40 -12 -39 -14
-41 -48 -38 l-36 3 -3 64 -3 64 93 -6 c51 -3 139 -16 196 -28z m-93 -171 c213
-43 454 -157 612 -290 l42 -35 -28 -27 c-31 -30 -41 -32 -41 -11 0 21 -30 31
-41 14 -5 -8 -9 -118 -9 -244 0 -243 -2 -255 -46 -255 -30 0 -41 17 -49 74 -9
59 -46 103 -93 112 -30 6 -38 1 -127 -87 l-95 -93 0 36 c0 36 -21 65 -40 53
-6 -4 -10 -76 -10 -201 0 -164 -2 -196 -15 -200 -22 -9 -45 14 -45 46 0 29
-34 80 -54 80 -6 0 -32 -21 -56 -46 -25 -25 -57 -55 -72 -65 l-28 -20 0 119 0
120 37 19 c50 24 75 62 80 120 6 58 -22 107 -80 138 l-37 20 0 327 0 328 48
-6 c26 -3 92 -14 147 -26z"/>
<path fill="#de2121" d="M1735 3499 c-45 -40 -62 -95 -47 -148 35 -114 173 -145 251 -56 26
30 31 44 31 86 0 96 -53 149 -147 149 -44 0 -58 -5 -88 -31z"/>
<path fill="#de2121" d="M1984 3160 c-102 -41 -40 -199 62 -160 37 15 53 38 53 80 0 42 -16
65 -53 80 -32 12 -34 12 -62 0z"/>
<path fill="#f78952" d="M6888 3825 c-5 -5 -8 -341 -8 -747 0 -666 2 -739 16 -745 11 -4 43
21 104 82 l89 88 7 -39 c9 -54 21 -73 51 -85 38 -14 79 5 92 43 6 17 11 79 11
137 l0 106 104 104 c86 86 107 102 125 96 26 -8 41 -42 41 -92 0 -26 8 -42 31
-64 42 -39 86 -39 128 0 l31 29 0 193 0 194 128 128 127 128 -70 67 c-177 170
-432 298 -699 353 -109 22 -296 36 -308 24z m330 -76 c56 -12 102 -26 102 -31
0 -5 -7 -22 -15 -39 -9 -16 -13 -34 -10 -39 13 -20 36 -9 52 26 16 32 21 35
48 30 49 -10 265 -122 339 -177 l68 -50 -21 -23 c-12 -12 -21 -30 -21 -39 0
-23 33 -22 55 3 23 25 33 25 62 -2 l23 -22 -46 -47 -46 -47 -67 54 c-36 29
-93 69 -126 89 -33 19 -66 39 -74 44 -10 7 -9 16 10 49 20 34 22 43 11 54 -11
11 -18 8 -37 -14 -13 -16 -28 -35 -33 -44 -8 -14 -17 -13 -78 14 -80 35 -248
86 -316 96 l-47 7 14 38 c7 21 9 44 5 51 -14 22 -38 3 -51 -40 -12 -39 -14
-41 -48 -38 l-36 3 -3 64 -3 64 93 -6 c51 -3 139 -16 196 -28z m-93 -171 c213
-43 454 -157 612 -290 l42 -35 -28 -27 c-31 -30 -41 -32 -41 -11 0 21 -30 31
-41 14 -5 -8 -9 -118 -9 -244 0 -243 -2 -255 -46 -255 -30 0 -41 17 -49 74 -9
59 -46 103 -93 112 -30 6 -38 1 -127 -87 l-95 -93 0 36 c0 36 -21 65 -40 53
-6 -4 -10 -76 -10 -201 0 -164 -2 -196 -15 -200 -22 -9 -45 14 -45 46 0 29
-34 80 -54 80 -6 0 -32 -21 -56 -46 -25 -25 -57 -55 -72 -65 l-28 -20 0 119 0
120 37 19 c50 24 75 62 80 120 6 58 -22 107 -80 138 l-37 20 0 327 0 328 48
-6 c26 -3 92 -14 147 -26z"/>
<path fill="#de2121" d="M7035 3499 c-45 -40 -62 -95 -47 -148 35 -114 173 -145 251 -56 26
30 31 44 31 86 0 96 -53 149 -147 149 -44 0 -58 -5 -88 -31z"/>
<path fill="#de2121" d="M7284 3160 c-102 -41 -40 -199 62 -160 37 15 53 38 53 80 0 42 -16
65 -53 80 -32 12 -34 12 -62 0z"/>
<path fill="#f78952" d="M4348 3705 c-5 -5 -8 -341 -8 -747 0 -666 2 -739 16 -745 11 -4 43
21 104 82 l89 88 7 -39 c9 -54 21 -73 51 -85 38 -14 79 5 92 43 6 17 11 79 11
137 l0 106 104 104 c86 86 107 102 125 96 26 -8 41 -42 41 -92 0 -26 8 -42 31
-64 42 -39 86 -39 128 0 l31 29 0 193 0 194 128 128 127 128 -70 67 c-177 170
-432 298 -699 353 -109 22 -296 36 -308 24z m330 -76 c56 -12 102 -26 102 -31
0 -5 -7 -22 -15 -39 -9 -16 -13 -34 -10 -39 13 -20 36 -9 52 26 16 32 21 35
48 30 49 -10 265 -122 339 -177 l68 -50 -21 -23 c-12 -12 -21 -30 -21 -39 0
-23 33 -22 55 3 23 25 33 25 62 -2 l23 -22 -46 -47 -46 -47 -67 54 c-36 29
-93 69 -126 89 -33 19 -66 39 -74 44 -10 7 -9 16 10 49 20 34 22 43 11 54 -11
11 -18 8 -37 -14 -13 -16 -28 -35 -33 -44 -8 -14 -17 -13 -78 14 -80 35 -248
86 -316 96 l-47 7 14 38 c7 21 9 44 5 51 -14 22 -38 3 -51 -40 -12 -39 -14
-41 -48 -38 l-36 3 -3 64 -3 64 93 -6 c51 -3 139 -16 196 -28z m-93 -171 c213
-43 454 -157 612 -290 l42 -35 -28 -27 c-31 -30 -41 -32 -41 -11 0 21 -30 31
-41 14 -5 -8 -9 -118 -9 -244 0 -243 -2 -255 -46 -255 -30 0 -41 17 -49 74 -9
59 -46 103 -93 112 -30 6 -38 1 -127 -87 l-95 -93 0 36 c0 36 -21 65 -40 53
-6 -4 -10 -76 -10 -201 0 -164 -2 -196 -15 -200 -22 -9 -45 14 -45 46 0 29
-34 80 -54 80 -6 0 -32 -21 -56 -46 -25 -25 -57 -55 -72 -65 l-28 -20 0 119 0
120 37 19 c50 24 75 62 80 120 6 58 -22 107 -80 138 l-37 20 0 327 0 328 48
-6 c26 -3 92 -14 147 -26z"/>
<path fill="#de2121" d="M4495 3379 c-45 -40 -62 -95 -47 -148 35 -114 173 -145 251 -56 26
30 31 44 31 86 0 96 -53 149 -147 149 -44 0 -58 -5 -88 -31z"/>
<path fill="#de2121" d="M4744 3040 c-102 -41 -40 -199 62 -160 37 15 53 38 53 80 0 42 -16
65 -53 80 -32 12 -34 12 -62 0z"/>
<path fill="#f78952" d="M5348 1585 c-5 -5 -8 -341 -8 -747 0 -666 2 -739 16 -745 11 -4 43
21 104 82 l89 88 7 -39 c9 -54 21 -73 51 -85 38 -14 79 5 92 43 6 17 11 79 11
137 l0 106 104 104 c86 86 107 102 125 96 26 -8 41 -42 41 -92 0 -46 47 -93
95 -93 22 0 43 9 64 29 l31 29 0 193 0 194 128 128 127 128 -70 67 c-177 170
-432 298 -699 353 -109 22 -296 36 -308 24z m330 -76 c56 -12 102 -26 102 -31
0 -5 -7 -22 -15 -39 -9 -16 -13 -34 -10 -39 13 -20 36 -9 52 26 16 32 21 35
48 30 49 -10 265 -122 339 -177 l68 -50 -21 -23 c-12 -12 -21 -30 -21 -39 0
-23 33 -22 55 3 23 25 33 25 62 -2 l23 -22 -46 -47 -46 -47 -67 54 c-36 29
-93 69 -126 89 -33 19 -66 39 -74 44 -10 7 -9 16 10 49 20 34 22 43 11 54 -11
11 -18 8 -37 -14 -13 -16 -28 -35 -33 -44 -8 -14 -17 -13 -78 14 -80 35 -248
86 -316 96 l-47 7 14 38 c7 21 9 44 5 51 -14 22 -38 3 -51 -40 -12 -39 -14
-41 -48 -38 l-36 3 -3 64 -3 64 93 -6 c51 -3 139 -16 196 -28z m-93 -171 c213
-43 454 -157 612 -290 l42 -35 -28 -27 c-31 -30 -41 -32 -41 -11 0 21 -30 31
-41 14 -5 -8 -9 -118 -9 -244 0 -243 -2 -255 -46 -255 -30 0 -41 17 -49 74 -9
59 -46 103 -93 112 -30 6 -38 1 -127 -87 l-95 -93 0 36 c0 36 -21 65 -40 53
-6 -4 -10 -76 -10 -201 0 -164 -2 -196 -15 -200 -22 -9 -45 14 -45 46 0 29
-34 80 -54 80 -6 0 -32 -21 -56 -46 -25 -25 -57 -55 -72 -65 l-28 -20 0 119 0
120 37 19 c50 24 75 62 80 120 6 58 -22 107 -80 138 l-37 20 0 327 0 328 48
-6 c26 -3 92 -14 147 -26z"/>
<path fill="#de2121" d="M5495 1259 c-45 -40 -62 -95 -47 -148 35 -114 173 -145 251 -56 26
30 31 44 31 86 0 96 -53 149 -147 149 -44 0 -58 -5 -88 -31z"/>
<path fill="#de2121" d="M5744 920 c-102 -41 -40 -199 62 -160 37 15 53 38 53 80 0 42 -16 65
-53 80 -32 12 -34 12 -62 0z"/>
<path fill="#f78952" d="M308 1545 c-5 -5 -8 -341 -8 -747 0 -666 2 -739 16 -745 11 -4 43 21
104 82 l89 88 7 -39 c9 -54 21 -73 51 -85 38 -14 79 5 92 43 6 17 11 79 11
137 l0 106 104 104 c86 86 107 102 125 96 26 -8 41 -42 41 -92 0 -46 47 -93
95 -93 22 0 43 9 64 29 l31 29 0 193 0 194 127 128 128 128 -70 67 c-177 170
-432 298 -699 353 -109 22 -296 36 -308 24z m330 -76 c56 -12 102 -26 102 -31
0 -5 -7 -22 -15 -39 -9 -16 -13 -34 -10 -39 13 -20 36 -9 52 26 16 32 21 35
48 30 49 -10 265 -122 339 -177 l68 -50 -21 -23 c-12 -12 -21 -30 -21 -39 0
-23 33 -22 55 3 23 25 33 25 62 -2 l23 -22 -46 -47 -46 -47 -67 54 c-36 29
-93 69 -126 89 -33 19 -66 39 -74 44 -10 7 -9 16 10 49 20 34 22 43 11 54 -11
11 -18 8 -37 -14 -13 -16 -28 -35 -33 -44 -8 -14 -17 -13 -78 14 -80 35 -248
86 -316 96 l-47 7 14 38 c7 21 9 44 5 51 -14 22 -38 3 -51 -40 -12 -39 -14
-41 -48 -38 l-36 3 -3 64 -3 64 93 -6 c51 -3 139 -16 196 -28z m-93 -171 c213
-43 454 -157 612 -290 l42 -35 -28 -27 c-31 -30 -41 -32 -41 -11 0 21 -30 31
-41 14 -5 -8 -9 -118 -9 -244 0 -243 -2 -255 -46 -255 -30 0 -41 17 -49 74 -9
59 -46 103 -93 112 -30 6 -38 1 -127 -87 l-95 -93 0 36 c0 36 -21 65 -40 53
-6 -4 -10 -76 -10 -201 0 -164 -2 -196 -15 -200 -22 -9 -45 14 -45 46 0 29
-34 80 -54 80 -6 0 -32 -21 -56 -46 -25 -25 -57 -55 -72 -65 l-28 -20 0 119 0
120 37 19 c50 24 75 62 80 120 6 58 -22 107 -80 138 l-37 20 0 327 0 328 48
-6 c26 -3 92 -14 147 -26z"/>
<path fill="#de2121" d="M455 1219 c-45 -40 -62 -95 -47 -148 35 -114 173 -145 251 -56 26 30
31 44 31 86 0 96 -53 149 -147 149 -44 0 -58 -5 -88 -31z"/>
<path fill="#de2121" d="M704 880 c-102 -41 -40 -199 62 -160 37 15 53 38 53 80 0 42 -16 65
-53 80 -32 12 -34 12 -62 0z"/>
<path fill="#f78952" d="M2648 1445 c-5 -5 -8 -332 -8 -727 l0 -718 42 0 c39 0 48 6 104 61
l63 62 6 -39 c11 -63 30 -84 73 -84 20 0 42 4 49 8 23 15 33 65 33 170 l0 107
104 104 c86 86 107 102 125 96 26 -8 41 -42 41 -92 0 -46 47 -93 95 -93 22 0
43 9 64 29 l31 29 0 193 0 194 128 128 127 128 -70 67 c-177 170 -432 298
-699 353 -109 22 -296 36 -308 24z m330 -76 c56 -12 102 -26 102 -31 0 -5 -7
-22 -15 -39 -9 -16 -13 -34 -10 -39 13 -20 36 -9 52 26 16 32 21 35 48 30 49
-10 265 -122 339 -177 l68 -50 -21 -23 c-12 -12 -21 -30 -21 -39 0 -23 33 -22
55 3 23 25 33 25 62 -2 l23 -22 -46 -47 -46 -47 -67 54 c-36 29 -93 69 -126
89 -33 19 -66 39 -74 44 -10 7 -9 16 10 49 20 34 22 43 11 54 -11 11 -18 8
-37 -14 -13 -16 -28 -35 -33 -44 -8 -14 -17 -13 -78 14 -80 35 -248 86 -316
96 l-47 7 14 38 c7 21 9 44 5 51 -14 22 -38 3 -51 -40 -12 -39 -14 -41 -48
-38 l-36 3 -3 64 -3 64 93 -6 c51 -3 139 -16 196 -28z m-93 -171 c213 -43 454
-157 612 -290 l42 -35 -28 -27 c-31 -30 -41 -32 -41 -11 0 21 -30 31 -41 14
-5 -8 -9 -118 -9 -244 0 -243 -2 -255 -46 -255 -30 0 -41 17 -49 74 -9 59 -46
103 -93 112 -30 6 -38 1 -127 -87 l-95 -93 0 36 c0 36 -21 65 -40 53 -6 -4
-10 -76 -10 -201 0 -164 -2 -196 -15 -200 -22 -9 -45 14 -45 46 0 29 -34 80
-54 80 -6 0 -32 -21 -56 -46 -25 -25 -57 -55 -72 -65 l-28 -20 0 119 0 120 37
19 c50 24 75 62 80 120 6 58 -22 107 -80 138 l-37 20 0 327 0 328 48 -6 c26
-3 92 -14 147 -26z"/>
<path fill="#de2121" d="M2795 1119 c-45 -40 -62 -95 -47 -148 35 -114 173 -145 251 -56 26
30 31 44 31 86 0 96 -53 149 -147 149 -44 0 -58 -5 -88 -31z"/>
<path fill="#de2121" d="M3044 780 c-102 -41 -40 -199 62 -160 37 15 53 38 53 80 0 42 -16 65
-53 80 -32 12 -34 12 -62 0z"/>
</g>
</svg>
