<?xml version="1.0" standalone="no"?>
<!DOCTYPE svg PUBLIC "-//W3C//DTD SVG 20010904//EN"
 "http://www.w3.org/TR/2001/REC-SVG-20010904/DTD/svg10.dtd">
<svg version="1.0" xmlns="http://www.w3.org/2000/svg"
 width="800.000000pt" height="700.000000pt" viewBox="0 0 800.000000 700.000000"
 preserveAspectRatio="xMidYMid meet">

<g transform="translate(0.000000,700.000000) scale(0.100000,-0.100000)"
fill="#000000" stroke="none">
<path d="M824 6910 c33 -435 358 -791 786 -859 92 -15 253 -13 335 4 107 22
215 64 215 83 0 9 -89 207 -197 439 -191 410 -198 423 -225 423 -15 0 -28 -2
-28 -4 0 -2 74 -163 165 -357 91 -194 165 -356 165 -360 0 -13 -161 -50 -242
-56 -206 -13 -445 84 -592 241 -114 123 -182 280 -201 469 -7 63 -9 67 -33 67
-25 0 -25 0 -19 -73 30 -408 349 -727 752 -754 102 -6 226 8 309 37 l53 18 17
-35 c9 -20 16 -37 14 -38 -2 -2 -33 -12 -69 -23 -331 -102 -694 -4 -923 250
-138 151 -212 326 -231 541 -6 74 -8 77 -32 77 l-26 0 7 -90z"/>
<path d="M1460 6990 c0 -6 11 -15 25 -22 19 -8 28 -8 40 2 25 21 17 30 -25 30
-22 0 -40 -5 -40 -10z"/>
<path d="M3527 6963 c56 -391 312 -686 689 -795 68 -20 102 -23 239 -23 196 0
252 13 420 95 135 66 217 128 303 230 68 80 87 113 79 133 -3 9 -149 101 -325
207 -307 184 -321 191 -366 188 l-47 -3 285 -170 284 -171 -42 -51 c-102 -123
-238 -211 -392 -255 -102 -29 -277 -31 -374 -5 -193 51 -350 164 -455 325 -52
82 -101 203 -111 281 -6 45 -9 51 -30 51 -20 0 -24 -5 -24 -27 0 -59 33 -162
82 -263 44 -91 62 -116 142 -195 130 -130 255 -198 424 -231 207 -40 419 4
603 125 69 46 163 134 202 190 16 25 17 25 52 8 32 -15 34 -19 24 -38 -22 -43
-161 -178 -229 -223 -232 -156 -528 -196 -787 -107 -162 56 -316 167 -420 303
-81 106 -173 331 -173 424 0 31 -3 34 -29 34 -29 0 -30 -1 -24 -37z"/>
<path d="M4202 6988 c-34 -34 6 -90 48 -68 35 19 20 80 -20 80 -9 0 -21 -5
-28 -12z"/>
<path d="M6635 6629 c-385 -204 -706 -377 -714 -384 -12 -12 -10 -20 12 -58
81 -137 218 -267 364 -344 165 -87 312 -119 498 -110 286 15 535 153 717 397
42 56 105 191 135 286 25 81 27 103 27 254 1 144 -2 176 -23 248 -22 79 -24
82 -53 82 -24 0 -29 -3 -24 -17 56 -146 68 -379 28 -531 -46 -170 -132 -313
-261 -433 -136 -128 -306 -206 -499 -229 -275 -34 -577 80 -759 286 -53 60
-103 127 -103 138 0 3 15 13 32 22 32 17 33 17 53 -11 163 -227 374 -346 640
-362 313 -18 616 158 753 439 72 148 87 213 86 383 0 128 -3 147 -30 225 l-29
85 -75 3 -75 2 -700 -371z m842 219 c23 -84 22 -259 0 -352 -22 -88 -82 -216
-136 -286 -94 -125 -249 -227 -407 -271 -58 -16 -105 -21 -188 -21 -227 1
-409 80 -557 240 -69 74 -100 123 -84 129 6 2 305 160 665 352 l655 349 17
-38 c10 -21 26 -67 35 -102z"/>
<path d="M7188 6703 c-25 -6 -35 -51 -15 -70 30 -31 83 3 70 45 -6 17 -34 29
-55 25z"/>
<path d="M6936 6564 c-9 -8 -16 -21 -16 -28 0 -15 32 -46 47 -46 13 0 43 33
43 48 0 15 -29 42 -45 42 -7 0 -21 -7 -29 -16z"/>
<path d="M7156 6488 c-27 -38 12 -81 53 -58 27 14 28 56 2 70 -28 15 -38 13
-55 -12z"/>
<path d="M6694 6436 c-3 -8 -4 -25 -2 -38 2 -18 9 -23 32 -23 36 0 56 27 40
53 -14 22 -62 28 -70 8z"/>
<path d="M6896 6354 c-9 -8 -16 -22 -16 -29 0 -7 7 -21 16 -29 8 -9 22 -16 29
-16 7 0 21 7 29 16 9 8 16 22 16 29 0 7 -7 21 -16 29 -8 9 -22 16 -29 16 -7 0
-21 -7 -29 -16z"/>
<path d="M6466 6317 c-38 -27 2 -95 42 -71 24 16 28 55 6 71 -10 7 -21 13 -24
13 -3 0 -14 -6 -24 -13z"/>
<path d="M7075 6260 c-38 -42 19 -94 59 -54 22 21 20 40 -6 58 -29 20 -31 20
-53 -4z"/>
<path d="M6632 6218 c-17 -17 -15 -44 4 -62 20 -21 30 -20 54 4 24 24 25 34 4
54 -18 19 -45 21 -62 4z"/>
<path d="M6878 6159 c-22 -12 -23 -52 -3 -69 19 -16 45 -9 62 17 13 19 12 24
-6 42 -24 24 -29 25 -53 10z"/>
<path d="M3970 6925 c-15 -19 -6 -61 16 -69 20 -8 64 19 64 39 0 37 -56 58
-80 30z"/>
<path d="M1176 6874 c-9 -8 -16 -20 -16 -25 0 -12 37 -49 49 -49 16 0 41 30
41 49 0 38 -45 54 -74 25z"/>
<path d="M1379 6839 c-18 -18 -19 -23 -6 -42 17 -26 43 -33 62 -17 19 16 19
45 -1 64 -20 21 -30 20 -55 -5z"/>
<path d="M4432 6848 c-18 -18 -15 -56 6 -66 9 -6 27 -6 40 -1 38 14 24 79 -18
79 -9 0 -21 -5 -28 -12z"/>
<path d="M1589 6791 c-21 -16 -22 -22 -11 -45 15 -33 56 -36 72 -5 14 25 8 44
-19 58 -15 8 -24 7 -42 -8z"/>
<path d="M4236 6777 c-38 -27 2 -95 42 -71 24 16 28 55 6 71 -10 7 -21 13 -24
13 -3 0 -14 -6 -24 -13z"/>
<path d="M4660 6706 c-6 -8 -10 -25 -8 -38 2 -19 9 -23 38 -23 29 0 36 4 38
23 4 28 -14 52 -38 52 -10 0 -23 -7 -30 -14z"/>
<path d="M4042 6688 c-27 -27 -6 -68 35 -68 29 0 48 33 33 60 -12 22 -49 27
-68 8z"/>
<path d="M1269 6656 c-15 -33 4 -58 39 -54 55 7 54 70 -1 76 -21 3 -30 -3 -38
-22z"/>
<path d="M4482 6618 c-27 -27 -6 -68 35 -68 29 0 48 33 33 60 -12 22 -49 27
-68 8z"/>
<path d="M1506 6575 c-24 -24 -20 -54 10 -67 23 -11 29 -10 45 11 17 21 18 26
6 45 -18 27 -40 31 -61 11z"/>
<path d="M4252 6579 c-18 -7 -23 -15 -20 -35 7 -56 69 -57 76 -1 4 32 -23 49
-56 36z"/>
<path d="M1702 6551 c-8 -5 -12 -21 -10 -37 3 -26 7 -29 38 -29 29 0 36 4 38
23 6 41 -31 65 -66 43z"/>
<path d="M306 5090 c-164 -60 -301 -111 -303 -114 -2 -2 -3 -15 -1 -29 l3 -25
240 87 240 87 13 -50 c7 -28 14 -103 15 -166 1 -92 -3 -131 -21 -193 -64 -223
-204 -393 -404 -490 -78 -37 -88 -45 -88 -69 l0 -27 38 13 c139 49 279 154
368 275 114 155 158 290 158 486 0 89 -5 148 -15 186 l-16 56 35 13 c44 15 45
13 68 -103 28 -148 5 -350 -59 -500 -92 -216 -300 -412 -517 -485 -46 -16 -55
-23 -58 -45 -4 -32 -1 -32 69 -8 289 99 518 346 599 646 41 149 37 370 -7 513
-13 41 -21 52 -37 51 -12 0 -155 -49 -320 -109z"/>
<path d="M3320 5069 c-96 -44 -470 -211 -830 -371 -360 -160 -661 -296 -668
-303 -11 -10 -10 -20 8 -54 89 -176 242 -326 425 -418 151 -76 354 -113 514
-94 235 29 425 123 581 288 111 116 185 247 230 404 31 106 38 307 16 417 -25
125 -57 207 -81 209 -11 1 -99 -34 -195 -78z m217 -100 c27 -115 23 -307 -10
-430 -86 -325 -348 -575 -677 -645 -85 -18 -261 -18 -347 1 -206 43 -393 153
-511 298 -49 61 -112 155 -112 167 0 4 16 14 35 23 l35 17 19 -38 c45 -89 150
-200 254 -271 148 -101 369 -154 543 -131 158 21 305 83 422 178 63 52 166
184 205 266 65 134 82 205 82 356 0 129 -3 145 -40 275 -5 16 1 24 27 37 32
15 33 15 45 -7 7 -12 20 -55 30 -96z m-142 9 c81 -269 -2 -572 -208 -764 -92
-85 -161 -127 -274 -167 -73 -25 -108 -31 -203 -35 -182 -7 -341 40 -486 143
-68 49 -173 165 -205 228 l-20 38 78 35 c698 314 1281 572 1290 573 7 1 19
-23 28 -51z"/>
<path d="M3106 4757 c-38 -27 2 -95 42 -71 24 16 28 55 6 71 -10 7 -21 13 -24
13 -3 0 -14 -6 -24 -13z"/>
<path d="M2856 4644 c-9 -8 -16 -22 -16 -29 0 -7 7 -21 16 -29 8 -9 22 -16 29
-16 7 0 21 7 29 16 9 8 16 22 16 29 0 7 -7 21 -16 29 -8 9 -22 16 -29 16 -7 0
-21 -7 -29 -16z"/>
<path d="M3070 4556 c-6 -8 -10 -25 -8 -38 2 -19 9 -23 38 -23 31 0 35 3 38
29 5 42 -41 64 -68 32z"/>
<path d="M2612 4538 c-34 -34 6 -90 48 -68 35 19 20 80 -20 80 -9 0 -21 -5
-28 -12z"/>
<path d="M2800 4436 c-6 -8 -10 -25 -8 -38 2 -19 9 -23 38 -23 29 0 36 4 38
23 4 28 -14 52 -38 52 -10 0 -23 -7 -30 -14z"/>
<path d="M2360 4425 c-15 -19 -6 -61 16 -69 20 -8 64 19 64 39 0 37 -56 58
-80 30z"/>
<path d="M2976 4334 c-34 -33 -8 -82 38 -70 32 8 40 42 15 67 -23 23 -33 24
-53 3z"/>
<path d="M2532 4318 c-34 -34 6 -90 48 -68 35 19 20 80 -20 80 -9 0 -21 -5
-28 -12z"/>
<path d="M2762 4238 c-27 -27 -6 -68 35 -68 29 0 48 33 33 60 -12 22 -49 27
-68 8z"/>
<path d="M7440 4775 c-408 -149 -556 -207 -558 -219 -6 -29 75 -177 142 -263
136 -172 333 -293 550 -337 89 -19 259 -21 357 -5 67 12 69 13 69 42 0 21 -4
28 -14 24 -42 -16 -190 -29 -275 -24 -265 16 -502 144 -668 362 -34 44 -108
174 -102 179 7 5 72 26 74 24 2 -2 13 -23 25 -48 93 -187 263 -330 485 -407
113 -40 332 -43 458 -7 11 4 17 15 17 34 l0 28 -47 -15 c-27 -8 -93 -17 -148
-20 -235 -12 -466 85 -613 258 -66 78 -129 186 -116 199 5 5 214 83 464 174
451 163 468 171 458 209 -2 10 -161 -44 -558 -188z"/>
<path d="M187 4832 c-10 -10 -17 -24 -17 -30 0 -15 29 -42 45 -42 18 0 45 27
45 45 0 17 -27 45 -44 45 -7 0 -20 -8 -29 -18z"/>
<path d="M7948 4753 c-10 -3 -21 -16 -24 -30 -9 -34 16 -58 50 -49 21 5 26 12
26 36 0 31 -22 49 -52 43z"/>
<path d="M7674 4635 c-8 -33 12 -57 45 -53 22 3 26 8 26 38 0 32 -3 35 -32 38
-28 3 -33 -1 -39 -23z"/>
<path d="M142 4638 c-27 -27 -6 -68 35 -68 29 0 48 33 33 60 -12 22 -49 27
-68 8z"/>
<path d="M7424 4556 c-3 -8 -4 -25 -2 -38 2 -18 10 -24 35 -26 28 -3 33 1 39
23 4 15 1 31 -6 40 -16 19 -59 19 -66 1z"/>
<path d="M7862 4538 c-27 -27 -6 -68 35 -68 29 0 48 33 33 60 -12 22 -49 27
-68 8z"/>
<path d="M7579 4426 c-15 -33 4 -58 39 -54 55 7 54 70 -1 76 -21 3 -30 -3 -38
-22z"/>
<path d="M36 4427 c-38 -27 2 -95 42 -71 24 16 28 55 6 71 -10 7 -21 13 -24
13 -3 0 -14 -6 -24 -13z"/>
<path d="M7816 4344 c-34 -33 -8 -82 38 -70 36 9 44 45 16 68 -27 22 -34 22
-54 2z"/>
<path d="M4475 4051 c-37 -73 -74 -213 -85 -316 -29 -275 79 -566 281 -761
185 -179 395 -264 649 -264 319 0 612 152 785 408 l50 74 -22 18 c-37 30
-1599 890 -1616 890 -10 0 -27 -21 -42 -49z m115 -57 c0 -8 -6 -27 -14 -42 -7
-15 -24 -67 -36 -117 -19 -77 -22 -107 -17 -220 3 -96 11 -148 27 -200 112
-350 408 -574 762 -575 169 0 300 35 438 119 80 48 190 151 235 219 27 41 28
41 55 27 16 -8 31 -19 34 -24 9 -15 -75 -121 -148 -187 -131 -118 -274 -188
-450 -219 -291 -50 -574 39 -775 244 -163 166 -245 351 -258 578 -7 129 7 233
44 338 39 109 38 108 73 90 17 -9 30 -22 30 -31z m786 -421 l590 -328 -28 -40
c-194 -268 -546 -380 -863 -273 -100 34 -194 95 -286 188 -71 71 -94 103 -133
181 -57 117 -76 188 -83 309 -6 104 12 220 49 317 l21 53 71 -39 c39 -22 337
-187 662 -368z"/>
<path d="M4836 3674 c-9 -8 -16 -21 -16 -28 0 -15 32 -46 47 -46 13 0 43 33
43 48 0 15 -29 42 -45 42 -7 0 -21 -7 -29 -16z"/>
<path d="M5072 3548 c-34 -34 6 -90 48 -68 35 19 20 80 -20 80 -9 0 -21 -5
-28 -12z"/>
<path d="M4840 3471 c-16 -31 4 -63 37 -59 34 4 52 32 37 56 -16 26 -60 28
-74 3z"/>
<path d="M5306 3414 c-9 -8 -16 -22 -16 -29 0 -17 27 -45 44 -45 15 0 46 32
46 48 0 15 -29 42 -45 42 -7 0 -21 -7 -29 -16z"/>
<path d="M5106 3334 c-9 -8 -16 -21 -16 -28 0 -15 32 -46 48 -46 15 0 42 29
42 45 0 18 -27 45 -45 45 -7 0 -21 -7 -29 -16z"/>
<path d="M5542 3288 c-34 -34 6 -90 48 -68 35 19 20 80 -20 80 -9 0 -21 -5
-28 -12z"/>
<path d="M4926 3244 c-9 -8 -16 -22 -16 -29 0 -7 7 -21 16 -29 8 -9 22 -16 29
-16 17 0 45 27 45 44 0 15 -32 46 -48 46 -6 0 -18 -7 -26 -16z"/>
<path d="M5360 3185 c-21 -25 3 -67 37 -63 34 4 52 31 37 56 -15 23 -57 27
-74 7z"/>
<path d="M5127 3132 c-10 -10 -17 -24 -17 -30 0 -15 29 -42 45 -42 18 0 45 27
45 45 0 17 -27 45 -44 45 -7 0 -20 -8 -29 -18z"/>
<path d="M1072 2663 c-4 -10 -6 -72 -6 -138 2 -148 26 -253 89 -382 209 -435
682 -641 1140 -497 182 58 376 202 487 362 84 121 176 380 146 408 -10 8
-1798 265 -1841 264 -4 0 -11 -8 -15 -17z m129 -168 c9 -172 49 -287 144 -420
167 -232 419 -357 695 -342 135 7 201 25 328 88 176 88 311 235 388 422 18 45
34 90 34 99 0 38 10 47 48 41 20 -3 38 -7 39 -8 6 -4 -38 -145 -62 -200 -66
-148 -213 -310 -362 -399 -157 -94 -365 -139 -541 -118 -366 44 -657 288 -761
638 -24 80 -40 217 -33 282 4 43 4 43 41 40 l36 -3 6 -120z m989 -21 c305 -42
556 -78 558 -79 1 -1 -9 -38 -23 -81 -44 -138 -136 -275 -242 -359 -72 -57
-217 -130 -303 -152 -91 -23 -265 -22 -355 1 -328 87 -555 364 -572 697 l-6
106 194 -28 c107 -15 444 -62 749 -105z"/>
<path d="M1546 2404 c-9 -8 -16 -22 -16 -29 0 -7 7 -21 16 -29 8 -9 22 -16 29
-16 7 0 21 7 29 16 9 8 16 22 16 29 0 7 -7 21 -16 29 -8 9 -22 16 -29 16 -7 0
-21 -7 -29 -16z"/>
<path d="M1812 2368 c-7 -7 -12 -22 -12 -35 0 -28 36 -46 63 -31 33 17 15 78
-23 78 -9 0 -21 -5 -28 -12z"/>
<path d="M2070 2321 c-16 -31 4 -63 37 -59 34 4 52 32 37 56 -16 26 -60 28
-74 3z"/>
<path d="M2346 2294 c-34 -33 -8 -82 38 -70 32 8 40 42 15 67 -23 23 -33 24
-53 3z"/>
<path d="M1627 2222 c-10 -10 -17 -23 -17 -29 0 -13 33 -43 48 -43 15 0 42 29
42 45 0 17 -27 45 -44 45 -7 0 -20 -8 -29 -18z"/>
<path d="M1926 2187 c-38 -27 2 -95 42 -71 24 16 28 55 6 71 -10 7 -21 13 -24
13 -3 0 -14 -6 -24 -13z"/>
<path d="M2222 2144 c-38 -26 -22 -74 25 -74 24 0 48 33 39 55 -10 26 -41 35
-64 19z"/>
<path d="M1786 2034 c-34 -33 -8 -82 38 -70 31 8 40 33 21 62 -18 28 -37 30
-59 8z"/>
<path d="M2016 2007 c-38 -27 2 -95 42 -71 24 16 28 55 6 71 -10 7 -21 13 -24
13 -3 0 -14 -6 -24 -13z"/>
<path d="M6805 1825 c-22 -7 -416 -113 -875 -235 -459 -123 -841 -229 -849
-235 -17 -17 -5 -56 55 -180 123 -255 366 -442 655 -506 78 -17 116 -20 224
-16 156 6 252 29 375 90 377 189 584 588 519 1000 -17 103 -23 108 -104 82z
m52 -92 c4 -27 7 -102 6 -168 -1 -97 -6 -137 -28 -209 -31 -107 -98 -240 -160
-318 -110 -140 -297 -262 -472 -310 -107 -28 -326 -31 -428 -4 -287 76 -522
280 -624 543 l-20 52 36 10 c20 6 38 9 39 8 1 -1 18 -37 38 -80 181 -395 633
-579 1034 -421 153 60 309 194 393 335 84 141 127 319 115 475 -3 45 -9 89
-12 98 -4 11 4 18 28 25 18 5 36 10 40 10 4 1 10 -20 15 -46z m-131 -15 c4
-12 6 -74 6 -138 -1 -96 -6 -130 -28 -200 -68 -220 -193 -369 -389 -466 -126
-62 -196 -78 -335 -78 -137 0 -207 17 -335 79 -99 48 -162 97 -243 190 -55 63
-148 233 -135 246 4 4 305 87 668 184 363 97 680 183 705 190 64 19 78 18 86
-7z"/>
<path d="M6396 1504 c-21 -20 -20 -30 3 -53 25 -25 59 -17 67 15 12 46 -37 72
-70 38z"/>
<path d="M6136 1434 c-21 -20 -20 -30 3 -53 25 -25 59 -17 67 15 12 46 -37 72
-70 38z"/>
<path d="M5871 1358 c-13 -33 4 -58 39 -58 23 0 31 5 36 25 8 31 -10 55 -43
55 -15 0 -27 -8 -32 -22z"/>
<path d="M6330 1311 c-16 -31 4 -63 37 -59 34 4 52 32 37 56 -16 26 -60 28
-74 3z"/>
<path d="M5614 1296 c-3 -8 -4 -25 -2 -38 2 -18 9 -23 32 -23 36 0 56 27 40
53 -14 22 -62 28 -70 8z"/>
<path d="M6044 1236 c-9 -23 -1 -48 19 -60 25 -16 52 4 52 40 0 25 -4 29 -33
32 -22 2 -34 -2 -38 -12z"/>
<path d="M5766 1164 c-9 -8 -16 -22 -16 -29 0 -17 27 -45 44 -45 15 0 46 32
46 48 0 15 -29 42 -45 42 -7 0 -21 -7 -29 -16z"/>
<path d="M6202 1108 c-27 -27 -6 -68 35 -68 31 0 52 42 33 65 -15 18 -51 20
-68 3z"/>
<path d="M5982 1048 c-27 -27 -6 -68 35 -68 29 0 48 33 33 60 -12 22 -49 27
-68 8z"/>
<path d="M1303 801 c-80 -44 -141 -92 -214 -168 -150 -155 -241 -350 -265
-570 -7 -63 -7 -63 20 -63 29 0 31 6 41 105 8 86 64 242 121 338 56 94 169
212 263 275 35 23 67 42 72 42 5 0 16 -14 25 -32 16 -30 16 -33 -1 -43 -105
-62 -204 -151 -262 -235 -78 -115 -131 -253 -148 -393 -7 -57 -7 -57 19 -57
19 0 27 6 30 23 30 169 38 199 87 296 43 87 65 118 133 186 44 45 104 95 131
112 l51 30 149 -323 c144 -310 151 -324 178 -324 15 0 27 3 27 8 -1 23 -380
817 -391 819 -8 2 -38 -10 -66 -26z"/>
<path d="M3636 538 c-24 -37 -67 -144 -88 -223 -11 -41 -22 -120 -25 -193 l-6
-122 25 0 c25 0 25 1 32 108 3 59 13 136 21 172 17 74 74 222 84 218 3 -2 18
-10 34 -17 15 -8 27 -17 27 -21 0 -4 -11 -32 -24 -63 -40 -88 -56 -164 -63
-285 l-6 -112 29 0 29 0 1 93 c2 103 21 197 58 281 22 51 28 56 45 47 10 -6
173 -103 361 -216 327 -196 344 -205 393 -205 l52 0 -460 277 c-253 152 -470
278 -482 280 -15 4 -26 -2 -37 -19z"/>
<path d="M1354 276 c-3 -8 -4 -25 -2 -38 2 -18 9 -23 32 -23 36 0 56 27 40 53
-14 22 -62 28 -70 8z"/>
<path d="M3970 126 c-16 -20 -9 -56 13 -70 39 -24 79 44 41 71 -23 17 -39 16
-54 -1z"/>
<path d="M1256 114 c-34 -33 -8 -82 38 -70 32 8 40 42 15 67 -23 23 -33 24
-53 3z"/>
<path d="M7435 54 l-100 -54 73 0 c40 0 71 4 68 8 -3 5 11 16 31 26 37 18 52
11 53 -21 0 -8 13 -13 30 -13 17 0 30 3 30 6 0 3 -10 28 -21 55 -16 37 -27 49
-43 48 -11 0 -66 -25 -121 -55z"/>
<path d="M1472 38 c-25 -25 -13 -38 34 -38 46 0 46 0 32 23 -18 26 -48 33 -66
15z"/>
</g>
</svg>
